Italic_opsz5.ufo
<glyph name="comma" format="2">
  <advance width="458"/>
  <unicode hex="002C"/>
  <outline>
    <contour>
      <point x="168" y="61" type="curve" smooth="yes"/>
      <point x="168" y="29"/>
      <point x="191" y="0"/>
      <point x="229" y="0" type="curve" smooth="yes"/>
      <point x="244" y="0"/>
      <point x="259" y="4"/>
      <point x="270" y="14" type="curve"/>
      <point x="270" y="14" type="line"/>
      <point x="270" y="14" type="line"/>
      <point x="270" y="-82"/>
      <point x="218" y="-137"/>
      <point x="191" y="-159" type="curve" smooth="yes"/>
      <point x="181" y="-167"/>
      <point x="179" y="-169"/>
      <point x="179" y="-176" type="curve" smooth="yes"/>
      <point x="179" y="-182"/>
      <point x="188" y="-194"/>
      <point x="197" y="-194" type="curve" smooth="yes"/>
      <point x="210" y="-194"/>
      <point x="304" y="-116"/>
      <point x="304" y="9" type="curve" smooth="yes"/>
      <point x="304" y="77"/>
      <point x="274" y="122"/>
      <point x="229" y="122" type="curve" smooth="yes"/>
      <point x="191" y="122"/>
      <point x="168" y="92"/>
    </contour>
  </outline>
</glyph>
<glyph name="slash" format="2">
  <advance width="736"/>
  <unicode hex="002F"/>
  <outline>
    <contour>
      <point x="604" y="700" type="line" smooth="yes"/>
      <point x="611" y="715"/>
      <point x="611" y="719"/>
      <point x="611" y="722" type="curve" smooth="yes"/>
      <point x="611" y="737"/>
      <point x="598" y="750"/>
      <point x="583" y="750" type="curve" smooth="yes"/>
      <point x="567" y="750"/>
      <point x="559" y="739"/>
      <point x="553" y="725" type="curve" smooth="yes"/>
      <point x="132" y="-200" type="line" smooth="yes"/>
      <point x="125" y="-215"/>
      <point x="125" y="-219"/>
      <point x="125" y="-222" type="curve" smooth="yes"/>
      <point x="125" y="-237"/>
      <point x="138" y="-250"/>
      <point x="153" y="-250" type="curve" smooth="yes"/>
      <point x="169" y="-250"/>
      <point x="177" y="-239"/>
      <point x="183" y="-225" type="curve" smooth="yes"/>
    </contour>
  </outline>
</glyph>
<glyph name="one" format="2">
  <advance width="736"/>
  <unicode hex="0031"/>
  <outline>
    <contour>
      <point x="336" y="379" type="curve"/>
      <point x="336" y="88" type="line" smooth="yes"/>
      <point x="336" y="58"/>
      <point x="334" y="51"/>
      <point x="304" y="48" type="curve" smooth="yes"/>
      <point x="274" y="45"/>
      <point x="250" y="45"/>
      <point x="213" y="45" type="curve" smooth="yes"/>
      <point x="191" y="45"/>
      <point x="180" y="45"/>
      <point x="180" y="22" type="curve" smooth="yes"/>
      <point x="180" y="8"/>
      <point x="185" y="0"/>
      <point x="201" y="0" type="curve" smooth="yes"/>
      <point x="229" y="0"/>
      <point x="260" y="3"/>
      <point x="289" y="3" type="curve" smooth="yes"/>
      <point x="349" y="4"/>
      <point x="410" y="4"/>
      <point x="456" y="3" type="curve" smooth="yes"/>
      <point x="499" y="3"/>
      <point x="531" y="0"/>
      <point x="560" y="0" type="curve" smooth="yes"/>
      <point x="576" y="0"/>
      <point x="581" y="8"/>
      <point x="581" y="22" type="curve" smooth="yes"/>
      <point x="581" y="45"/>
      <point x="570" y="45"/>
      <point x="548" y="45" type="curve" smooth="yes"/>
      <point x="506" y="45"/>
      <point x="481" y="46"/>
      <point x="460" y="48" type="curve" smooth="yes"/>
      <point x="425" y="52"/>
      <point x="425" y="58"/>
      <point x="425" y="88" type="curve" smooth="yes"/>
      <point x="425" y="420" type="line" smooth="yes"/>
      <point x="425" y="440"/>
      <point x="425" y="453"/>
      <point x="407" y="453" type="curve" smooth="yes"/>
      <point x="404" y="453"/>
      <point x="402" y="453"/>
      <point x="390" y="446" type="curve" smooth="yes"/>
      <point x="373" y="437"/>
      <point x="322" y="410"/>
      <point x="212" y="410" type="curve" smooth="yes"/>
      <point x="182" y="410"/>
      <point x="173" y="410"/>
      <point x="173" y="387" type="curve" smooth="yes"/>
      <point x="173" y="365"/>
      <point x="182" y="365"/>
      <point x="209" y="365" type="curve" smooth="yes"/>
      <point x="220" y="365"/>
      <point x="283" y="365"/>
    </contour>
  </outline>
</glyph>
<glyph name="four" format="2">
  <advance width="736"/>
  <unicode hex="0034"/>
  <outline>
    <contour>
      <point x="325" y="-194" type="curve" smooth="yes"/>
      <point x="349" y="-194"/>
      <point x="375" y="-191"/>
      <point x="400" y="-191" type="curve" smooth="yes"/>
      <point x="424" y="-191"/>
      <point x="448" y="-190"/>
      <point x="472" y="-190" type="curve" smooth="yes"/>
      <point x="498" y="-190"/>
      <point x="523" y="-191"/>
      <point x="549" y="-191" type="curve" smooth="yes"/>
      <point x="572" y="-191"/>
      <point x="598" y="-194"/>
      <point x="620" y="-194" type="curve" smooth="yes"/>
      <point x="640" y="-194"/>
      <point x="640" y="-180"/>
      <point x="640" y="-172" type="curve" smooth="yes"/>
      <point x="640" y="-149"/>
      <point x="632" y="-149"/>
      <point x="605" y="-149" type="curve" smooth="yes"/>
      <point x="604" y="-149"/>
      <point x="560" y="-149"/>
      <point x="539" y="-145" type="curve" smooth="yes"/>
      <point x="519" y="-142"/>
      <point x="519" y="-135"/>
      <point x="519" y="-108" type="curve" smooth="yes"/>
      <point x="519" y="0" type="line"/>
      <point x="613" y="0" type="line" smooth="yes"/>
      <point x="635" y="0"/>
      <point x="645" y="0"/>
      <point x="645" y="22" type="curve" smooth="yes"/>
      <point x="645" y="45"/>
      <point x="636" y="45"/>
      <point x="613" y="45" type="curve" smooth="yes"/>
      <point x="519" y="45" type="line"/>
      <point x="519" y="432" type="line" smooth="yes"/>
      <point x="519" y="458"/>
      <point x="519" y="464"/>
      <point x="491" y="464" type="curve" smooth="yes"/>
      <point x="472" y="464"/>
      <point x="469" y="464"/>
      <point x="455" y="449" type="curve" smooth="yes"/>
      <point x="101" y="57" type="line" smooth="yes"/>
      <point x="91" y="46"/>
      <point x="91" y="43"/>
      <point x="91" y="28" type="curve" smooth="yes"/>
      <point x="91" y="0"/>
      <point x="98" y="0"/>
      <point x="124" y="0" type="curve" smooth="yes"/>
      <point x="426" y="0" type="line"/>
      <point x="426" y="-108" type="line" smooth="yes"/>
      <point x="426" y="-134"/>
      <point x="426" y="-141"/>
      <point x="408" y="-145" type="curve" smooth="yes"/>
      <point x="388" y="-149"/>
      <point x="362" y="-149"/>
      <point x="342" y="-149" type="curve" smooth="yes"/>
      <point x="313" y="-149"/>
      <point x="305" y="-149"/>
      <point x="305" y="-172" type="curve" smooth="yes"/>
      <point x="305" y="-180"/>
      <point x="305" y="-194"/>
    </contour>
    <contour>
      <point x="434" y="45" type="line"/>
      <point x="141" y="45" type="line"/>
      <point x="434" y="370" type="line"/>
    </contour>
  </outline>
</glyph>
<glyph name="six" format="2">
  <advance width="736"/>
  <unicode hex="0036"/>
  <outline>
    <contour>
      <point x="211" y="327" type="curve"/>
      <point x="212" y="397"/>
      <point x="217" y="480"/>
      <point x="269" y="547" type="curve" smooth="yes"/>
      <point x="297" y="581"/>
      <point x="354" y="627"/>
      <point x="439" y="627" type="curve" smooth="yes"/>
      <point x="461" y="627"/>
      <point x="506" y="625"/>
      <point x="534" y="600" type="curve"/>
      <point x="507" y="594"/>
      <point x="494" y="573"/>
      <point x="494" y="550" type="curve" smooth="yes"/>
      <point x="494" y="522"/>
      <point x="515" y="499"/>
      <point x="545" y="499" type="curve" smooth="yes"/>
      <point x="575" y="499"/>
      <point x="597" y="520"/>
      <point x="597" y="552" type="curve" smooth="yes"/>
      <point x="597" y="610"/>
      <point x="554" y="666"/>
      <point x="438" y="666" type="curve" smooth="yes"/>
      <point x="267" y="666"/>
      <point x="108" y="526"/>
      <point x="108" y="317" type="curve" smooth="yes"/>
      <point x="108" y="86"/>
      <point x="220" y="-22"/>
      <point x="371" y="-22" type="curve" smooth="yes"/>
      <point x="451" y="-22"/>
      <point x="504" y="2"/>
      <point x="554" y="46" type="curve" smooth="yes"/>
      <point x="604" y="91"/>
      <point x="628" y="138"/>
      <point x="628" y="205" type="curve" smooth="yes"/>
      <point x="628" y="274"/>
      <point x="604" y="318"/>
      <point x="558" y="361" type="curve" smooth="yes"/>
      <point x="500" y="415"/>
      <point x="439" y="428"/>
      <point x="384" y="428" type="curve" smooth="yes"/>
      <point x="303" y="428"/>
      <point x="247" y="387"/>
    </contour>
    <contour>
      <point x="371" y="20" type="curve" smooth="yes"/>
      <point x="306" y="20"/>
      <point x="266" y="52"/>
      <point x="245" y="86" type="curve" smooth="yes"/>
      <point x="217" y="129"/>
      <point x="214" y="203"/>
      <point x="214" y="228" type="curve" smooth="yes"/>
      <point x="214" y="310"/>
      <point x="276" y="394"/>
      <point x="377" y="394" type="curve" smooth="yes"/>
      <point x="420" y="394"/>
      <point x="459" y="382"/>
      <point x="489" y="346" type="curve" smooth="yes"/>
      <point x="522" y="307"/>
      <point x="525" y="278"/>
      <point x="525" y="206" type="curve" smooth="yes"/>
      <point x="525" y="137"/>
      <point x="523" y="108"/>
      <point x="490" y="69" type="curve" smooth="yes"/>
      <point x="454" y="26"/>
      <point x="406" y="20"/>
    </contour>
  </outline>
</glyph>
<glyph name="nine" format="2">
  <advance width="736"/>
  <unicode hex="0039"/>
  <outline>
    <contour>
      <point x="525" y="114" type="curve"/>
      <point x="525" y="77"/>
      <point x="524" y="-17"/>
      <point x="485" y="-79" type="curve" smooth="yes"/>
      <point x="452" y="-130"/>
      <point x="398" y="-174"/>
      <point x="311" y="-174" type="curve" smooth="yes"/>
      <point x="286" y="-174"/>
      <point x="236" y="-172"/>
      <point x="205" y="-152" type="curve"/>
      <point x="217" y="-148"/>
      <point x="242" y="-134"/>
      <point x="242" y="-102" type="curve" smooth="yes"/>
      <point x="242" y="-74"/>
      <point x="221" y="-51"/>
      <point x="191" y="-51" type="curve" smooth="yes"/>
      <point x="161" y="-51"/>
      <point x="139" y="-72"/>
      <point x="139" y="-104" type="curve" smooth="yes"/>
      <point x="139" y="-216"/>
      <point x="283" y="-216"/>
      <point x="313" y="-216" type="curve" smooth="yes"/>
      <point x="483" y="-216"/>
      <point x="628" y="-74"/>
      <point x="628" y="124" type="curve" smooth="yes"/>
      <point x="628" y="352"/>
      <point x="516" y="453"/>
      <point x="372" y="453" type="curve" smooth="yes"/>
      <point x="286" y="453"/>
      <point x="235" y="428"/>
      <point x="184" y="387" type="curve" smooth="yes"/>
      <point x="122" y="336"/>
      <point x="108" y="283"/>
      <point x="108" y="232" type="curve" smooth="yes"/>
      <point x="108" y="190"/>
      <point x="117" y="136"/>
      <point x="175" y="83" type="curve" smooth="yes"/>
      <point x="220" y="43"/>
      <point x="270" y="15"/>
      <point x="352" y="15" type="curve" smooth="yes"/>
      <point x="440" y="15"/>
      <point x="495" y="65"/>
    </contour>
    <contour>
      <point x="359" y="49" type="curve" smooth="yes"/>
      <point x="317" y="49"/>
      <point x="276" y="59"/>
      <point x="242" y="101" type="curve" smooth="yes"/>
      <point x="213" y="137"/>
      <point x="211" y="172"/>
      <point x="211" y="230" type="curve" smooth="yes"/>
      <point x="211" y="284"/>
      <point x="211" y="325"/>
      <point x="247" y="364" type="curve" smooth="yes"/>
      <point x="280" y="400"/>
      <point x="317" y="414"/>
      <point x="372" y="414" type="curve" smooth="yes"/>
      <point x="418.0005" y="414.0"/>
      <point x="449.89402666499996" y="398.8585152871"/>
      <point x="472.0067655076444" y="376.6799333883206" type="curve" smooth="yes"/>
      <point x="522.0" y="326.537838668"/>
      <point x="522.0" y="240.42653"/>
      <point x="522" y="212" type="curve" smooth="yes"/>
      <point x="522" y="129"/>
      <point x="458" y="49"/>
    </contour>
  </outline>
</glyph>
<glyph name="less" format="2">
  <advance width="1083"/>
  <unicode hex="003C"/>
  <outline>
    <contour>
      <point x="900" y="544" type="line" smooth="yes"/>
      <point x="913" y="550"/>
      <point x="923" y="558"/>
      <point x="923" y="573" type="curve" smooth="yes"/>
      <point x="923" y="588"/>
      <point x="910" y="601"/>
      <point x="895" y="601" type="curve" smooth="yes"/>
      <point x="889" y="601"/>
      <point x="885" y="599"/>
      <point x="876" y="595" type="curve" smooth="yes"/>
      <point x="183" y="279" type="line" smooth="yes"/>
      <point x="170" y="273"/>
      <point x="160" y="265"/>
      <point x="160" y="250" type="curve" smooth="yes"/>
      <point x="160" y="235"/>
      <point x="170" y="227"/>
      <point x="183" y="221" type="curve" smooth="yes"/>
      <point x="873" y="-94" type="line" smooth="yes"/>
      <point x="888" y="-101"/>
      <point x="892" y="-101"/>
      <point x="895" y="-101" type="curve" smooth="yes"/>
      <point x="910" y="-101"/>
      <point x="923" y="-88"/>
      <point x="923" y="-73" type="curve" smooth="yes"/>
      <point x="923" y="-58"/>
      <point x="913" y="-50"/>
      <point x="900" y="-44" type="curve" smooth="yes"/>
      <point x="255" y="250" type="line"/>
    </contour>
  </outline>
</glyph>
<glyph name="A" format="2">
  <advance width="1036"/>
  <unicode hex="0041"/>
  <outline>
    <contour>
      <point x="706" y="224" type="line"/>
      <point x="709" y="209"/>
      <point x="714" y="184"/>
      <point x="718" y="164" type="curve" smooth="yes"/>
      <point x="722" y="143"/>
      <point x="735" y="77"/>
      <point x="735" y="67" type="curve" smooth="yes"/>
      <point x="735" y="45"/>
      <point x="672" y="45"/>
      <point x="667" y="45" type="curve" smooth="yes"/>
      <point x="652" y="45"/>
      <point x="636" y="45"/>
      <point x="636" y="17" type="curve" smooth="yes"/>
      <point x="636" y="7"/>
      <point x="643" y="0"/>
      <point x="654" y="0" type="curve" smooth="yes"/>
      <point x="678" y="0"/>
      <point x="706" y="4"/>
      <point x="792" y="4" type="curve" smooth="yes"/>
      <point x="860" y="4"/>
      <point x="908" y="0"/>
      <point x="919" y="0" type="curve" smooth="yes"/>
      <point x="936" y="0"/>
      <point x="943" y="12"/>
      <point x="943" y="28" type="curve" smooth="yes"/>
      <point x="943" y="45"/>
      <point x="927" y="45"/>
      <point x="913" y="45" type="curve" smooth="yes"/>
      <point x="847" y="45"/>
      <point x="846" y="52"/>
      <point x="842" y="74" type="curve" smooth="yes"/>
      <point x="727" y="689" type="line" smooth="yes"/>
      <point x="723" y="710"/>
      <point x="719" y="716"/>
      <point x="697" y="716" type="curve" smooth="yes"/>
      <point x="673" y="716"/>
      <point x="667" y="708"/>
      <point x="657" y="693" type="curve" smooth="yes"/>
      <point x="265" y="125" type="line" smooth="yes"/>
      <point x="223" y="64"/>
      <point x="188" y="48"/>
      <point x="123" y="45" type="curve" smooth="yes"/>
      <point x="104" y="44"/>
      <point x="104" y="18"/>
      <point x="104" y="17" type="curve" smooth="yes"/>
      <point x="104" y="3"/>
      <point x="116" y="0"/>
      <point x="121" y="0" type="curve" smooth="yes"/>
      <point x="132" y="0"/>
      <point x="155" y="4"/>
      <point x="216" y="4" type="curve" smooth="yes"/>
      <point x="274" y="4"/>
      <point x="322" y="0"/>
      <point x="328" y="0" type="curve" smooth="yes"/>
      <point x="335" y="0"/>
      <point x="352" y="0"/>
      <point x="352" y="28" type="curve" smooth="yes"/>
      <point x="352" y="44"/>
      <point x="337" y="45"/>
      <point x="333" y="45" type="curve" smooth="yes"/>
      <point x="325" y="45"/>
      <point x="286" y="47"/>
      <point x="286" y="71" type="curve" smooth="yes"/>
      <point x="286" y="83"/>
      <point x="298" y="100"/>
      <point x="305" y="110" type="curve" smooth="yes"/>
      <point x="378" y="217" type="line"/>
      <point x="383" y="223"/>
      <point x="384" y="224"/>
      <point x="403" y="224" type="curve" smooth="yes"/>
    </contour>
    <contour>
      <point x="414" y="269" type="line"/>
      <point x="637" y="593" type="line"/>
      <point x="698" y="269" type="line"/>
    </contour>
  </outline>
</glyph>
<glyph name="B" format="2">
  <advance width="1037"/>
  <unicode hex="0042"/>
  <outline>
    <contour>
      <point x="915" y="212" type="curve" smooth="yes"/>
      <point x="915" y="274"/>
      <point x="857" y="341"/>
      <point x="721" y="358" type="curve"/>
      <point x="820" y="371"/>
      <point x="961" y="437"/>
      <point x="961" y="537" type="curve" smooth="yes"/>
      <point x="961" y="621"/>
      <point x="862" y="683"/>
      <point x="726" y="683" type="curve" smooth="yes"/>
      <point x="316" y="683" type="line" smooth="yes"/>
      <point x="297" y="683"/>
      <point x="281" y="683"/>
      <point x="281" y="655" type="curve" smooth="yes"/>
      <point x="281" y="638"/>
      <point x="294" y="638"/>
      <point x="318" y="638" type="curve" smooth="yes"/>
      <point x="324" y="638"/>
      <point x="334" y="638"/>
      <point x="353" y="637" type="curve" smooth="yes"/>
      <point x="370" y="636"/>
      <point x="382" y="634"/>
      <point x="382" y="625" type="curve" smooth="yes"/>
      <point x="382" y="619"/>
      <point x="380" y="611"/>
      <point x="379" y="607" type="curve" smooth="yes"/>
      <point x="248" y="83" type="line" smooth="yes"/>
      <point x="240" y="53"/>
      <point x="239" y="45"/>
      <point x="163" y="45" type="curve" smooth="yes"/>
      <point x="137" y="45"/>
      <point x="121" y="45"/>
      <point x="121" y="17" type="curve" smooth="yes"/>
      <point x="121" y="0"/>
      <point x="137" y="0"/>
      <point x="154" y="0" type="curve" smooth="yes"/>
      <point x="589" y="0" type="line" smooth="yes"/>
      <point x="769" y="0"/>
      <point x="915" y="112"/>
    </contour>
    <contour>
      <point x="854" y="534" type="curve" smooth="yes"/>
      <point x="854" y="453"/>
      <point x="746" y="372"/>
      <point x="606" y="372" type="curve" smooth="yes"/>
      <point x="417" y="372" type="line"/>
      <point x="475" y="605" type="line" smooth="yes"/>
      <point x="483" y="636"/>
      <point x="483" y="638"/>
      <point x="525" y="638" type="curve" smooth="yes"/>
      <point x="708" y="638" type="line" smooth="yes"/>
      <point x="807" y="638"/>
      <point x="854" y="587"/>
    </contour>
    <contour>
      <point x="805" y="216" type="curve" smooth="yes"/>
      <point x="805" y="119"/>
      <point x="686" y="45"/>
      <point x="562" y="45" type="curve" smooth="yes"/>
      <point x="360" y="45" type="line" smooth="yes"/>
      <point x="335" y="45"/>
      <point x="336" y="48"/>
      <point x="340" y="65" type="curve" smooth="yes"/>
      <point x="408" y="338" type="line"/>
      <point x="652" y="338" type="line" smooth="yes"/>
      <point x="754" y="338"/>
      <point x="805" y="279"/>
    </contour>
  </outline>
</glyph>
<glyph name="D" format="2">
  <advance width="1109"/>
  <unicode hex="0044"/>
  <outline>
    <contour>
      <point x="246" y="83" type="line" smooth="yes"/>
      <point x="238" y="53"/>
      <point x="237" y="45"/>
      <point x="160" y="45" type="curve" smooth="yes"/>
      <point x="135" y="45"/>
      <point x="119" y="45"/>
      <point x="119" y="17" type="curve" smooth="yes"/>
      <point x="119" y="0"/>
      <point x="135" y="0"/>
      <point x="152" y="0" type="curve" smooth="yes"/>
      <point x="554" y="0" type="line" smooth="yes"/>
      <point x="789" y="0"/>
      <point x="1028" y="190"/>
      <point x="1028" y="412" type="curve" smooth="yes"/>
      <point x="1028" y="577"/>
      <point x="896" y="683"/>
      <point x="724" y="683" type="curve" smooth="yes"/>
      <point x="314" y="683" type="line" smooth="yes"/>
      <point x="294" y="683"/>
      <point x="279" y="683"/>
      <point x="279" y="655" type="curve" smooth="yes"/>
      <point x="279" y="638"/>
      <point x="291" y="638"/>
      <point x="316" y="638" type="curve" smooth="yes"/>
      <point x="326" y="638"/>
      <point x="359" y="638"/>
      <point x="380" y="632" type="curve"/>
      <point x="380" y="620"/>
      <point x="380" y="618"/>
      <point x="377" y="607" type="curve" smooth="yes"/>
    </contour>
    <contour>
      <point x="477" y="605" type="line" smooth="yes"/>
      <point x="485" y="636"/>
      <point x="485" y="638"/>
      <point x="527" y="638" type="curve" smooth="yes"/>
      <point x="685" y="638" type="line" smooth="yes"/>
      <point x="755" y="638"/>
      <point x="822" y="620"/>
      <point x="864" y="583" type="curve" smooth="yes"/>
      <point x="901" y="549"/>
      <point x="923" y="508"/>
      <point x="923" y="438" type="curve" smooth="yes"/>
      <point x="923" y="375"/>
      <point x="899" y="248"/>
      <point x="824" y="164" type="curve" smooth="yes"/>
      <point x="749" y="80"/>
      <point x="638" y="45"/>
      <point x="537" y="45" type="curve" smooth="yes"/>
      <point x="371" y="45" type="line" smooth="yes"/>
      <point x="363" y="45"/>
      <point x="349" y="45"/>
      <point x="339" y="47" type="curve"/>
      <point x="340" y="56"/>
      <point x="340" y="58"/>
      <point x="342" y="65" type="curve" smooth="yes"/>
    </contour>
  </outline>
</glyph>
<glyph name="E" format="2">
  <advance width="1006"/>
  <unicode hex="0045"/>
  <outline>
    <contour>
      <point x="923" y="238" type="line" smooth="yes"/>
      <point x="925" y="242"/>
      <point x="929" y="250"/>
      <point x="929" y="255" type="curve" smooth="yes"/>
      <point x="929" y="261"/>
      <point x="925" y="272"/>
      <point x="908" y="272" type="curve" smooth="yes"/>
      <point x="893" y="272"/>
      <point x="892" y="270"/>
      <point x="881" y="245" type="curve" smooth="yes"/>
      <point x="809" y="91"/>
      <point x="752" y="45"/>
      <point x="574" y="45" type="curve" smooth="yes"/>
      <point x="373" y="45" type="line" smooth="yes"/>
      <point x="365" y="45"/>
      <point x="351" y="45"/>
      <point x="341" y="47" type="curve"/>
      <point x="342" y="55"/>
      <point x="342" y="57"/>
      <point x="344" y="65" type="curve" smooth="yes"/>
      <point x="410" y="330" type="line"/>
      <point x="540" y="330" type="line" smooth="yes"/>
      <point x="636" y="330"/>
      <point x="639" y="313"/>
      <point x="639" y="281" type="curve" smooth="yes"/>
      <point x="639" y="274"/>
      <point x="639" y="264"/>
      <point x="633" y="239" type="curve"/>
      <point x="633" y="236"/>
      <point x="632" y="232"/>
      <point x="632" y="230" type="curve" smooth="yes"/>
      <point x="632" y="229"/>
      <point x="632" y="213"/>
      <point x="652" y="213" type="curve" smooth="yes"/>
      <point x="669" y="213"/>
      <point x="671" y="219"/>
      <point x="675" y="236" type="curve" smooth="yes"/>
      <point x="732" y="460" type="line" smooth="yes"/>
      <point x="733" y="464"/>
      <point x="735" y="470"/>
      <point x="735" y="475" type="curve" smooth="yes"/>
      <point x="735" y="481"/>
      <point x="731" y="492"/>
      <point x="714" y="492" type="curve" smooth="yes"/>
      <point x="697" y="492"/>
      <point x="695" y="485"/>
      <point x="691" y="470" type="curve" smooth="yes"/>
      <point x="668" y="388"/>
      <point x="636" y="375"/>
      <point x="543" y="375" type="curve" smooth="yes"/>
      <point x="421" y="375" type="line"/>
      <point x="478" y="601" type="line" smooth="yes"/>
      <point x="486" y="632"/>
      <point x="486" y="634"/>
      <point x="528" y="634" type="curve" smooth="yes"/>
      <point x="722" y="634" type="line" smooth="yes"/>
      <point x="865" y="634"/>
      <point x="906" y="610"/>
      <point x="906" y="506" type="curve" smooth="yes"/>
      <point x="906" y="491"/>
      <point x="903" y="473"/>
      <point x="903" y="459" type="curve" smooth="yes"/>
      <point x="903" y="445"/>
      <point x="913" y="440"/>
      <point x="924" y="440" type="curve" smooth="yes"/>
      <point x="943" y="440"/>
      <point x="944" y="449"/>
      <point x="946" y="468" type="curve" smooth="yes"/>
      <point x="962" y="646" type="line"/>
      <point x="964" y="661" type="line"/>
      <point x="964" y="679"/>
      <point x="949" y="679"/>
      <point x="931" y="679" type="curve" smooth="yes"/>
      <point x="311" y="679" type="line" smooth="yes"/>
      <point x="291" y="679"/>
      <point x="276" y="679"/>
      <point x="276" y="651" type="curve" smooth="yes"/>
      <point x="276" y="634"/>
      <point x="288" y="634"/>
      <point x="313" y="634" type="curve" smooth="yes"/>
      <point x="323" y="634"/>
      <point x="356" y="634"/>
      <point x="377" y="628" type="curve"/>
      <point x="377" y="616"/>
      <point x="377" y="614"/>
      <point x="374" y="603" type="curve" smooth="yes"/>
      <point x="244" y="83" type="line" smooth="yes"/>
      <point x="236" y="53"/>
      <point x="235" y="45"/>
      <point x="158" y="45" type="curve" smooth="yes"/>
      <point x="133" y="45"/>
      <point x="117" y="45"/>
      <point x="117" y="17" type="curve" smooth="yes"/>
      <point x="117" y="0"/>
      <point x="133" y="0"/>
      <point x="150" y="0" type="curve" smooth="yes"/>
      <point x="787" y="0" type="line" smooth="yes"/>
      <point x="812" y="0"/>
      <point x="813" y="0"/>
      <point x="822" y="19" type="curve" smooth="yes"/>
    </contour>
  </outline>
</glyph>
<glyph name="G" format="2">
  <advance width="1064"/>
  <unicode hex="0047"/>
  <outline>
    <contour>
      <point x="115" y="271" type="curve" smooth="yes"/>
      <point x="115" y="120"/>
      <point x="239" y="-22"/>
      <point x="474" y="-22" type="curve" smooth="yes"/>
      <point x="619" y="-22"/>
      <point x="702" y="14"/>
      <point x="739" y="54" type="curve"/>
      <point x="751" y="33"/>
      <point x="780" y="0"/>
      <point x="792" y="0" type="curve" smooth="yes"/>
      <point x="797" y="0"/>
      <point x="804" y="5"/>
      <point x="805" y="10" type="curve" smooth="yes"/>
      <point x="807" y="19"/>
      <point x="820.46863" y="72.87451"/>
      <point x="855" y="211" type="curve" smooth="yes"/>
      <point x="859" y="229"/>
      <point x="867" y="232"/>
      <point x="924" y="233" type="curve" smooth="yes"/>
      <point x="937" y="233"/>
      <point x="954" y="233"/>
      <point x="954" y="261" type="curve" smooth="yes"/>
      <point x="954" y="271"/>
      <point x="946" y="278"/>
      <point x="937" y="278" type="curve" smooth="yes"/>
      <point x="917" y="278"/>
      <point x="895" y="275"/>
      <point x="850" y="275" type="curve" smooth="yes"/>
      <point x="823" y="275"/>
      <point x="771" y="275"/>
      <point x="738" y="275" type="curve" smooth="yes"/>
      <point x="695" y="275"/>
      <point x="660" y="278"/>
      <point x="632" y="278" type="curve" smooth="yes"/>
      <point x="625" y="278"/>
      <point x="606" y="278"/>
      <point x="606" y="250" type="curve" smooth="yes"/>
      <point x="606" y="233"/>
      <point x="621" y="233"/>
      <point x="638" y="233" type="curve" smooth="yes"/>
      <point x="686" y="233"/>
      <point x="718" y="231"/>
      <point x="738" y="228" type="curve" smooth="yes"/>
      <point x="745" y="227"/>
      <point x="751" y="225"/>
      <point x="751" y="216" type="curve" smooth="yes"/>
      <point x="751" y="209"/>
      <point x="731" y="129"/>
      <point x="728" y="117" type="curve"/>
      <point x="716.3" y="80.55000000000001"/>
      <point x="683.9449999999999" y="57.870000000000005"/>
      <point x="645.8794999999999" y="43.94812499999999" type="curve" smooth="yes"/>
      <point x="599.355" y="26.9325"/>
      <point x="544.3" y="23.0"/>
      <point x="508" y="23" type="curve" smooth="yes"/>
      <point x="372" y="23"/>
      <point x="226" y="80"/>
      <point x="226" y="250" type="curve" smooth="yes"/>
      <point x="226" y="343"/>
      <point x="270" y="464"/>
      <point x="356" y="543" type="curve" smooth="yes"/>
      <point x="461" y="641"/>
      <point x="587" y="660"/>
      <point x="657" y="660" type="curve" smooth="yes"/>
      <point x="786" y="660"/>
      <point x="866" y="576"/>
      <point x="866" y="462" type="curve" smooth="yes"/>
      <point x="866" y="440"/>
      <point x="864" y="435"/>
      <point x="864" y="429" type="curve" smooth="yes"/>
      <point x="864" y="414"/>
      <point x="878" y="414"/>
      <point x="887" y="414" type="curve" smooth="yes"/>
      <point x="906" y="414"/>
      <point x="906" y="417"/>
      <point x="911" y="436" type="curve" smooth="yes"/>
      <point x="974" y="691" type="line"/>
      <point x="974" y="692"/>
      <point x="974" y="705"/>
      <point x="958" y="705" type="curve" smooth="yes"/>
      <point x="952" y="705"/>
      <point x="951" y="704"/>
      <point x="939" y="693" type="curve" smooth="yes"/>
      <point x="870" y="624" type="line" smooth="yes"/>
      <point x="859" y="613"/>
      <point x="859" y="614"/>
      <point x="854" y="619" type="curve" smooth="yes"/>
      <point x="833" y="641"/>
      <point x="772" y="705"/>
      <point x="642" y="705" type="curve" smooth="yes"/>
      <point x="369" y="705"/>
      <point x="115" y="491"/>
    </contour>
  </outline>
</glyph>
<glyph name="H" format="2">
  <advance width="1110"/>
  <unicode hex="0048"/>
  <outline>
    <contour>
      <point x="962" y="598" type="line" smooth="yes"/>
      <point x="970" y="630"/>
      <point x="972" y="638"/>
      <point x="1048" y="638" type="curve" smooth="yes"/>
      <point x="1074" y="638"/>
      <point x="1076" y="638"/>
      <point x="1080" y="641" type="curve"/>
      <point x="1086" y="647"/>
      <point x="1089" y="659"/>
      <point x="1089" y="666" type="curve" smooth="yes"/>
      <point x="1089" y="668"/>
      <point x="1088" y="683"/>
      <point x="1071" y="683" type="curve" smooth="yes"/>
      <point x="1050" y="683"/>
      <point x="1026" y="680"/>
      <point x="1004" y="680" type="curve" smooth="yes"/>
      <point x="980" y="680"/>
      <point x="955" y="679"/>
      <point x="931" y="679" type="curve" smooth="yes"/>
      <point x="906" y="679"/>
      <point x="882" y="680"/>
      <point x="857" y="680" type="curve" smooth="yes"/>
      <point x="834" y="680"/>
      <point x="809" y="683"/>
      <point x="787" y="683" type="curve" smooth="yes"/>
      <point x="780" y="683"/>
      <point x="762" y="683"/>
      <point x="762" y="655" type="curve" smooth="yes"/>
      <point x="762" y="638"/>
      <point x="774" y="638"/>
      <point x="799" y="638" type="curve" smooth="yes"/>
      <point x="809" y="638"/>
      <point x="842" y="638"/>
      <point x="863" y="632" type="curve"/>
      <point x="863" y="620"/>
      <point x="863" y="618"/>
      <point x="860" y="607" type="curve" smooth="yes"/>
      <point x="803" y="378" type="line"/>
      <point x="422" y="378" type="line"/>
      <point x="477" y="598" type="line" smooth="yes"/>
      <point x="485" y="630"/>
      <point x="487" y="638"/>
      <point x="563" y="638" type="curve" smooth="yes"/>
      <point x="589" y="638"/>
      <point x="591" y="638"/>
      <point x="595" y="641" type="curve"/>
      <point x="601" y="647"/>
      <point x="604" y="659"/>
      <point x="604" y="666" type="curve" smooth="yes"/>
      <point x="604" y="668"/>
      <point x="603" y="683"/>
      <point x="586" y="683" type="curve" smooth="yes"/>
      <point x="565" y="683"/>
      <point x="541" y="680"/>
      <point x="519" y="680" type="curve" smooth="yes"/>
      <point x="495" y="680"/>
      <point x="470" y="679"/>
      <point x="446" y="679" type="curve" smooth="yes"/>
      <point x="421" y="679"/>
      <point x="397" y="680"/>
      <point x="372" y="680" type="curve" smooth="yes"/>
      <point x="349" y="680"/>
      <point x="324" y="683"/>
      <point x="302" y="683" type="curve" smooth="yes"/>
      <point x="295" y="683"/>
      <point x="277" y="683"/>
      <point x="277" y="655" type="curve" smooth="yes"/>
      <point x="277" y="638"/>
      <point x="289" y="638"/>
      <point x="314" y="638" type="curve" smooth="yes"/>
      <point x="324" y="638"/>
      <point x="357" y="638"/>
      <point x="378" y="632" type="curve"/>
      <point x="378" y="620"/>
      <point x="378" y="618"/>
      <point x="375" y="607" type="curve" smooth="yes"/>
      <point x="244" y="83" type="line" smooth="yes"/>
      <point x="236" y="53"/>
      <point x="235" y="45"/>
      <point x="158" y="45" type="curve" smooth="yes"/>
      <point x="133" y="45"/>
      <point x="117" y="45"/>
      <point x="117" y="17" type="curve" smooth="yes"/>
      <point x="117" y="9"/>
      <point x="124" y="0"/>
      <point x="135" y="0" type="curve" smooth="yes"/>
      <point x="156" y="0"/>
      <point x="180" y="3"/>
      <point x="202" y="3" type="curve" smooth="yes"/>
      <point x="227" y="3"/>
      <point x="251" y="4"/>
      <point x="276" y="4" type="curve" smooth="yes"/>
      <point x="301" y="4"/>
      <point x="325" y="3"/>
      <point x="350" y="3" type="curve" smooth="yes"/>
      <point x="373" y="3"/>
      <point x="398" y="0"/>
      <point x="420" y="0" type="curve" smooth="yes"/>
      <point x="426" y="0"/>
      <point x="445" y="0"/>
      <point x="445" y="28" type="curve" smooth="yes"/>
      <point x="445" y="45"/>
      <point x="431" y="45"/>
      <point x="412" y="45" type="curve" smooth="yes"/>
      <point x="410" y="45"/>
      <point x="386" y="45"/>
      <point x="369" y="47" type="curve" smooth="yes"/>
      <point x="344" y="49"/>
      <point x="343" y="50"/>
      <point x="343" y="58" type="curve" smooth="yes"/>
      <point x="343" y="60"/>
      <point x="343" y="62"/>
      <point x="346" y="72" type="curve" smooth="yes"/>
      <point x="411" y="333" type="line"/>
      <point x="792" y="333" type="line"/>
      <point x="729" y="83" type="line" smooth="yes"/>
      <point x="721" y="53"/>
      <point x="719" y="45"/>
      <point x="643" y="45" type="curve" smooth="yes"/>
      <point x="618" y="45"/>
      <point x="602" y="45"/>
      <point x="602" y="17" type="curve" smooth="yes"/>
      <point x="602" y="9"/>
      <point x="609" y="0"/>
      <point x="620" y="0" type="curve" smooth="yes"/>
      <point x="641" y="0"/>
      <point x="665" y="3"/>
      <point x="687" y="3" type="curve" smooth="yes"/>
      <point x="712" y="3"/>
      <point x="736" y="4"/>
      <point x="761" y="4" type="curve" smooth="yes"/>
      <point x="786" y="4"/>
      <point x="810" y="3"/>
      <point x="835" y="3" type="curve" smooth="yes"/>
      <point x="858" y="3"/>
      <point x="883" y="0"/>
      <point x="905" y="0" type="curve" smooth="yes"/>
      <point x="911" y="0"/>
      <point x="930" y="0"/>
      <point x="930" y="28" type="curve" smooth="yes"/>
      <point x="930" y="45"/>
      <point x="916" y="45"/>
      <point x="897" y="45" type="curve" smooth="yes"/>
      <point x="895" y="45"/>
      <point x="871" y="45"/>
      <point x="854" y="47" type="curve" smooth="yes"/>
      <point x="829" y="49"/>
      <point x="828" y="50"/>
      <point x="828" y="58" type="curve" smooth="yes"/>
      <point x="828" y="60"/>
      <point x="828" y="62"/>
      <point x="831" y="72" type="curve" smooth="yes"/>
    </contour>
  </outline>
</glyph>
<glyph name="J" format="2">
  <advance width="772"/>
  <unicode hex="004A"/>
  <outline>
    <contour>
      <point x="319" y="-22" type="curve" smooth="yes"/>
      <point x="426" y="-22"/>
      <point x="550" y="37"/>
      <point x="577" y="144" type="curve" smooth="yes"/>
      <point x="692" y="602" type="line" smooth="yes"/>
      <point x="700" y="632"/>
      <point x="701" y="638"/>
      <point x="757" y="638" type="curve" smooth="yes"/>
      <point x="774" y="638"/>
      <point x="791" y="638"/>
      <point x="791" y="666" type="curve" smooth="yes"/>
      <point x="791" y="675"/>
      <point x="783" y="683"/>
      <point x="774" y="683" type="curve" smooth="yes"/>
      <point x="754" y="683"/>
      <point x="732" y="680"/>
      <point x="712" y="680" type="curve" smooth="yes"/>
      <point x="664" y="680"/>
      <point x="616.0" y="680.0"/>
      <point x="568" y="680" type="curve" smooth="yes"/>
      <point x="542" y="680"/>
      <point x="514" y="683"/>
      <point x="488" y="683" type="curve" smooth="yes"/>
      <point x="481" y="683"/>
      <point x="462" y="683"/>
      <point x="462" y="655" type="curve" smooth="yes"/>
      <point x="462" y="638"/>
      <point x="476" y="638"/>
      <point x="501" y="638" type="curve" smooth="yes"/>
      <point x="502" y="638"/>
      <point x="566" y="638"/>
      <point x="586" y="633" type="curve"/>
      <point x="592" y="631"/>
      <point x="596" y="629"/>
      <point x="596" y="621" type="curve" smooth="yes"/>
      <point x="596" y="616"/>
      <point x="594" y="608"/>
      <point x="592" y="601" type="curve" smooth="yes"/>
      <point x="479" y="151" type="line" smooth="yes"/>
      <point x="457" y="63"/>
      <point x="381" y="12"/>
      <point x="317" y="12" type="curve" smooth="yes"/>
      <point x="304" y="12"/>
      <point x="239" y="14"/>
      <point x="209" y="54" type="curve"/>
      <point x="260" y="61"/>
      <point x="277" y="101"/>
      <point x="277" y="126" type="curve" smooth="yes"/>
      <point x="277" y="156"/>
      <point x="254" y="174"/>
      <point x="226" y="174" type="curve" smooth="yes"/>
      <point x="195" y="174"/>
      <point x="152" y="148"/>
      <point x="152" y="90" type="curve" smooth="yes"/>
      <point x="152" y="24"/>
      <point x="219" y="-22"/>
    </contour>
  </outline>
</glyph>
<glyph name="M" format="2">
  <advance width="1284"/>
  <unicode hex="004D"/>
  <outline>
    <contour>
      <point x="1164" y="598" type="line" smooth="yes"/>
      <point x="1172" y="630"/>
      <point x="1174" y="638"/>
      <point x="1250" y="638" type="curve" smooth="yes"/>
      <point x="1276" y="638"/>
      <point x="1278" y="638"/>
      <point x="1282" y="641" type="curve"/>
      <point x="1288" y="647"/>
      <point x="1291" y="659"/>
      <point x="1291" y="666" type="curve" smooth="yes"/>
      <point x="1291" y="683"/>
      <point x="1276" y="683"/>
      <point x="1259" y="683" type="curve" smooth="yes"/>
      <point x="1108" y="683" type="line" smooth="yes"/>
      <point x="1086" y="683"/>
      <point x="1075" y="683"/>
      <point x="1060" y="663" type="curve" smooth="yes"/>
      <point x="645" y="91" type="line"/>
      <point x="517" y="656" type="line" smooth="yes"/>
      <point x="511" y="682"/>
      <point x="505" y="683"/>
      <point x="478" y="683" type="curve" smooth="yes"/>
      <point x="318" y="683" type="line" smooth="yes"/>
      <point x="298" y="683"/>
      <point x="283" y="683"/>
      <point x="283" y="655" type="curve" smooth="yes"/>
      <point x="283" y="638"/>
      <point x="295" y="638"/>
      <point x="320" y="638" type="curve" smooth="yes"/>
      <point x="330" y="638"/>
      <point x="363" y="638"/>
      <point x="384" y="632" type="curve"/>
      <point x="384" y="620"/>
      <point x="384" y="618"/>
      <point x="381" y="607" type="curve" smooth="yes"/>
      <point x="257" y="112" type="line" smooth="yes"/>
      <point x="250" y="85"/>
      <point x="241" y="47"/>
      <point x="148" y="45" type="curve"/>
      <point x="140" y="45"/>
      <point x="123" y="44"/>
      <point x="123" y="17" type="curve" smooth="yes"/>
      <point x="123" y="8"/>
      <point x="131" y="0"/>
      <point x="140" y="0" type="curve" smooth="yes"/>
      <point x="158" y="0"/>
      <point x="179" y="3"/>
      <point x="197" y="3" type="curve" smooth="yes"/>
      <point x="216" y="3"/>
      <point x="235" y="4"/>
      <point x="254" y="4" type="curve" smooth="yes"/>
      <point x="274" y="4"/>
      <point x="293" y="3"/>
      <point x="313" y="3" type="curve" smooth="yes"/>
      <point x="331" y="3"/>
      <point x="352" y="0"/>
      <point x="370" y="0" type="curve" smooth="yes"/>
      <point x="383" y="0"/>
      <point x="394" y="7"/>
      <point x="394" y="28" type="curve" smooth="yes"/>
      <point x="394" y="45"/>
      <point x="379" y="45"/>
      <point x="368" y="45" type="curve" smooth="yes"/>
      <point x="318" y="46"/>
      <point x="299" y="59"/>
      <point x="299" y="83" type="curve" smooth="yes"/>
      <point x="299" y="90"/>
      <point x="301" y="96"/>
      <point x="303" y="106" type="curve" smooth="yes"/>
      <point x="434" y="632" type="line"/>
      <point x="435" y="632" type="line"/>
      <point x="572" y="29" type="line" smooth="yes"/>
      <point x="576" y="12"/>
      <point x="579" y="0"/>
      <point x="598" y="0" type="curve" smooth="yes"/>
      <point x="608" y="0"/>
      <point x="620" y="4"/>
      <point x="634" y="23" type="curve" smooth="yes"/>
      <point x="1081" y="640" type="line"/>
      <point x="1082" y="639" type="line"/>
      <point x="943" y="83" type="line" smooth="yes"/>
      <point x="935" y="53"/>
      <point x="933" y="45"/>
      <point x="857" y="45" type="curve" smooth="yes"/>
      <point x="832" y="45"/>
      <point x="816" y="45"/>
      <point x="816" y="17" type="curve" smooth="yes"/>
      <point x="816" y="9"/>
      <point x="823" y="0"/>
      <point x="834" y="0" type="curve" smooth="yes"/>
      <point x="855" y="0"/>
      <point x="879" y="3"/>
      <point x="901" y="3" type="curve" smooth="yes"/>
      <point x="923" y="3"/>
      <point x="946" y="4"/>
      <point x="969" y="4" type="curve" smooth="yes"/>
      <point x="992" y="4"/>
      <point x="1015" y="3"/>
      <point x="1038" y="3" type="curve" smooth="yes"/>
      <point x="1060" y="3"/>
      <point x="1085" y="0"/>
      <point x="1107" y="0" type="curve" smooth="yes"/>
      <point x="1113" y="0"/>
      <point x="1132" y="0"/>
      <point x="1132" y="28" type="curve" smooth="yes"/>
      <point x="1132" y="45"/>
      <point x="1118" y="45"/>
      <point x="1099" y="45" type="curve" smooth="yes"/>
      <point x="1097" y="45"/>
      <point x="1073" y="45"/>
      <point x="1056" y="47" type="curve" smooth="yes"/>
      <point x="1031" y="49"/>
      <point x="1030" y="50"/>
      <point x="1030" y="58" type="curve" smooth="yes"/>
      <point x="1030" y="60"/>
      <point x="1030" y="62"/>
      <point x="1033" y="72" type="curve" smooth="yes"/>
    </contour>
  </outline>
</glyph>
<glyph name="O" format="2">
  <advance width="1047"/>
  <unicode hex="004F"/>
  <outline>
    <contour>
      <point x="967" y="417" type="curve" smooth="yes"/>
      <point x="967" y="578"/>
      <point x="836" y="705"/>
      <point x="632" y="705" type="curve" smooth="yes"/>
      <point x="359" y="705"/>
      <point x="114" y="481"/>
      <point x="114" y="263" type="curve" smooth="yes"/>
      <point x="114" y="102"/>
      <point x="246" y="-22"/>
      <point x="450" y="-22" type="curve" smooth="yes"/>
      <point x="719" y="-22"/>
      <point x="967" y="194"/>
    </contour>
    <contour>
      <point x="460" y="16" type="curve" smooth="yes"/>
      <point x="359" y="16"/>
      <point x="228" y="69"/>
      <point x="228" y="249" type="curve" smooth="yes"/>
      <point x="228" y="479"/>
      <point x="408" y="668"/>
      <point x="622" y="668" type="curve" smooth="yes"/>
      <point x="749" y="668"/>
      <point x="859" y="597"/>
      <point x="859" y="446" type="curve" smooth="yes"/>
      <point x="859" y="386"/>
      <point x="835" y="259"/>
      <point x="744" y="152" type="curve" smooth="yes"/>
      <point x="675" y="72"/>
      <point x="567" y="16"/>
    </contour>
  </outline>
</glyph>
<glyph name="Q" format="2">
  <advance width="1082"/>
  <unicode hex="0051"/>
  <outline>
    <contour>
      <point x="622" y="7" type="curve"/>
      <point x="824" y="77"/>
      <point x="967" y="249"/>
      <point x="967" y="417" type="curve" smooth="yes"/>
      <point x="967" y="578"/>
      <point x="836" y="705"/>
      <point x="632" y="705" type="curve" smooth="yes"/>
      <point x="359" y="705"/>
      <point x="114" y="481"/>
      <point x="114" y="263" type="curve" smooth="yes"/>
      <point x="114" y="102"/>
      <point x="246" y="-22"/>
      <point x="450" y="-22" type="curve" smooth="yes"/>
      <point x="464" y="-22"/>
      <point x="510" y="-22"/>
      <point x="568" y="-8" type="curve"/>
      <point x="576" y="-101"/>
      <point x="583" y="-194"/>
      <point x="683" y="-194" type="curve" smooth="yes"/>
      <point x="810" y="-194"/>
      <point x="879" y="-30"/>
      <point x="879" y="0" type="curve" smooth="yes"/>
      <point x="879" y="10"/>
      <point x="869" y="16"/>
      <point x="862" y="16" type="curve" smooth="yes"/>
      <point x="861" y="16"/>
      <point x="851" y="16"/>
      <point x="846" y="4" type="curve"/>
      <point x="819" y="-75"/>
      <point x="729" y="-80"/>
      <point x="712" y="-80" type="curve" smooth="yes"/>
      <point x="675" y="-80"/>
      <point x="649" y="-69"/>
    </contour>
    <contour>
      <point x="371" y="28" type="curve"/>
      <point x="261" y="64"/>
      <point x="221" y="150"/>
      <point x="221" y="243" type="curve" smooth="yes"/>
      <point x="221" y="448"/>
      <point x="390" y="668"/>
      <point x="622" y="668" type="curve" smooth="yes"/>
      <point x="751" y="668"/>
      <point x="860" y="592"/>
      <point x="860" y="438" type="curve" smooth="yes"/>
      <point x="860" y="324"/>
      <point x="797" y="130"/>
      <point x="608" y="47" type="curve"/>
      <point x="586" y="108"/>
      <point x="555" y="154"/>
      <point x="490" y="154" type="curve" smooth="yes"/>
      <point x="427" y="154"/>
      <point x="367" y="107"/>
      <point x="367" y="52" type="curve" smooth="yes"/>
      <point x="367" y="44"/>
      <point x="367" y="35"/>
    </contour>
    <contour>
      <point x="564" y="31" type="curve"/>
      <point x="514" y="16"/>
      <point x="478" y="15"/>
      <point x="460" y="15" type="curve" smooth="yes"/>
      <point x="444" y="15"/>
      <point x="401" y="15"/>
      <point x="401" y="52" type="curve" smooth="yes"/>
      <point x="401" y="89"/>
      <point x="445" y="120"/>
      <point x="490" y="120" type="curve" smooth="yes"/>
      <point x="532" y="120"/>
      <point x="556" y="97"/>
    </contour>
  </outline>
</glyph>
<glyph name="R" format="2">
  <advance width="1029"/>
  <unicode hex="0052"/>
  <outline>
    <contour>
      <point x="415" y="359" type="line"/>
      <point x="477" y="605" type="line" smooth="yes"/>
      <point x="485" y="636"/>
      <point x="485" y="638"/>
      <point x="527" y="638" type="curve" smooth="yes"/>
      <point x="564.962" y="638.0"/>
      <point x="602.924" y="638.0"/>
      <point x="641" y="638" type="curve" smooth="yes"/>
      <point x="753" y="638"/>
      <point x="828" y="611"/>
      <point x="828" y="532" type="curve" smooth="yes"/>
      <point x="828" y="489"/>
      <point x="804" y="434"/>
      <point x="755" y="401" type="curve"/>
      <point x="746" y="396"/>
      <point x="689" y="359"/>
      <point x="569" y="359" type="curve" smooth="yes"/>
    </contour>
    <contour>
      <point x="941" y="524" type="curve" smooth="yes"/>
      <point x="941" y="615"/>
      <point x="818" y="683"/>
      <point x="660" y="683" type="curve" smooth="yes"/>
      <point x="314" y="683" type="line" smooth="yes"/>
      <point x="294" y="683"/>
      <point x="279" y="683"/>
      <point x="279" y="655" type="curve" smooth="yes"/>
      <point x="279" y="638"/>
      <point x="291" y="638"/>
      <point x="316" y="638" type="curve" smooth="yes"/>
      <point x="322.25" y="638.0"/>
      <point x="337.484375" y="638.0"/>
      <point x="353.158203125" y="636.53515625" type="curve" smooth="yes"/>
      <point x="362.5625" y="635.65625"/>
      <point x="372.125" y="634.25"/>
      <point x="380" y="632" type="curve"/>
      <point x="380" y="620"/>
      <point x="380" y="618"/>
      <point x="377" y="607" type="curve" smooth="yes"/>
      <point x="246" y="83" type="line" smooth="yes"/>
      <point x="238" y="53"/>
      <point x="237" y="45"/>
      <point x="160" y="45" type="curve" smooth="yes"/>
      <point x="135" y="45"/>
      <point x="119" y="45"/>
      <point x="119" y="17" type="curve" smooth="yes"/>
      <point x="119" y="9"/>
      <point x="126" y="0"/>
      <point x="137" y="0" type="curve" smooth="yes"/>
      <point x="158" y="0"/>
      <point x="182" y="3"/>
      <point x="204" y="3" type="curve" smooth="yes"/>
      <point x="253" y="4"/>
      <point x="301" y="4"/>
      <point x="350" y="3" type="curve" smooth="yes"/>
      <point x="372" y="3"/>
      <point x="397" y="0"/>
      <point x="418" y="0" type="curve" smooth="yes"/>
      <point x="424" y="0"/>
      <point x="443" y="0"/>
      <point x="443" y="28" type="curve" smooth="yes"/>
      <point x="443" y="45"/>
      <point x="429" y="45"/>
      <point x="410" y="45" type="curve" smooth="yes"/>
      <point x="408" y="45"/>
      <point x="384" y="45"/>
      <point x="367" y="47" type="curve" smooth="yes"/>
      <point x="342" y="49"/>
      <point x="341" y="50"/>
      <point x="341" y="58" type="curve" smooth="yes"/>
      <point x="341" y="60"/>
      <point x="341" y="62"/>
      <point x="344" y="72" type="curve" smooth="yes"/>
      <point x="407" y="325" type="line"/>
      <point x="565" y="325" type="line" smooth="yes"/>
      <point x="638" y="325"/>
      <point x="709" y="299"/>
      <point x="709" y="237" type="curve" smooth="yes"/>
      <point x="709" y="225"/>
      <point x="700" y="191"/>
      <point x="694" y="168" type="curve" smooth="yes"/>
      <point x="688" y="143"/>
      <point x="680" y="111"/>
      <point x="680" y="92" type="curve" smooth="yes"/>
      <point x="680" y="-4"/>
      <point x="782" y="-22"/>
      <point x="844" y="-22" type="curve" smooth="yes"/>
      <point x="943" y="-22"/>
      <point x="990" y="74"/>
      <point x="990" y="97" type="curve" smooth="yes"/>
      <point x="990" y="114"/>
      <point x="975" y="114"/>
      <point x="969" y="114" type="curve" smooth="yes"/>
      <point x="954" y="114"/>
      <point x="952" y="108"/>
      <point x="947" y="95" type="curve" smooth="yes"/>
      <point x="930" y="44"/>
      <point x="886" y="12"/>
      <point x="849" y="12" type="curve" smooth="yes"/>
      <point x="823" y="12"/>
      <point x="795" y="20"/>
      <point x="795" y="84" type="curve" smooth="yes"/>
      <point x="795" y="106"/>
      <point x="803" y="162"/>
      <point x="806" y="187" type="curve" smooth="yes"/>
      <point x="810" y="216"/>
      <point x="810" y="220"/>
      <point x="810" y="226" type="curve" smooth="yes"/>
      <point x="810" y="304"/>
      <point x="742" y="330"/>
      <point x="711" y="341" type="curve"/>
      <point x="824" y="369"/>
      <point x="941" y="433"/>
    </contour>
  </outline>
</glyph>
<glyph name="S" format="2">
  <advance width="856"/>
  <unicode hex="0053"/>
  <outline>
    <contour>
      <point x="250" y="484" type="curve" smooth="yes"/>
      <point x="250" y="412"/>
      <point x="305" y="360"/>
      <point x="381" y="339" type="curve" smooth="yes"/>
      <point x="392" y="336"/>
      <point x="476" y="319"/>
      <point x="497" y="315" type="curve" smooth="yes"/>
      <point x="583" y="297"/>
      <point x="601" y="293"/>
      <point x="628" y="271" type="curve" smooth="yes"/>
      <point x="652" y="252"/>
      <point x="666" y="226"/>
      <point x="666" y="195" type="curve" smooth="yes"/>
      <point x="666" y="115"/>
      <point x="570" y="23"/>
      <point x="435" y="23" type="curve" smooth="yes"/>
      <point x="362" y="23"/>
      <point x="213" y="38"/>
      <point x="213" y="161" type="curve" smooth="yes"/>
      <point x="213" y="188"/>
      <point x="220" y="208"/>
      <point x="220" y="213" type="curve" smooth="yes"/>
      <point x="220" y="226"/>
      <point x="207" y="227"/>
      <point x="199" y="227" type="curve" smooth="yes"/>
      <point x="186" y="227"/>
      <point x="181" y="226"/>
      <point x="176" y="207" type="curve" smooth="yes"/>
      <point x="127" y="8" type="line" smooth="yes"/>
      <point x="125" y="0"/>
      <point x="116.0" y="-22.0"/>
      <point x="140" y="-22" type="curve" smooth="yes"/>
      <point x="146" y="-22"/>
      <point x="147" y="-21"/>
      <point x="161" y="-8" type="curve" smooth="yes"/>
      <point x="173" y="4"/>
      <point x="201" y="35"/>
      <point x="212" y="47" type="curve"/>
      <point x="269" y="-8"/>
      <point x="356" y="-22"/>
      <point x="432" y="-22" type="curve" smooth="yes"/>
      <point x="599" y="-22"/>
      <point x="731" y="101"/>
      <point x="731" y="218" type="curve" smooth="yes"/>
      <point x="731" y="291"/>
      <point x="677" y="353"/>
      <point x="595" y="373" type="curve" smooth="yes"/>
      <point x="582" y="376"/>
      <point x="487" y="396"/>
      <point x="464" y="400" type="curve" smooth="yes"/>
      <point x="395" y="415"/>
      <point x="378" y="418"/>
      <point x="348" y="441" type="curve" smooth="yes"/>
      <point x="328" y="457"/>
      <point x="315" y="480"/>
      <point x="315" y="507" type="curve" smooth="yes"/>
      <point x="315" y="585"/>
      <point x="416" y="663"/>
      <point x="539" y="663" type="curve" smooth="yes"/>
      <point x="628" y="663"/>
      <point x="724" y="631"/>
      <point x="724" y="506" type="curve" smooth="yes"/>
      <point x="724" y="490"/>
      <point x="722" y="476"/>
      <point x="722" y="470" type="curve" smooth="yes"/>
      <point x="722" y="456"/>
      <point x="737" y="456"/>
      <point x="742" y="456" type="curve" smooth="yes"/>
      <point x="760" y="456"/>
      <point x="760" y="458"/>
      <point x="765" y="477" type="curve" smooth="yes"/>
      <point x="818" y="691" type="line"/>
      <point x="818" y="692"/>
      <point x="818" y="705"/>
      <point x="802" y="705" type="curve" smooth="yes"/>
      <point x="794" y="705"/>
      <point x="793" y="704"/>
      <point x="781" y="691" type="curve" smooth="yes"/>
      <point x="769" y="679"/>
      <point x="740" y="646"/>
      <point x="728" y="633" type="curve"/>
      <point x="703" y="665"/>
      <point x="648" y="705"/>
      <point x="542" y="705" type="curve" smooth="yes"/>
      <point x="385" y="705"/>
      <point x="250" y="596"/>
    </contour>
  </outline>
</glyph>
<glyph name="T" format="2">
  <advance width="832"/>
  <unicode hex="0054"/>
  <outline>
    <contour>
      <point x="349" y="87" type="line" smooth="yes"/>
      <point x="341" y="55"/>
      <point x="338" y="45"/>
      <point x="233" y="45" type="curve" smooth="yes"/>
      <point x="211" y="45" type="line" smooth="yes"/>
      <point x="190" y="45"/>
      <point x="182" y="45"/>
      <point x="176" y="25" type="curve" smooth="yes"/>
      <point x="172" y="11"/>
      <point x="179" y="0"/>
      <point x="195" y="0" type="curve" smooth="yes"/>
      <point x="225" y="0"/>
      <point x="257" y="3"/>
      <point x="287" y="3" type="curve" smooth="yes"/>
      <point x="350" y="4"/>
      <point x="414" y="4"/>
      <point x="477" y="3" type="curve" smooth="yes"/>
      <point x="507" y="3"/>
      <point x="539" y="0"/>
      <point x="569" y="0" type="curve" smooth="yes"/>
      <point x="576" y="0"/>
      <point x="595" y="0"/>
      <point x="595" y="28" type="curve" smooth="yes"/>
      <point x="595" y="45"/>
      <point x="580" y="45"/>
      <point x="563" y="45" type="curve" smooth="yes"/>
      <point x="511" y="45"/>
      <point x="493" y="46"/>
      <point x="469" y="49" type="curve" smooth="yes"/>
      <point x="450" y="51"/>
      <point x="444" y="52"/>
      <point x="451" y="81" type="curve" smooth="yes"/>
      <point x="581" y="597" type="line" smooth="yes"/>
      <point x="589" y="628"/>
      <point x="589" y="630"/>
      <point x="631" y="630" type="curve" smooth="yes"/>
      <point x="738" y="630" type="line" smooth="yes"/>
      <point x="850" y="630"/>
      <point x="864" y="599"/>
      <point x="864" y="537" type="curve" smooth="yes"/>
      <point x="864" y="522"/>
      <point x="862" y="497"/>
      <point x="856" y="454" type="curve" smooth="yes"/>
      <point x="855" y="444"/>
      <point x="862" y="436"/>
      <point x="877" y="436" type="curve" smooth="yes"/>
      <point x="896" y="436"/>
      <point x="897" y="445"/>
      <point x="900" y="463" type="curve" smooth="yes"/>
      <point x="926" y="648" type="line" smooth="yes"/>
      <point x="930" y="674"/>
      <point x="918" y="675"/>
      <point x="894" y="675" type="curve" smooth="yes"/>
      <point x="193" y="675" type="line" smooth="yes"/>
      <point x="167" y="675"/>
      <point x="166" y="675"/>
      <point x="158" y="654" type="curve" smooth="yes"/>
      <point x="92" y="470" type="line"/>
      <point x="91" y="468"/>
      <point x="86" y="454"/>
      <point x="86" y="453" type="curve" smooth="yes"/>
      <point x="86" y="447"/>
      <point x="90" y="436"/>
      <point x="107" y="436" type="curve" smooth="yes"/>
      <point x="123" y="436"/>
      <point x="124" y="439"/>
      <point x="133" y="463" type="curve" smooth="yes"/>
      <point x="178" y="582"/>
      <point x="207" y="630"/>
      <point x="343" y="630" type="curve" smooth="yes"/>
      <point x="451" y="630" type="line" smooth="yes"/>
      <point x="459" y="630"/>
      <point x="473" y="630"/>
      <point x="483" y="628" type="curve"/>
      <point x="483" y="622" type="line"/>
    </contour>
  </outline>
</glyph>
<glyph name="U" format="2">
  <advance width="943"/>
  <unicode hex="0055"/>
  <outline>
    <contour>
      <point x="398" y="-22" type="curve" smooth="yes"/>
      <point x="553" y="-22"/>
      <point x="702" y="87"/>
      <point x="737" y="226" type="curve" smooth="yes"/>
      <point x="823" y="569" type="line" smooth="yes"/>
      <point x="830" y="597"/>
      <point x="840" y="635"/>
      <point x="931" y="638" type="curve" smooth="yes"/>
      <point x="939" y="638"/>
      <point x="957" y="639"/>
      <point x="957" y="666" type="curve" smooth="yes"/>
      <point x="957" y="670"/>
      <point x="954" y="683"/>
      <point x="940" y="683" type="curve" smooth="yes"/>
      <point x="922" y="683"/>
      <point x="901" y="680"/>
      <point x="883" y="680" type="curve" smooth="yes"/>
      <point x="846" y="680"/>
      <point x="807.0" y="680.0"/>
      <point x="768" y="680" type="curve" smooth="yes"/>
      <point x="750" y="680"/>
      <point x="729" y="683"/>
      <point x="712" y="683" type="curve" smooth="yes"/>
      <point x="705" y="683"/>
      <point x="688" y="683"/>
      <point x="688" y="655" type="curve" smooth="yes"/>
      <point x="688" y="638"/>
      <point x="703" y="638"/>
      <point x="713" y="638" type="curve" smooth="yes"/>
      <point x="779" y="637"/>
      <point x="783" y="616"/>
      <point x="783" y="599" type="curve" smooth="yes"/>
      <point x="783" y="594"/>
      <point x="782" y="590"/>
      <point x="781" y="585" type="curve" smooth="yes"/>
      <point x="691" y="224" type="line" smooth="yes"/>
      <point x="661" y="118"/>
      <point x="543" y="23"/>
      <point x="403" y="23" type="curve" smooth="yes"/>
      <point x="345" y="23"/>
      <point x="243" y="43"/>
      <point x="243" y="160" type="curve" smooth="yes"/>
      <point x="243" y="182"/>
      <point x="246" y="203"/>
      <point x="251" y="224" type="curve" smooth="yes"/>
      <point x="345" y="598" type="line" smooth="yes"/>
      <point x="353" y="630"/>
      <point x="355" y="638"/>
      <point x="431" y="638" type="curve" smooth="yes"/>
      <point x="464" y="638"/>
      <point x="468" y="637"/>
      <point x="471" y="658" type="curve" smooth="yes"/>
      <point x="473" y="672"/>
      <point x="471" y="683"/>
      <point x="454" y="683" type="curve" smooth="yes"/>
      <point x="433" y="683"/>
      <point x="409" y="680"/>
      <point x="387" y="680" type="curve" smooth="yes"/>
      <point x="338" y="680"/>
      <point x="289.0" y="680.0"/>
      <point x="240" y="680" type="curve" smooth="yes"/>
      <point x="217" y="680"/>
      <point x="192" y="683"/>
      <point x="170" y="683" type="curve" smooth="yes"/>
      <point x="163" y="683"/>
      <point x="145" y="683"/>
      <point x="145" y="655" type="curve" smooth="yes"/>
      <point x="145" y="638"/>
      <point x="157" y="638"/>
      <point x="182" y="638" type="curve" smooth="yes"/>
      <point x="188.5625" y="638.0"/>
      <point x="205.0302734375" y="638.0"/>
      <point x="221.51150512695312" y="636.3042602539062" type="curve" smooth="yes"/>
      <point x="230.14453125" y="635.416015625"/>
      <point x="238.78125" y="634.0625"/>
      <point x="246" y="632" type="curve"/>
      <point x="246" y="619"/>
      <point x="246" y="617"/>
      <point x="245" y="612" type="curve" smooth="yes"/>
      <point x="231" y="560"/>
      <point x="172.07483" y="330.16898"/>
      <point x="148" y="225" type="curve" smooth="yes"/>
      <point x="145" y="213"/>
      <point x="143" y="195"/>
      <point x="143" y="183" type="curve" smooth="yes"/>
      <point x="143" y="70"/>
      <point x="244" y="-22"/>
    </contour>
  </outline>
</glyph>
<glyph name="V" format="2">
  <advance width="827"/>
  <unicode hex="0056"/>
  <outline>
    <contour>
      <point x="841" y="559" type="line" smooth="yes"/>
      <point x="848" y="568"/>
      <point x="848" y="570"/>
      <point x="861" y="584" type="curve" smooth="yes"/>
      <point x="879" y="604"/>
      <point x="908" y="634"/>
      <point x="973" y="638" type="curve" smooth="yes"/>
      <point x="984" y="639"/>
      <point x="1000" y="639"/>
      <point x="1000" y="666" type="curve" smooth="yes"/>
      <point x="1000" y="672"/>
      <point x="996" y="683"/>
      <point x="984" y="683" type="curve" smooth="yes"/>
      <point x="970" y="683"/>
      <point x="954" y="680"/>
      <point x="939" y="680" type="curve" smooth="yes"/>
      <point x="924" y="680"/>
      <point x="908" y="679"/>
      <point x="893" y="679" type="curve" smooth="yes"/>
      <point x="874" y="679"/>
      <point x="856" y="680"/>
      <point x="838" y="680" type="curve" smooth="yes"/>
      <point x="820" y="680"/>
      <point x="799" y="683"/>
      <point x="781" y="683" type="curve" smooth="yes"/>
      <point x="765" y="683"/>
      <point x="757" y="672"/>
      <point x="757" y="655" type="curve" smooth="yes"/>
      <point x="757" y="639"/>
      <point x="773" y="638"/>
      <point x="780" y="638" type="curve"/>
      <point x="795" y="637"/>
      <point x="821" y="633"/>
      <point x="821" y="613" type="curve" smooth="yes"/>
      <point x="821" y="606"/>
      <point x="817" y="594"/>
      <point x="803" y="575" type="curve" smooth="yes"/>
      <point x="452" y="93" type="line"/>
      <point x="336" y="603" type="line" smooth="yes"/>
      <point x="334" y="613"/>
      <point x="334" y="615"/>
      <point x="334" y="618" type="curve" smooth="yes"/>
      <point x="334" y="632"/>
      <point x="366" y="638"/>
      <point x="401" y="638" type="curve" smooth="yes"/>
      <point x="414" y="638"/>
      <point x="431" y="638"/>
      <point x="431" y="666" type="curve" smooth="yes"/>
      <point x="431" y="674"/>
      <point x="425" y="683"/>
      <point x="413" y="683" type="curve" smooth="yes"/>
      <point x="392" y="683"/>
      <point x="368" y="680"/>
      <point x="346" y="680" type="curve" smooth="yes"/>
      <point x="322" y="680"/>
      <point x="299" y="679"/>
      <point x="275" y="679" type="curve" smooth="yes"/>
      <point x="254" y="679"/>
      <point x="232" y="680"/>
      <point x="211" y="680" type="curve" smooth="yes"/>
      <point x="192" y="680"/>
      <point x="170" y="683"/>
      <point x="152" y="683" type="curve" smooth="yes"/>
      <point x="145" y="683"/>
      <point x="128" y="683"/>
      <point x="128" y="655" type="curve" smooth="yes"/>
      <point x="128" y="638"/>
      <point x="142" y="638"/>
      <point x="160" y="638" type="curve" smooth="yes"/>
      <point x="219" y="638"/>
      <point x="220" y="631"/>
      <point x="225" y="610" type="curve" smooth="yes"/>
      <point x="362" y="7" type="line" smooth="yes"/>
      <point x="367" y="-14"/>
      <point x="369" y="-22"/>
      <point x="394" y="-22" type="curve" smooth="yes"/>
      <point x="406" y="-22"/>
      <point x="419" y="-22"/>
      <point x="436" y="1" type="curve" smooth="yes"/>
    </contour>
  </outline>
</glyph>
<glyph name="Y" format="2">
  <advance width="824"/>
  <unicode hex="0059"/>
  <outline>
    <contour>
      <point x="498" y="327" type="line"/>
      <point x="343" y="612" type="line" smooth="yes"/>
      <point x="337" y="622"/>
      <point x="337" y="624"/>
      <point x="337" y="625" type="curve" smooth="yes"/>
      <point x="337" y="638"/>
      <point x="380" y="638"/>
      <point x="388" y="638" type="curve" smooth="yes"/>
      <point x="403" y="638"/>
      <point x="419" y="638"/>
      <point x="419" y="666" type="curve" smooth="yes"/>
      <point x="419" y="678"/>
      <point x="409" y="683"/>
      <point x="401" y="683" type="curve" smooth="yes"/>
      <point x="378" y="683"/>
      <point x="352" y="681"/>
      <point x="329" y="680" type="curve" smooth="yes"/>
      <point x="284" y="679"/>
      <point x="238" y="679"/>
      <point x="193" y="680" type="curve" smooth="yes"/>
      <point x="180" y="680"/>
      <point x="130" y="683"/>
      <point x="129" y="683" type="curve" smooth="yes"/>
      <point x="115" y="683"/>
      <point x="105" y="676"/>
      <point x="105" y="655" type="curve" smooth="yes"/>
      <point x="105" y="638"/>
      <point x="119" y="638"/>
      <point x="137" y="638" type="curve" smooth="yes"/>
      <point x="201" y="638"/>
      <point x="205" y="631"/>
      <point x="217" y="609" type="curve" smooth="yes"/>
      <point x="400" y="274" type="line"/>
      <point x="400" y="274" type="line"/>
      <point x="355" y="91" type="line" smooth="yes"/>
      <point x="344" y="46"/>
      <point x="338" y="45"/>
      <point x="264" y="45" type="curve" smooth="yes"/>
      <point x="241" y="45"/>
      <point x="225" y="45"/>
      <point x="225" y="17" type="curve" smooth="yes"/>
      <point x="225" y="9"/>
      <point x="232" y="0"/>
      <point x="243" y="0" type="curve" smooth="yes"/>
      <point x="264" y="0"/>
      <point x="288" y="3"/>
      <point x="310" y="3" type="curve" smooth="yes"/>
      <point x="359" y="4"/>
      <point x="407" y="4"/>
      <point x="456" y="3" type="curve" smooth="yes"/>
      <point x="478" y="3"/>
      <point x="503" y="0"/>
      <point x="524" y="0" type="curve" smooth="yes"/>
      <point x="531" y="0"/>
      <point x="549" y="0"/>
      <point x="549" y="28" type="curve" smooth="yes"/>
      <point x="549" y="45"/>
      <point x="535" y="45"/>
      <point x="516" y="45" type="curve" smooth="yes"/>
      <point x="514" y="45"/>
      <point x="490" y="45"/>
      <point x="473" y="47" type="curve" smooth="yes"/>
      <point x="448" y="49"/>
      <point x="447" y="50"/>
      <point x="447" y="58" type="curve" smooth="yes"/>
      <point x="447" y="65"/>
      <point x="447" y="67"/>
      <point x="459" y="112" type="curve" smooth="yes"/>
      <point x="499" y="273" type="line"/>
      <point x="499" y="273" type="line"/>
      <point x="797" y="558" type="line" smooth="yes"/>
      <point x="806" y="566"/>
      <point x="816" y="574"/>
      <point x="825" y="581" type="curve" smooth="yes"/>
      <point x="852" y="602"/>
      <point x="891" y="634"/>
      <point x="961" y="638" type="curve" smooth="yes"/>
      <point x="975" y="639"/>
      <point x="989" y="639"/>
      <point x="989" y="666" type="curve" smooth="yes"/>
      <point x="989" y="680"/>
      <point x="977" y="683"/>
      <point x="973" y="683" type="curve" smooth="yes"/>
      <point x="955" y="683"/>
      <point x="940" y="679"/>
      <point x="881" y="679" type="curve" smooth="yes"/>
      <point x="810" y="680"/>
      <point x="779" y="683"/>
      <point x="768" y="683" type="curve" smooth="yes"/>
      <point x="755" y="683"/>
      <point x="744" y="676"/>
      <point x="744" y="655" type="curve" smooth="yes"/>
      <point x="744" y="641"/>
      <point x="756" y="638"/>
      <point x="763" y="638" type="curve" smooth="yes"/>
      <point x="788" y="637"/>
      <point x="794" y="631"/>
      <point x="794" y="624" type="curve" smooth="yes"/>
      <point x="794" y="610"/>
      <point x="770" y="588"/>
      <point x="762" y="580" type="curve" smooth="yes"/>
    </contour>
  </outline>
</glyph>
<glyph name="f" format="2">
  <advance width="684"/>
  <unicode hex="0066"/>
  <outline>
    <contour>
      <point x="476" y="386" type="curve"/>
      <point x="598" y="386" type="line" smooth="yes"/>
      <point x="618" y="386"/>
      <point x="620" y="397"/>
      <point x="622" y="407" type="curve" smooth="yes"/>
      <point x="626" y="430"/>
      <point x="613" y="431"/>
      <point x="591" y="431" type="curve" smooth="yes"/>
      <point x="484" y="431" type="line"/>
      <point x="488.8" y="460.6"/>
      <point x="494.88" y="498.68"/>
      <point x="501.28" y="534.6800000000001" type="curve" smooth="yes"/>
      <point x="510.88" y="588.6800000000001"/>
      <point x="521.2" y="638.0000000000001"/>
      <point x="529" y="647" type="curve" smooth="yes"/>
      <point x="544" y="663"/>
      <point x="560" y="671"/>
      <point x="577" y="671" type="curve" smooth="yes"/>
      <point x="583" y="671"/>
      <point x="605" y="671"/>
      <point x="626" y="660" type="curve"/>
      <point x="586" y="643"/>
      <point x="586" y="607"/>
      <point x="586" y="603" type="curve" smooth="yes"/>
      <point x="586" y="578"/>
      <point x="605" y="562"/>
      <point x="630" y="562" type="curve" smooth="yes"/>
      <point x="656" y="562"/>
      <point x="692" y="584"/>
      <point x="692" y="628" type="curve" smooth="yes"/>
      <point x="692" y="686"/>
      <point x="626" y="705"/>
      <point x="578" y="705" type="curve" smooth="yes"/>
      <point x="451" y="705"/>
      <point x="426" y="584"/>
      <point x="417" y="541" type="curve" smooth="yes"/>
      <point x="408" y="498"/>
      <point x="414" y="525"/>
      <point x="397" y="431" type="curve"/>
      <point x="306" y="431" type="line" smooth="yes"/>
      <point x="287" y="431"/>
      <point x="271" y="431"/>
      <point x="271" y="403" type="curve" smooth="yes"/>
      <point x="271" y="386"/>
      <point x="286" y="386"/>
      <point x="303" y="386" type="curve" smooth="yes"/>
      <point x="390" y="386" type="line"/>
      <point x="381.24727" y="340.85434"/>
      <point x="367.6135524753" y="257.509647198"/>
      <point x="352.7160390498622" y="170.37812298953256" type="curve" smooth="yes"/>
      <point x="335.2747558846" y="68.3687780108"/>
      <point x="316.10123999999996" y="-38.831019999999995"/>
      <point x="301" y="-96" type="curve" smooth="yes"/>
      <point x="295" y="-120"/>
      <point x="271" y="-171"/>
      <point x="232" y="-171" type="curve" smooth="yes"/>
      <point x="226" y="-171"/>
      <point x="204" y="-170"/>
      <point x="186" y="-161" type="curve"/>
      <point x="213" y="-149"/>
      <point x="226" y="-124"/>
      <point x="226" y="-103" type="curve" smooth="yes"/>
      <point x="226" y="-78"/>
      <point x="207" y="-62"/>
      <point x="182" y="-62" type="curve" smooth="yes"/>
      <point x="156" y="-62"/>
      <point x="120" y="-84"/>
      <point x="120" y="-128" type="curve" smooth="yes"/>
      <point x="120" y="-189"/>
      <point x="192" y="-205"/>
      <point x="231" y="-205" type="curve" smooth="yes"/>
      <point x="289" y="-205"/>
      <point x="333" y="-159"/>
      <point x="356" y="-128" type="curve" smooth="yes"/>
      <point x="396" y="-72"/>
      <point x="419" y="61"/>
      <point x="420" y="64" type="curve"/>
      <point x="438.648" y="171.226"/>
      <point x="457.296" y="278.452"/>
    </contour>
  </outline>
</glyph>
<glyph name="h" format="2">
  <advance width="827"/>
  <unicode hex="0068"/>
  <outline>
    <contour>
      <point x="368" y="656" type="line" smooth="yes"/>
      <point x="372" y="670"/>
      <point x="372" y="672"/>
      <point x="372" y="677" type="curve" smooth="yes"/>
      <point x="372" y="694"/>
      <point x="357" y="694"/>
      <point x="341" y="693" type="curve" smooth="yes"/>
      <point x="218" y="684" type="line" smooth="yes"/>
      <point x="201" y="683"/>
      <point x="199" y="682"/>
      <point x="194" y="678" type="curve"/>
      <point x="190" y="673"/>
      <point x="187" y="661"/>
      <point x="187" y="655" type="curve" smooth="yes"/>
      <point x="187" y="638"/>
      <point x="203" y="638"/>
      <point x="217" y="638" type="curve" smooth="yes"/>
      <point x="218" y="638"/>
      <point x="236" y="638"/>
      <point x="251" y="636" type="curve" smooth="yes"/>
      <point x="270" y="634"/>
      <point x="271" y="631"/>
      <point x="271" y="623" type="curve" smooth="yes"/>
      <point x="271" y="620"/>
      <point x="271" y="618"/>
      <point x="266" y="600" type="curve" smooth="yes"/>
      <point x="128" y="48" type="line" smooth="yes"/>
      <point x="124" y="33"/>
      <point x="124" y="31"/>
      <point x="124" y="25" type="curve" smooth="yes"/>
      <point x="124" y="2"/>
      <point x="142" y="-11"/>
      <point x="162" y="-11" type="curve" smooth="yes"/>
      <point x="182" y="-11"/>
      <point x="204" y="4"/>
      <point x="210" y="28" type="curve" smooth="yes"/>
      <point x="213" y="38"/>
      <point x="217" y="52"/>
      <point x="232" y="116" type="curve" smooth="yes"/>
      <point x="250" y="185" type="line" smooth="yes"/>
      <point x="265" y="245"/>
      <point x="265" y="247"/>
      <point x="293" y="290" type="curve" smooth="yes"/>
      <point x="334" y="352"/>
      <point x="393" y="408"/>
      <point x="472" y="408" type="curve" smooth="yes"/>
      <point x="523" y="408"/>
      <point x="542" y="379"/>
      <point x="542" y="336" type="curve" smooth="yes"/>
      <point x="542" y="280"/>
      <point x="499" y="173"/>
      <point x="485" y="138" type="curve" smooth="yes"/>
      <point x="470" y="102"/>
      <point x="467" y="94"/>
      <point x="467" y="77" type="curve" smooth="yes"/>
      <point x="467" y="25"/>
      <point x="517" y="-11"/>
      <point x="576" y="-11" type="curve" smooth="yes"/>
      <point x="682" y="-11"/>
      <point x="737" y="119"/>
      <point x="737" y="144" type="curve" smooth="yes"/>
      <point x="737" y="158"/>
      <point x="720" y="158"/>
      <point x="716" y="158" type="curve" smooth="yes"/>
      <point x="699" y="158"/>
      <point x="698" y="154"/>
      <point x="692" y="135" type="curve" smooth="yes"/>
      <point x="675" y="80"/>
      <point x="630" y="23"/>
      <point x="580" y="23" type="curve" smooth="yes"/>
      <point x="557" y="23"/>
      <point x="550" y="39"/>
      <point x="550" y="61" type="curve" smooth="yes"/>
      <point x="550" y="81"/>
      <point x="562" y="110"/>
      <point x="571" y="134" type="curve" smooth="yes"/>
      <point x="582" y="161"/>
      <point x="626" y="270"/>
      <point x="626" y="323" type="curve" smooth="yes"/>
      <point x="626" y="392"/>
      <point x="579" y="442"/>
      <point x="477" y="442" type="curve" smooth="yes"/>
      <point x="378" y="442"/>
      <point x="320" y="379"/>
      <point x="290" y="346" type="curve"/>
    </contour>
  </outline>
</glyph>
<glyph name="i" format="2">
  <advance width="533"/>
  <unicode hex="0069"/>
  <outline>
    <contour>
      <point x="396" y="624" type="curve" smooth="yes"/>
      <point x="396" y="648"/>
      <point x="378" y="667"/>
      <point x="352" y="667" type="curve" smooth="yes"/>
      <point x="324" y="667"/>
      <point x="291" y="640"/>
      <point x="291" y="607" type="curve" smooth="yes"/>
      <point x="291" y="579"/>
      <point x="313" y="564"/>
      <point x="334" y="564" type="curve" smooth="yes"/>
      <point x="367" y="564"/>
      <point x="396" y="594"/>
    </contour>
    <contour>
      <point x="173" y="77" type="curve" smooth="yes"/>
      <point x="173" y="25"/>
      <point x="222" y="-11"/>
      <point x="282" y="-11" type="curve" smooth="yes"/>
      <point x="387" y="-11"/>
      <point x="443" y="119"/>
      <point x="443" y="144" type="curve" smooth="yes"/>
      <point x="443" y="158"/>
      <point x="426" y="158"/>
      <point x="422" y="158" type="curve" smooth="yes"/>
      <point x="405" y="158"/>
      <point x="404" y="154"/>
      <point x="398" y="135" type="curve" smooth="yes"/>
      <point x="381" y="80"/>
      <point x="336" y="23"/>
      <point x="286" y="23" type="curve" smooth="yes"/>
      <point x="263" y="23"/>
      <point x="256" y="39"/>
      <point x="256" y="61" type="curve" smooth="yes"/>
      <point x="256" y="76"/>
      <point x="261" y="93"/>
      <point x="269" y="112" type="curve" smooth="yes"/>
      <point x="282" y="145"/>
      <point x="311.86811" y="213.66086"/>
      <point x="347" y="304" type="curve" smooth="yes"/>
      <point x="355" y="324"/>
      <point x="361" y="337"/>
      <point x="361" y="354" type="curve" smooth="yes"/>
      <point x="361" y="402"/>
      <point x="315" y="442"/>
      <point x="252" y="442" type="curve" smooth="yes"/>
      <point x="147" y="442"/>
      <point x="91" y="314"/>
      <point x="91" y="287" type="curve" smooth="yes"/>
      <point x="91" y="273"/>
      <point x="107" y="273"/>
      <point x="112" y="273" type="curve" smooth="yes"/>
      <point x="129" y="273"/>
      <point x="130" y="278"/>
      <point x="135" y="293" type="curve" smooth="yes"/>
      <point x="157" y="364"/>
      <point x="205" y="408"/>
      <point x="248" y="408" type="curve" smooth="yes"/>
      <point x="267" y="408"/>
      <point x="278" y="397"/>
      <point x="278" y="370" type="curve" smooth="yes"/>
      <point x="278" y="366"/>
      <point x="278" y="353"/>
      <point x="272" y="334" type="curve"/>
      <point x="262" y="307"/>
      <point x="229.0" y="224.0"/>
      <point x="184" y="122" type="curve"/>
      <point x="179" y="108"/>
      <point x="173" y="94"/>
    </contour>
  </outline>
</glyph>
<glyph name="j" format="2">
  <advance width="588"/>
  <unicode hex="006A"/>
  <outline>
    <contour>
      <point x="510" y="624" type="curve" smooth="yes"/>
      <point x="510" y="647"/>
      <point x="493" y="667"/>
      <point x="466" y="667" type="curve" smooth="yes"/>
      <point x="435" y="667"/>
      <point x="404" y="637"/>
      <point x="404" y="607" type="curve" smooth="yes"/>
      <point x="404" y="583"/>
      <point x="423" y="564"/>
      <point x="448" y="564" type="curve" smooth="yes"/>
      <point x="482" y="564"/>
      <point x="510" y="596"/>
    </contour>
    <contour>
      <point x="292" y="-45" type="line" smooth="yes"/>
      <point x="273" y="-121"/>
      <point x="210" y="-171"/>
      <point x="149" y="-171" type="curve" smooth="yes"/>
      <point x="132" y="-171"/>
      <point x="121" y="-168"/>
      <point x="113" y="-166" type="curve"/>
      <point x="137" y="-152"/>
      <point x="144" y="-126"/>
      <point x="144" y="-113" type="curve" smooth="yes"/>
      <point x="144" y="-96"/>
      <point x="132" y="-72"/>
      <point x="99" y="-72" type="curve" smooth="yes"/>
      <point x="65" y="-72"/>
      <point x="37" y="-103"/>
      <point x="37" y="-136" type="curve" smooth="yes"/>
      <point x="37" y="-179"/>
      <point x="82" y="-205"/>
      <point x="150" y="-205" type="curve" smooth="yes"/>
      <point x="218" y="-205"/>
      <point x="348" y="-170"/>
      <point x="379" y="-46" type="curve" smooth="yes"/>
      <point x="469" y="312" type="line" smooth="yes"/>
      <point x="471" y="322"/>
      <point x="474" y="331"/>
      <point x="474" y="345" type="curve" smooth="yes"/>
      <point x="474" y="402"/>
      <point x="421" y="442"/>
      <point x="351" y="442" type="curve" smooth="yes"/>
      <point x="230" y="442"/>
      <point x="156" y="307"/>
      <point x="156" y="287" type="curve" smooth="yes"/>
      <point x="156" y="273"/>
      <point x="172" y="273"/>
      <point x="177" y="273" type="curve" smooth="yes"/>
      <point x="192" y="273"/>
      <point x="194" y="277"/>
      <point x="199" y="287" type="curve" smooth="yes"/>
      <point x="245" y="385"/>
      <point x="313" y="408"/>
      <point x="347" y="408" type="curve" smooth="yes"/>
      <point x="387" y="408"/>
      <point x="389" y="372"/>
      <point x="389" y="355" type="curve" smooth="yes"/>
      <point x="389" y="341"/>
      <point x="388" y="337"/>
      <point x="386" y="329" type="curve" smooth="yes"/>
    </contour>
  </outline>
</glyph>
<glyph name="m" format="2">
  <advance width="1228"/>
  <unicode hex="006D"/>
  <outline>
    <contour>
      <point x="215" y="-11" type="curve" smooth="yes"/>
      <point x="230" y="-11"/>
      <point x="252" y="-3"/>
      <point x="263" y="22" type="curve"/>
      <point x="264" y="27"/>
      <point x="276" y="74"/>
      <point x="282" y="100" type="curve" smooth="yes"/>
      <point x="295" y="151"/>
      <point x="308" y="201"/>
      <point x="316" y="236" type="curve"/>
      <point x="318" y="240"/>
      <point x="354" y="313"/>
      <point x="403" y="356" type="curve" smooth="yes"/>
      <point x="419" y="370"/>
      <point x="461" y="408"/>
      <point x="526" y="408" type="curve" smooth="yes"/>
      <point x="577" y="408"/>
      <point x="596" y="379"/>
      <point x="596" y="336" type="curve" smooth="yes"/>
      <point x="596" y="314"/>
      <point x="586" y="274"/>
      <point x="578" y="243" type="curve" smooth="yes"/>
      <point x="539" y="87" type="line" smooth="yes"/>
      <point x="534" y="66"/>
      <point x="525" y="31"/>
      <point x="525" y="24" type="curve" smooth="yes"/>
      <point x="525" y="2"/>
      <point x="543" y="-11"/>
      <point x="562" y="-11" type="curve" smooth="yes"/>
      <point x="577" y="-11"/>
      <point x="599" y="-3"/>
      <point x="610" y="22" type="curve"/>
      <point x="611" y="27"/>
      <point x="623" y="74"/>
      <point x="629" y="100" type="curve" smooth="yes"/>
      <point x="663" y="235"/>
      <point x="663" y="237"/>
      <point x="665" y="241" type="curve" smooth="yes"/>
      <point x="671.46854" y="254.43466"/>
      <point x="692.5446455276" y="295.84652177320004"/>
      <point x="727.1195726489525" y="334.06756140143943" type="curve" smooth="yes"/>
      <point x="762.0308128199999" y="372.66038010399996"/>
      <point x="810.70476" y="407.99999999999994"/>
      <point x="872" y="408" type="curve" smooth="yes"/>
      <point x="921" y="408"/>
      <point x="942" y="381"/>
      <point x="942" y="336" type="curve" smooth="yes"/>
      <point x="942" y="279"/>
      <point x="900" y="176"/>
      <point x="877" y="119" type="curve" smooth="yes"/>
      <point x="872" y="107"/>
      <point x="867" y="94"/>
      <point x="867" y="77" type="curve" smooth="yes"/>
      <point x="867" y="25"/>
      <point x="917" y="-11"/>
      <point x="976" y="-11" type="curve" smooth="yes"/>
      <point x="1083" y="-11"/>
      <point x="1138" y="119"/>
      <point x="1138" y="144" type="curve" smooth="yes"/>
      <point x="1138" y="158"/>
      <point x="1121" y="158"/>
      <point x="1117" y="158" type="curve" smooth="yes"/>
      <point x="1100" y="158"/>
      <point x="1099" y="154"/>
      <point x="1093" y="135" type="curve" smooth="yes"/>
      <point x="1074" y="75"/>
      <point x="1028" y="23"/>
      <point x="980" y="23" type="curve" smooth="yes"/>
      <point x="957" y="23"/>
      <point x="950" y="39"/>
      <point x="950" y="61" type="curve" smooth="yes"/>
      <point x="950" y="82"/>
      <point x="954" y="92"/>
      <point x="963" y="114" type="curve" smooth="yes"/>
      <point x="980" y="154"/>
      <point x="1026" y="268"/>
      <point x="1026" y="323" type="curve" smooth="yes"/>
      <point x="1026" y="397"/>
      <point x="973" y="442"/>
      <point x="878" y="442" type="curve" smooth="yes"/>
      <point x="785" y="442"/>
      <point x="720" y="385"/>
      <point x="680" y="332" type="curve"/>
      <point x="671" y="434"/>
      <point x="572" y="442"/>
      <point x="531" y="442" type="curve" smooth="yes"/>
      <point x="433" y="442"/>
      <point x="377" y="381"/>
      <point x="341" y="343" type="curve"/>
      <point x="337" y="431"/>
      <point x="245" y="442"/>
      <point x="220" y="442" type="curve" smooth="yes"/>
      <point x="178.14" y="442.0"/>
      <point x="148.72104316" y="415.19042812"/>
      <point x="128.662446832048" y="383.869558764224" type="curve" smooth="yes"/>
      <point x="100.80275284" y="340.36751996"/>
      <point x="91.0" y="288.16279999999995"/>
      <point x="91" y="287" type="curve" smooth="yes"/>
      <point x="91" y="273"/>
      <point x="107" y="273"/>
      <point x="112" y="273" type="curve" smooth="yes"/>
      <point x="129" y="273"/>
      <point x="131" y="279"/>
      <point x="135" y="292" type="curve" smooth="yes"/>
      <point x="150" y="350"/>
      <point x="173" y="408"/>
      <point x="215" y="408" type="curve" smooth="yes"/>
      <point x="249" y="408"/>
      <point x="256" y="376"/>
      <point x="256" y="355" type="curve" smooth="yes"/>
      <point x="256" y="341"/>
      <point x="246" y="303"/>
      <point x="240" y="277" type="curve" smooth="yes"/>
      <point x="233" y="250"/>
      <point x="223.64493" y="208.84342"/>
      <point x="195" y="98" type="curve" smooth="yes"/>
      <point x="189" y="73"/>
      <point x="178" y="29"/>
      <point x="178" y="24" type="curve" smooth="yes"/>
      <point x="178" y="2"/>
      <point x="196" y="-11"/>
    </contour>
  </outline>
</glyph>
<glyph name="n" format="2">
  <advance width="880"/>
  <unicode hex="006E"/>
  <outline>
    <contour>
      <point x="215" y="-11" type="curve" smooth="yes"/>
      <point x="230" y="-11"/>
      <point x="252" y="-3"/>
      <point x="263" y="22" type="curve"/>
      <point x="264" y="27"/>
      <point x="276" y="74"/>
      <point x="282" y="100" type="curve" smooth="yes"/>
      <point x="316" y="235"/>
      <point x="316" y="237"/>
      <point x="318" y="241" type="curve" smooth="yes"/>
      <point x="327.16903" y="260.04337"/>
      <point x="365.6883295699" y="335.29996815929997"/>
      <point x="430.4001131559184" y="378.00093391048335" type="curve" smooth="yes"/>
      <point x="457.43774980499995" y="395.842092546"/>
      <point x="489.04781999999994" y="408.0"/>
      <point x="525" y="408" type="curve" smooth="yes"/>
      <point x="574" y="408"/>
      <point x="595" y="381"/>
      <point x="595" y="336" type="curve" smooth="yes"/>
      <point x="595" y="279"/>
      <point x="553" y="176"/>
      <point x="530" y="119" type="curve" smooth="yes"/>
      <point x="525" y="107"/>
      <point x="520" y="94"/>
      <point x="520" y="77" type="curve" smooth="yes"/>
      <point x="520" y="25"/>
      <point x="570" y="-11"/>
      <point x="629" y="-11" type="curve" smooth="yes"/>
      <point x="736" y="-11"/>
      <point x="791" y="119"/>
      <point x="791" y="144" type="curve" smooth="yes"/>
      <point x="791" y="158"/>
      <point x="774" y="158"/>
      <point x="770" y="158" type="curve" smooth="yes"/>
      <point x="753" y="158"/>
      <point x="752" y="154"/>
      <point x="746" y="135" type="curve" smooth="yes"/>
      <point x="727" y="75"/>
      <point x="681" y="23"/>
      <point x="633" y="23" type="curve" smooth="yes"/>
      <point x="610" y="23"/>
      <point x="603" y="39"/>
      <point x="603" y="61" type="curve" smooth="yes"/>
      <point x="603" y="82"/>
      <point x="607" y="92"/>
      <point x="616" y="114" type="curve" smooth="yes"/>
      <point x="633" y="154"/>
      <point x="679" y="268"/>
      <point x="679" y="323" type="curve" smooth="yes"/>
      <point x="679" y="397"/>
      <point x="626" y="442"/>
      <point x="531" y="442" type="curve" smooth="yes"/>
      <point x="440" y="442"/>
      <point x="377" y="387"/>
      <point x="342" y="343" type="curve"/>
      <point x="337" y="425"/>
      <point x="257" y="442"/>
      <point x="220" y="442" type="curve" smooth="yes"/>
      <point x="172.713" y="442.0"/>
      <point x="141.3020286199" y="407.7882763543"/>
      <point x="121.3261492196061" y="371.50875141024653" type="curve" smooth="yes"/>
      <point x="99.05811507010002" y="331.0662915719"/>
      <point x="91.00000000000001" y="288.05426"/>
      <point x="91" y="287" type="curve" smooth="yes"/>
      <point x="91" y="273"/>
      <point x="107" y="273"/>
      <point x="112" y="273" type="curve" smooth="yes"/>
      <point x="129" y="273"/>
      <point x="131" y="279"/>
      <point x="135" y="292" type="curve" smooth="yes"/>
      <point x="150" y="350"/>
      <point x="173" y="408"/>
      <point x="215" y="408" type="curve" smooth="yes"/>
      <point x="249" y="408"/>
      <point x="256" y="376"/>
      <point x="256" y="355" type="curve" smooth="yes"/>
      <point x="256" y="341"/>
      <point x="246" y="303"/>
      <point x="240" y="277" type="curve" smooth="yes"/>
      <point x="234" y="250"/>
      <point x="223.64493" y="208.84342"/>
      <point x="195" y="98" type="curve" smooth="yes"/>
      <point x="189" y="73"/>
      <point x="178" y="29"/>
      <point x="178" y="24" type="curve" smooth="yes"/>
      <point x="178" y="2"/>
      <point x="196" y="-11"/>
    </contour>
  </outline>
</glyph>
<glyph name="p" format="2">
  <advance width="739"/>
  <unicode hex="0070"/>
  <outline>
    <contour>
      <point x="140" y="-117" type="line" smooth="yes"/>
      <point x="133" y="-143"/>
      <point x="132" y="-149"/>
      <point x="87" y="-149" type="curve" smooth="yes"/>
      <point x="72" y="-149"/>
      <point x="55" y="-149"/>
      <point x="55" y="-177" type="curve" smooth="yes"/>
      <point x="55" y="-188"/>
      <point x="64" y="-194"/>
      <point x="71" y="-194" type="curve" smooth="yes"/>
      <point x="101" y="-194"/>
      <point x="136" y="-190"/>
      <point x="170" y="-190" type="curve" smooth="yes"/>
      <point x="207" y="-190"/>
      <point x="247" y="-194"/>
      <point x="284" y="-194" type="curve" smooth="yes"/>
      <point x="297" y="-194"/>
      <point x="309" y="-187"/>
      <point x="309" y="-166" type="curve" smooth="yes"/>
      <point x="309" y="-149"/>
      <point x="292" y="-149"/>
      <point x="278" y="-149" type="curve" smooth="yes"/>
      <point x="245" y="-149"/>
      <point x="223" y="-149"/>
      <point x="223" y="-137" type="curve" smooth="yes"/>
      <point x="223" y="-135"/>
      <point x="226" y="-122"/>
      <point x="228" y="-114" type="curve" smooth="yes"/>
      <point x="269" y="49" type="line"/>
      <point x="294" y="15"/>
      <point x="334" y="-11"/>
      <point x="389" y="-11" type="curve" smooth="yes"/>
      <point x="530" y="-11"/>
      <point x="670" y="127"/>
      <point x="670" y="268" type="curve" smooth="yes"/>
      <point x="670" y="368"/>
      <point x="597" y="442"/>
      <point x="495" y="442" type="curve" smooth="yes"/>
      <point x="417" y="442"/>
      <point x="356" y="391"/>
      <point x="336" y="372" type="curve"/>
      <point x="316" y="426"/>
      <point x="256" y="442"/>
      <point x="219" y="442" type="curve" smooth="yes"/>
      <point x="185" y="442"/>
      <point x="155" y="426"/>
      <point x="130" y="387" type="curve" smooth="yes"/>
      <point x="104" y="345"/>
      <point x="91" y="293"/>
      <point x="91" y="288" type="curve" smooth="yes"/>
      <point x="91" y="273"/>
      <point x="106" y="273"/>
      <point x="112" y="273" type="curve" smooth="yes"/>
      <point x="129" y="273"/>
      <point x="131" y="278"/>
      <point x="135" y="294" type="curve" smooth="yes"/>
      <point x="146" y="334"/>
      <point x="167" y="408"/>
      <point x="214" y="408" type="curve" smooth="yes"/>
      <point x="249" y="408"/>
      <point x="255" y="375"/>
      <point x="255" y="355" type="curve" smooth="yes"/>
      <point x="255" y="341"/>
      <point x="254" y="337"/>
      <point x="252" y="329" type="curve" smooth="yes"/>
    </contour>
    <contour>
      <point x="492" y="408" type="curve" smooth="yes"/>
      <point x="533" y="408"/>
      <point x="580" y="382"/>
      <point x="580" y="306" type="curve" smooth="yes"/>
      <point x="580" y="262"/>
      <point x="557" y="166"/>
      <point x="529" y="118" type="curve" smooth="yes"/>
      <point x="487" y="45"/>
      <point x="427" y="23"/>
      <point x="389" y="23" type="curve" smooth="yes"/>
      <point x="306" y="23"/>
      <point x="285" y="104"/>
      <point x="285" y="112" type="curve" smooth="yes"/>
      <point x="285" y="117"/>
      <point x="287" y="123"/>
      <point x="288" y="128" type="curve"/>
      <point x="331" y="298" type="line" smooth="yes"/>
      <point x="335" y="314"/>
      <point x="336" y="316"/>
      <point x="353" y="336" type="curve" smooth="yes"/>
      <point x="393" y="380"/>
      <point x="444" y="408"/>
    </contour>
  </outline>
</glyph>
<glyph name="q" format="2">
  <advance width="658"/>
  <unicode hex="0071"/>
  <outline>
    <contour>
      <point x="406" y="-190" type="curve" smooth="yes"/>
      <point x="446" y="-190"/>
      <point x="487.0" y="-194.0"/>
      <point x="525" y="-194" type="curve" smooth="yes"/>
      <point x="538" y="-194"/>
      <point x="550" y="-187"/>
      <point x="550" y="-166" type="curve" smooth="yes"/>
      <point x="550" y="-149"/>
      <point x="533" y="-149"/>
      <point x="519" y="-149" type="curve" smooth="yes"/>
      <point x="486" y="-149"/>
      <point x="464" y="-149"/>
      <point x="464" y="-137" type="curve" smooth="yes"/>
      <point x="464" y="-135"/>
      <point x="465" y="-132"/>
      <point x="469" y="-116" type="curve" smooth="yes"/>
      <point x="599" y="404" type="line" smooth="yes"/>
      <point x="603" y="418"/>
      <point x="603" y="420"/>
      <point x="603" y="425" type="curve" smooth="yes"/>
      <point x="603" y="439"/>
      <point x="590" y="442"/>
      <point x="587" y="442" type="curve" smooth="yes"/>
      <point x="573" y="442"/>
      <point x="526" y="400"/>
      <point x="510" y="375" type="curve"/>
      <point x="493" y="403"/>
      <point x="454" y="442"/>
      <point x="386" y="442" type="curve" smooth="yes"/>
      <point x="247" y="442"/>
      <point x="106" y="306"/>
      <point x="106" y="163" type="curve" smooth="yes"/>
      <point x="106" y="60"/>
      <point x="182" y="-11"/>
      <point x="280" y="-11" type="curve" smooth="yes"/>
      <point x="341" y="-11"/>
      <point x="392" y="20"/>
      <point x="421" y="44" type="curve"/>
      <point x="421" y="44" type="line"/>
      <point x="404" y="-30"/>
      <point x="380" y="-122"/>
      <point x="379" y="-126" type="curve"/>
      <point x="373" y="-142"/>
      <point x="370" y="-148"/>
      <point x="307" y="-149" type="curve"/>
      <point x="288" y="-149"/>
      <point x="273" y="-149"/>
      <point x="273" y="-177" type="curve" smooth="yes"/>
      <point x="273" y="-181"/>
      <point x="276" y="-194"/>
      <point x="290" y="-194" type="curve" smooth="yes"/>
      <point x="328" y="-194"/>
      <point x="368.0" y="-190.0"/>
    </contour>
    <contour>
      <point x="284" y="23" type="curve" smooth="yes"/>
      <point x="250" y="23"/>
      <point x="196" y="41"/>
      <point x="196" y="125" type="curve" smooth="yes"/>
      <point x="196" y="167"/>
      <point x="216" y="261"/>
      <point x="249" y="318" type="curve" smooth="yes"/>
      <point x="280" y="370"/>
      <point x="335" y="408"/>
      <point x="386" y="408" type="curve" smooth="yes"/>
      <point x="469" y="408"/>
      <point x="490" y="327"/>
      <point x="490" y="319" type="curve" smooth="yes"/>
      <point x="490" y="314"/>
      <point x="488" y="308"/>
      <point x="487" y="304" type="curve" smooth="yes"/>
      <point x="472.348" y="246.724"/>
      <point x="457.696" y="189.44799999999998"/>
      <point x="443" y="132" type="curve" smooth="yes"/>
      <point x="439" y="115"/>
      <point x="438" y="114"/>
      <point x="421" y="95" type="curve" smooth="yes"/>
      <point x="377" y="46"/>
      <point x="324" y="23"/>
    </contour>
  </outline>
</glyph>
<glyph name="r" format="2">
  <advance width="671"/>
  <unicode hex="0072"/>
  <outline>
    <contour>
      <point x="298" y="164" type="line"/>
      <point x="301" y="179"/>
      <point x="311" y="217"/>
      <point x="314" y="232" type="curve"/>
      <point x="318" y="247"/>
      <point x="322" y="263"/>
      <point x="326" y="276" type="curve"/>
      <point x="330" y="293"/>
      <point x="362" y="345"/>
      <point x="395" y="373" type="curve" smooth="yes"/>
      <point x="430" y="401"/>
      <point x="461" y="408"/>
      <point x="496" y="408" type="curve" smooth="yes"/>
      <point x="508" y="408"/>
      <point x="556" y="408"/>
      <point x="588" y="391" type="curve"/>
      <point x="545" y="376"/>
      <point x="545" y="334"/>
      <point x="545" y="333" type="curve" smooth="yes"/>
      <point x="545" y="316"/>
      <point x="557" y="292"/>
      <point x="590" y="292" type="curve" smooth="yes"/>
      <point x="618" y="292"/>
      <point x="652" y="316"/>
      <point x="652" y="360" type="curve" smooth="yes"/>
      <point x="652" y="434"/>
      <point x="547" y="442"/>
      <point x="498" y="442" type="curve" smooth="yes"/>
      <point x="474" y="442"/>
      <point x="406" y="442"/>
      <point x="338" y="364" type="curve"/>
      <point x="326" y="417"/>
      <point x="268" y="442"/>
      <point x="219" y="442" type="curve" smooth="yes"/>
      <point x="185" y="442"/>
      <point x="156" y="426"/>
      <point x="130" y="387" type="curve" smooth="yes"/>
      <point x="104" y="345"/>
      <point x="91" y="293"/>
      <point x="91" y="288" type="curve" smooth="yes"/>
      <point x="91" y="273"/>
      <point x="106" y="273"/>
      <point x="112" y="273" type="curve" smooth="yes"/>
      <point x="129" y="273"/>
      <point x="130" y="276"/>
      <point x="137" y="301" type="curve" smooth="yes"/>
      <point x="153" y="362"/>
      <point x="177" y="408"/>
      <point x="214" y="408" type="curve" smooth="yes"/>
      <point x="248" y="408"/>
      <point x="255" y="376"/>
      <point x="255" y="355" type="curve" smooth="yes"/>
      <point x="255" y="341"/>
      <point x="245" y="303"/>
      <point x="239" y="277" type="curve" smooth="yes"/>
      <point x="232" y="250"/>
      <point x="222" y="209"/>
      <point x="217" y="187" type="curve" smooth="yes"/>
      <point x="194" y="98" type="line" smooth="yes"/>
      <point x="188" y="73"/>
      <point x="177" y="29"/>
      <point x="177" y="24" type="curve" smooth="yes"/>
      <point x="177" y="2"/>
      <point x="195" y="-11"/>
      <point x="214" y="-11" type="curve" smooth="yes"/>
      <point x="230" y="-11"/>
      <point x="248" y="-2"/>
      <point x="258" y="15" type="curve"/>
      <point x="262" y="23"/>
      <point x="270" y="55"/>
      <point x="275" y="75" type="curve" smooth="yes"/>
    </contour>
  </outline>
</glyph>
<glyph name="s" format="2">
  <advance width="670"/>
  <unicode hex="0073"/>
  <outline>
    <contour>
      <point x="507" y="378" type="curve"/>
      <point x="472" y="368"/>
      <point x="467" y="338"/>
      <point x="467" y="328" type="curve" smooth="yes"/>
      <point x="467" y="303"/>
      <point x="488" y="292"/>
      <point x="505" y="292" type="curve" smooth="yes"/>
      <point x="517" y="292"/>
      <point x="558" y="301"/>
      <point x="558" y="354" type="curve" smooth="yes"/>
      <point x="558" y="421"/>
      <point x="479" y="442"/>
      <point x="404" y="442" type="curve" smooth="yes"/>
      <point x="235" y="442"/>
      <point x="203" y="339"/>
      <point x="203" y="303" type="curve" smooth="yes"/>
      <point x="203" y="267"/>
      <point x="224" y="246"/>
      <point x="242" y="232" type="curve" smooth="yes"/>
      <point x="270" y="212"/>
      <point x="300" y="208"/>
      <point x="353" y="199" type="curve" smooth="yes"/>
      <point x="416" y="189"/>
      <point x="486" y="178"/>
      <point x="486" y="127" type="curve" smooth="yes"/>
      <point x="486" y="126"/>
      <point x="486" y="23"/>
      <point x="302" y="23" type="curve" smooth="yes"/>
      <point x="264" y="23"/>
      <point x="202" y="26"/>
      <point x="170" y="57" type="curve"/>
      <point x="206" y="65"/>
      <point x="222" y="94"/>
      <point x="222" y="118" type="curve" smooth="yes"/>
      <point x="222" y="146"/>
      <point x="201" y="159"/>
      <point x="179" y="159" type="curve" smooth="yes"/>
      <point x="145" y="159"/>
      <point x="115" y="132"/>
      <point x="115" y="87" type="curve" smooth="yes"/>
      <point x="115" y="-11"/>
      <point x="271" y="-11"/>
      <point x="300" y="-11" type="curve" smooth="yes"/>
      <point x="505" y="-11"/>
      <point x="540" y="107"/>
      <point x="540" y="148" type="curve" smooth="yes"/>
      <point x="540" y="238"/>
      <point x="430" y="255"/>
      <point x="378" y="264" type="curve" smooth="yes"/>
      <point x="307" y="275"/>
      <point x="258" y="283"/>
      <point x="258" y="324" type="curve" smooth="yes"/>
      <point x="258" y="325"/>
      <point x="258" y="408"/>
      <point x="402" y="408" type="curve" smooth="yes"/>
      <point x="428" y="408"/>
      <point x="481" y="406"/>
    </contour>
  </outline>
</glyph>
<glyph name="v" format="2">
  <advance width="722"/>
  <unicode hex="0076"/>
  <outline>
    <contour>
      <point x="641" y="357" type="curve" smooth="yes"/>
      <point x="641" y="423"/>
      <point x="604" y="443"/>
      <point x="583" y="443" type="curve" smooth="yes"/>
      <point x="555" y="443"/>
      <point x="525" y="412"/>
      <point x="525" y="385" type="curve" smooth="yes"/>
      <point x="525" y="366"/>
      <point x="538" y="356"/>
      <point x="544" y="351" type="curve"/>
      <point x="555" y="343"/>
      <point x="583" y="321"/>
      <point x="583" y="275" type="curve" smooth="yes"/>
      <point x="583" y="221"/>
      <point x="507" y="23"/>
      <point x="388" y="23" type="curve" smooth="yes"/>
      <point x="336" y="23"/>
      <point x="291" y="43"/>
      <point x="291" y="115" type="curve" smooth="yes"/>
      <point x="291" y="165"/>
      <point x="318" y="231"/>
      <point x="348" y="305" type="curve" smooth="yes"/>
      <point x="354" y="321"/>
      <point x="361" y="337"/>
      <point x="361" y="354" type="curve" smooth="yes"/>
      <point x="361" y="403"/>
      <point x="314" y="442"/>
      <point x="252" y="442" type="curve" smooth="yes"/>
      <point x="146" y="442"/>
      <point x="91" y="313"/>
      <point x="91" y="287" type="curve" smooth="yes"/>
      <point x="91" y="273"/>
      <point x="107" y="273"/>
      <point x="112" y="273" type="curve" smooth="yes"/>
      <point x="129" y="273"/>
      <point x="130" y="278"/>
      <point x="135" y="293" type="curve" smooth="yes"/>
      <point x="155" y="360"/>
      <point x="202" y="408"/>
      <point x="248" y="408" type="curve" smooth="yes"/>
      <point x="267" y="408"/>
      <point x="278" y="397"/>
      <point x="278" y="370" type="curve" smooth="yes"/>
      <point x="278" y="350"/>
      <point x="274" y="339"/>
      <point x="261" y="310" type="curve" smooth="yes"/>
      <point x="222" y="213"/>
      <point x="207" y="165"/>
      <point x="207" y="127" type="curve" smooth="yes"/>
      <point x="207" y="30"/>
      <point x="286" y="-11"/>
      <point x="383" y="-11" type="curve" smooth="yes"/>
      <point x="464" y="-11"/>
      <point x="522" y="48"/>
      <point x="558" y="102" type="curve" smooth="yes"/>
      <point x="630" y="209"/>
      <point x="641" y="339"/>
    </contour>
  </outline>
</glyph>
<glyph name="x" format="2">
  <advance width="791"/>
  <unicode hex="0078"/>
  <outline>
    <contour>
      <point x="621" y="392" type="curve"/>
      <point x="575" y="378"/>
      <point x="575" y="334"/>
      <point x="575" y="333" type="curve" smooth="yes"/>
      <point x="575" y="316"/>
      <point x="587" y="292"/>
      <point x="620" y="292" type="curve" smooth="yes"/>
      <point x="648" y="292"/>
      <point x="682" y="316"/>
      <point x="682" y="360" type="curve" smooth="yes"/>
      <point x="682" y="419"/>
      <point x="616" y="442"/>
      <point x="563" y="442" type="curve" smooth="yes"/>
      <point x="498" y="442"/>
      <point x="456" y="400"/>
      <point x="436" y="374" type="curve"/>
      <point x="403" y="431"/>
      <point x="339" y="442"/>
      <point x="303" y="442" type="curve" smooth="yes"/>
      <point x="178" y="442"/>
      <point x="107" y="324"/>
      <point x="107" y="287" type="curve" smooth="yes"/>
      <point x="107" y="273"/>
      <point x="123" y="273"/>
      <point x="128" y="273" type="curve" smooth="yes"/>
      <point x="137" y="273"/>
      <point x="145" y="274"/>
      <point x="149" y="285" type="curve"/>
      <point x="179" y="383"/>
      <point x="261" y="408"/>
      <point x="299" y="408" type="curve" smooth="yes"/>
      <point x="332" y="408"/>
      <point x="370" y="394"/>
      <point x="370" y="341" type="curve" smooth="yes"/>
      <point x="370" y="316"/>
      <point x="352" y="247"/>
      <point x="318" y="114" type="curve" smooth="yes"/>
      <point x="303" y="57"/>
      <point x="257" y="23"/>
      <point x="214" y="23" type="curve" smooth="yes"/>
      <point x="207" y="23"/>
      <point x="178" y="23"/>
      <point x="154" y="39" type="curve"/>
      <point x="199" y="55"/>
      <point x="199" y="93"/>
      <point x="199" y="97" type="curve" smooth="yes"/>
      <point x="199" y="126"/>
      <point x="177" y="139"/>
      <point x="155" y="139" type="curve" smooth="yes"/>
      <point x="130" y="139"/>
      <point x="93" y="119"/>
      <point x="93" y="71" type="curve" smooth="yes"/>
      <point x="93" y="10"/>
      <point x="161" y="-11"/>
      <point x="212" y="-11" type="curve" smooth="yes"/>
      <point x="267" y="-11"/>
      <point x="312" y="21"/>
      <point x="336" y="57" type="curve"/>
      <point x="376" y="-3"/>
      <point x="440" y="-11"/>
      <point x="471" y="-11" type="curve" smooth="yes"/>
      <point x="597" y="-11"/>
      <point x="668" y="108"/>
      <point x="668" y="144" type="curve" smooth="yes"/>
      <point x="668" y="158"/>
      <point x="651" y="158"/>
      <point x="647" y="158" type="curve" smooth="yes"/>
      <point x="630" y="158"/>
      <point x="628" y="152"/>
      <point x="625" y="143" type="curve" smooth="yes"/>
      <point x="596" y="53"/>
      <point x="519" y="23"/>
      <point x="475" y="23" type="curve" smooth="yes"/>
      <point x="445" y="23"/>
      <point x="404" y="34"/>
      <point x="404" y="90" type="curve" smooth="yes"/>
      <point x="404" y="102"/>
      <point x="404" y="109"/>
      <point x="412" y="143" type="curve" smooth="yes"/>
      <point x="429" y="213"/>
      <point x="456" y="324"/>
      <point x="464" y="342" type="curve" smooth="yes"/>
      <point x="477" y="368"/>
      <point x="510" y="408"/>
      <point x="561" y="408" type="curve" smooth="yes"/>
      <point x="564" y="408"/>
      <point x="598" y="408"/>
    </contour>
  </outline>
</glyph>
<glyph name="y" format="2">
  <advance width="730"/>
  <unicode hex="0079"/>
  <outline>
    <contour>
      <point x="491" y="38" type="line"/>
      <point x="477" y="-18"/>
      <point x="476" y="-62"/>
      <point x="429" y="-110" type="curve" smooth="yes"/>
      <point x="406" y="-133"/>
      <point x="349" y="-171"/>
      <point x="287" y="-171" type="curve" smooth="yes"/>
      <point x="269" y="-171"/>
      <point x="232" y="-168"/>
      <point x="209" y="-147" type="curve"/>
      <point x="254" y="-136"/>
      <point x="259" y="-97"/>
      <point x="259" y="-87" type="curve" smooth="yes"/>
      <point x="259" y="-58"/>
      <point x="236" y="-46"/>
      <point x="215" y="-46" type="curve" smooth="yes"/>
      <point x="186" y="-46"/>
      <point x="152" y="-70"/>
      <point x="152" y="-116" type="curve" smooth="yes"/>
      <point x="152" y="-166"/>
      <point x="203" y="-205"/>
      <point x="287" y="-205" type="curve" smooth="yes"/>
      <point x="401" y="-205"/>
      <point x="536" y="-129"/>
      <point x="568" y="-1" type="curve" smooth="yes"/>
      <point x="662" y="373" type="line" smooth="yes"/>
      <point x="666" y="388"/>
      <point x="666" y="395"/>
      <point x="666" y="396" type="curve" smooth="yes"/>
      <point x="666" y="418"/>
      <point x="648" y="431"/>
      <point x="629" y="431" type="curve" smooth="yes"/>
      <point x="589" y="431"/>
      <point x="581" y="396"/>
      <point x="574" y="369" type="curve" smooth="yes"/>
      <point x="553" y="286" type="line"/>
      <point x="522" y="161" type="line"/>
      <point x="518" y="148"/>
      <point x="513" y="127"/>
      <point x="512" y="121" type="curve"/>
      <point x="511" y="117"/>
      <point x="457" y="23"/>
      <point x="372" y="23" type="curve" smooth="yes"/>
      <point x="326" y="23"/>
      <point x="290" y="45"/>
      <point x="290" y="109" type="curve" smooth="yes"/>
      <point x="290" y="164"/>
      <point x="320" y="237"/>
      <point x="349" y="309" type="curve" smooth="yes"/>
      <point x="354" y="321"/>
      <point x="361" y="337"/>
      <point x="361" y="354" type="curve" smooth="yes"/>
      <point x="361" y="403"/>
      <point x="314" y="442"/>
      <point x="252" y="442" type="curve" smooth="yes"/>
      <point x="147" y="442"/>
      <point x="91" y="314"/>
      <point x="91" y="287" type="curve" smooth="yes"/>
      <point x="91" y="273"/>
      <point x="107" y="273"/>
      <point x="112" y="273" type="curve" smooth="yes"/>
      <point x="129" y="273"/>
      <point x="130" y="278"/>
      <point x="135" y="293" type="curve" smooth="yes"/>
      <point x="156" y="362"/>
      <point x="203" y="408"/>
      <point x="248" y="408" type="curve" smooth="yes"/>
      <point x="267" y="408"/>
      <point x="278" y="397"/>
      <point x="278" y="370" type="curve" smooth="yes"/>
      <point x="278" y="350"/>
      <point x="272" y="336"/>
      <point x="265" y="318" type="curve" smooth="yes"/>
      <point x="216" y="199"/>
      <point x="207" y="163"/>
      <point x="207" y="123" type="curve" smooth="yes"/>
      <point x="207" y="12"/>
      <point x="300" y="-11"/>
      <point x="367" y="-11" type="curve" smooth="yes"/>
      <point x="424" y="-11"/>
      <point x="466" y="17"/>
      <point x="491" y="38" type="curve"/>
    </contour>
  </outline>
</glyph>
<glyph name="z" format="2">
  <advance width="688"/>
  <unicode hex="007A"/>
  <outline>
    <contour>
      <point x="335" y="442" type="curve" smooth="yes"/>
      <point x="244" y="442"/>
      <point x="185" y="354"/>
      <point x="185" y="323" type="curve" smooth="yes"/>
      <point x="185" y="308"/>
      <point x="199" y="308"/>
      <point x="206" y="308" type="curve" smooth="yes"/>
      <point x="217" y="308"/>
      <point x="222" y="310"/>
      <point x="227" y="320" type="curve"/>
      <point x="231" y="332"/>
      <point x="241" y="356"/>
      <point x="321" y="356" type="curve" smooth="yes"/>
      <point x="349" y="356"/>
      <point x="370" y="353"/>
      <point x="422" y="345" type="curve" smooth="yes"/>
      <point x="459" y="339"/>
      <point x="471" y="339"/>
      <point x="488" y="339" type="curve"/>
      <point x="488" y="339" type="line"/>
      <point x="459" y="313"/>
      <point x="428" y="287"/>
      <point x="353" y="233" type="curve" smooth="yes"/>
      <point x="281" y="182"/>
      <point x="238" y="151"/>
      <point x="192" y="107" type="curve" smooth="yes"/>
      <point x="152" y="71"/>
      <point x="105" y="17"/>
      <point x="105" y="3" type="curve" smooth="yes"/>
      <point x="105" y="-11"/>
      <point x="120" y="-11"/>
      <point x="126" y="-11" type="curve" smooth="yes"/>
      <point x="138" y="-11"/>
      <point x="141" y="-10"/>
      <point x="147" y="-2" type="curve" smooth="yes"/>
      <point x="176" y="38"/>
      <point x="212" y="58"/>
      <point x="247" y="58" type="curve" smooth="yes"/>
      <point x="275" y="58"/>
      <point x="289" y="48"/>
      <point x="325" y="20" type="curve" smooth="yes"/>
      <point x="353" y="-1"/>
      <point x="376" y="-11"/>
      <point x="405" y="-11" type="curve" smooth="yes"/>
      <point x="522" y="-11"/>
      <point x="599" y="108"/>
      <point x="599" y="148" type="curve" smooth="yes"/>
      <point x="599" y="162"/>
      <point x="582" y="162"/>
      <point x="578" y="162" type="curve" smooth="yes"/>
      <point x="562" y="162"/>
      <point x="560" y="158"/>
      <point x="556" y="146" type="curve" smooth="yes"/>
      <point x="533" y="86"/>
      <point x="454" y="75"/>
      <point x="416" y="75" type="curve" smooth="yes"/>
      <point x="395" y="75"/>
      <point x="369" y="78"/>
      <point x="340" y="83" type="curve" smooth="yes"/>
      <point x="284" y="92"/>
      <point x="268" y="92"/>
      <point x="254" y="92" type="curve" smooth="yes"/>
      <point x="238" y="92"/>
      <point x="236" y="92"/>
      <point x="229" y="91" type="curve"/>
      <point x="271" y="130"/>
      <point x="321" y="166"/>
      <point x="377" y="206" type="curve" smooth="yes"/>
      <point x="444" y="254"/>
      <point x="487" y="287"/>
      <point x="529" y="327" type="curve" smooth="yes"/>
      <point x="579" y="374"/>
      <point x="613" y="418"/>
      <point x="613" y="428" type="curve" smooth="yes"/>
      <point x="613" y="442"/>
      <point x="598" y="442"/>
      <point x="592" y="442" type="curve" smooth="yes"/>
      <point x="578" y="442"/>
      <point x="577" y="441"/>
      <point x="569" y="430" type="curve" smooth="yes"/>
      <point x="531" y="377"/>
      <point x="508" y="373"/>
      <point x="491" y="373" type="curve" smooth="yes"/>
      <point x="475" y="373"/>
      <point x="460" y="376"/>
      <point x="429" y="399" type="curve" smooth="yes"/>
      <point x="395" y="425"/>
      <point x="373" y="442"/>
    </contour>
  </outline>
</glyph>
<glyph name="mu" format="2">
  <advance width="849"/>
  <unicode hex="00B5"/>
  <outline>
    <contour>
      <point x="99" y="-157" type="line" smooth="yes"/>
      <point x="95" y="-173"/>
      <point x="95" y="-178"/>
      <point x="95" y="-181" type="curve" smooth="yes"/>
      <point x="95" y="-204"/>
      <point x="113" y="-216"/>
      <point x="132" y="-216" type="curve" smooth="yes"/>
      <point x="153" y="-216"/>
      <point x="174" y="-204"/>
      <point x="183" y="-171" type="curve" smooth="yes"/>
      <point x="200" y="-106"/>
      <point x="190" y="-143"/>
      <point x="206" y="-77" type="curve" smooth="yes"/>
      <point x="230" y="19" type="line"/>
      <point x="269" y="-5"/>
      <point x="316" y="-11"/>
      <point x="352" y="-11" type="curve" smooth="yes"/>
      <point x="416" y="-11"/>
      <point x="469" y="19"/>
      <point x="513" y="63" type="curve"/>
      <point x="531" y="3"/>
      <point x="598" y="-11"/>
      <point x="631" y="-11" type="curve" smooth="yes"/>
      <point x="671" y="-11"/>
      <point x="698" y="12"/>
      <point x="719" y="45" type="curve" smooth="yes"/>
      <point x="745" y="84"/>
      <point x="759" y="137"/>
      <point x="759" y="144" type="curve" smooth="yes"/>
      <point x="759" y="158"/>
      <point x="742" y="158"/>
      <point x="738" y="158" type="curve" smooth="yes"/>
      <point x="720" y="158"/>
      <point x="719" y="152"/>
      <point x="714" y="136" type="curve"/>
      <point x="696" y="62"/>
      <point x="670" y="23"/>
      <point x="635" y="23" type="curve" smooth="yes"/>
      <point x="607" y="23"/>
      <point x="595" y="45"/>
      <point x="595" y="76" type="curve" smooth="yes"/>
      <point x="595" y="97"/>
      <point x="626" y="218"/>
      <point x="665" y="372" type="curve" smooth="yes"/>
      <point x="670" y="389"/>
      <point x="670" y="391"/>
      <point x="670" y="396" type="curve" smooth="yes"/>
      <point x="670" y="418"/>
      <point x="652" y="431"/>
      <point x="633" y="431" type="curve" smooth="yes"/>
      <point x="593" y="431"/>
      <point x="585" y="397"/>
      <point x="578" y="368" type="curve" smooth="yes"/>
      <point x="566" y="325"/>
      <point x="566" y="323"/>
      <point x="556" y="282" type="curve" smooth="yes"/>
      <point x="545" y="239"/>
      <point x="532" y="187"/>
      <point x="524" y="152" type="curve" smooth="yes"/>
      <point x="517" y="127"/>
      <point x="517" y="125"/>
      <point x="500" y="104" type="curve" smooth="yes"/>
      <point x="468" y="64"/>
      <point x="420" y="23"/>
      <point x="357" y="23" type="curve" smooth="yes"/>
      <point x="303" y="23"/>
      <point x="260" y="44"/>
      <point x="260" y="115" type="curve" smooth="yes"/>
      <point x="260" y="138"/>
      <point x="265" y="159"/>
      <point x="273" y="188" type="curve" smooth="yes"/>
      <point x="283" y="232"/>
      <point x="285" y="239"/>
      <point x="295" y="278" type="curve" smooth="yes"/>
      <point x="312" y="345" type="line" smooth="yes"/>
      <point x="317" y="366"/>
      <point x="326" y="402"/>
      <point x="326" y="407" type="curve" smooth="yes"/>
      <point x="326" y="424"/>
      <point x="313" y="442"/>
      <point x="289" y="442" type="curve" smooth="yes"/>
      <point x="249" y="442"/>
      <point x="240" y="405"/>
      <point x="237" y="393" type="curve" smooth="yes"/>
    </contour>
  </outline>
</glyph>
<glyph name="dotlessi" format="2">
  <advance width="533"/>
  <unicode hex="0131"/>
  <outline>
    <contour>
      <point x="443" y="144" type="curve" smooth="yes"/>
      <point x="443" y="158"/>
      <point x="426" y="158"/>
      <point x="422" y="158" type="curve" smooth="yes"/>
      <point x="405" y="158"/>
      <point x="404" y="154"/>
      <point x="398" y="135" type="curve" smooth="yes"/>
      <point x="381" y="80"/>
      <point x="336" y="23"/>
      <point x="286" y="23" type="curve" smooth="yes"/>
      <point x="263" y="23"/>
      <point x="256" y="39"/>
      <point x="256" y="61" type="curve" smooth="yes"/>
      <point x="256" y="82"/>
      <point x="261" y="93"/>
      <point x="269" y="112" type="curve" smooth="yes"/>
      <point x="277" y="132"/>
      <point x="285" y="152"/>
      <point x="290" y="166" type="curve"/>
      <point x="294" y="175"/>
      <point x="333" y="268"/>
      <point x="347" y="304" type="curve" smooth="yes"/>
      <point x="355" y="324"/>
      <point x="361" y="337"/>
      <point x="361" y="354" type="curve" smooth="yes"/>
      <point x="361" y="402"/>
      <point x="315" y="442"/>
      <point x="252" y="442" type="curve" smooth="yes"/>
      <point x="147" y="442"/>
      <point x="91" y="314"/>
      <point x="91" y="287" type="curve" smooth="yes"/>
      <point x="91" y="273"/>
      <point x="107" y="273"/>
      <point x="112" y="273" type="curve" smooth="yes"/>
      <point x="129" y="273"/>
      <point x="130" y="278"/>
      <point x="135" y="293" type="curve" smooth="yes"/>
      <point x="157" y="364"/>
      <point x="205" y="408"/>
      <point x="248" y="408" type="curve" smooth="yes"/>
      <point x="267" y="408"/>
      <point x="278" y="397"/>
      <point x="278" y="370" type="curve" smooth="yes"/>
      <point x="278" y="366"/>
      <point x="278" y="353"/>
      <point x="272" y="334" type="curve"/>
      <point x="265" y="316"/>
      <point x="220" y="209"/>
      <point x="206" y="175" type="curve" smooth="yes"/>
      <point x="199" y="158"/>
      <point x="199" y="156"/>
      <point x="184" y="122" type="curve"/>
      <point x="179" y="108"/>
      <point x="173" y="94"/>
      <point x="173" y="77" type="curve" smooth="yes"/>
      <point x="173" y="25"/>
      <point x="222" y="-11"/>
      <point x="282" y="-11" type="curve" smooth="yes"/>
      <point x="387" y="-11"/>
      <point x="443" y="119"/>
    </contour>
  </outline>
</glyph>
<glyph name="Gamma" format="2">
  <advance width="832"/>
  <unicode hex="0393"/>
  <outline>
    <contour>
      <point x="478" y="601" type="line" smooth="yes"/>
      <point x="486" y="632"/>
      <point x="486" y="634"/>
      <point x="528" y="634" type="curve" smooth="yes"/>
      <point x="689" y="634" type="line" smooth="yes"/>
      <point x="815" y="634"/>
      <point x="854" y="611"/>
      <point x="854" y="517" type="curve" smooth="yes"/>
      <point x="854" y="499"/>
      <point x="850" y="476"/>
      <point x="850" y="459" type="curve" smooth="yes"/>
      <point x="850" y="445"/>
      <point x="860" y="440"/>
      <point x="871" y="440" type="curve" smooth="yes"/>
      <point x="890" y="440"/>
      <point x="891" y="449"/>
      <point x="893" y="468" type="curve" smooth="yes"/>
      <point x="909" y="646" type="line"/>
      <point x="911" y="661" type="line"/>
      <point x="911" y="679"/>
      <point x="896" y="679"/>
      <point x="878" y="679" type="curve" smooth="yes"/>
      <point x="311" y="679" type="line" smooth="yes"/>
      <point x="292" y="679"/>
      <point x="276" y="679"/>
      <point x="276" y="651" type="curve" smooth="yes"/>
      <point x="276" y="634"/>
      <point x="289" y="634"/>
      <point x="313" y="634" type="curve" smooth="yes"/>
      <point x="323" y="634"/>
      <point x="356" y="634"/>
      <point x="377" y="628" type="curve"/>
      <point x="377" y="616"/>
      <point x="377" y="614"/>
      <point x="374" y="603" type="curve" smooth="yes"/>
      <point x="244" y="83" type="line" smooth="yes"/>
      <point x="236" y="53"/>
      <point x="235" y="45"/>
      <point x="159" y="45" type="curve" smooth="yes"/>
      <point x="133" y="45"/>
      <point x="117" y="45"/>
      <point x="117" y="17" type="curve" smooth="yes"/>
      <point x="117" y="9"/>
      <point x="124" y="0"/>
      <point x="135" y="0" type="curve" smooth="yes"/>
      <point x="157" y="0"/>
      <point x="182" y="3"/>
      <point x="204" y="3" type="curve" smooth="yes"/>
      <point x="229" y="3"/>
      <point x="255" y="4"/>
      <point x="281" y="4" type="curve" smooth="yes"/>
      <point x="309" y="4"/>
      <point x="336" y="3"/>
      <point x="364" y="3" type="curve" smooth="yes"/>
      <point x="391" y="3"/>
      <point x="420" y="0"/>
      <point x="447" y="0" type="curve" smooth="yes"/>
      <point x="453" y="0"/>
      <point x="473" y="0"/>
      <point x="473" y="28" type="curve" smooth="yes"/>
      <point x="473" y="45"/>
      <point x="459" y="45"/>
      <point x="433" y="45" type="curve" smooth="yes"/>
      <point x="409" y="45"/>
      <point x="401" y="45"/>
      <point x="375" y="47" type="curve" smooth="yes"/>
      <point x="351" y="49"/>
      <point x="344" y="50"/>
      <point x="344" y="62" type="curve" smooth="yes"/>
      <point x="344" y="68"/>
      <point x="344" y="70"/>
      <point x="348" y="84" type="curve" smooth="yes"/>
    </contour>
  </outline>
</glyph>
<glyph name="Theta" format="2">
  <advance width="1047"/>
  <unicode hex="0398"/>
  <outline>
    <contour>
      <point x="967" y="417" type="curve" smooth="yes"/>
      <point x="967" y="578"/>
      <point x="836" y="705"/>
      <point x="632" y="705" type="curve" smooth="yes"/>
      <point x="359" y="705"/>
      <point x="114" y="481"/>
      <point x="114" y="263" type="curve" smooth="yes"/>
      <point x="114" y="102"/>
      <point x="246" y="-22"/>
      <point x="450" y="-22" type="curve" smooth="yes"/>
      <point x="719" y="-22"/>
      <point x="967" y="194"/>
    </contour>
    <contour>
      <point x="459" y="13" type="curve" smooth="yes"/>
      <point x="331" y="13"/>
      <point x="217" y="86"/>
      <point x="217" y="244" type="curve" smooth="yes"/>
      <point x="217" y="449"/>
      <point x="389" y="671"/>
      <point x="623" y="671" type="curve" smooth="yes"/>
      <point x="758" y="671"/>
      <point x="864" y="589"/>
      <point x="864" y="438" type="curve" smooth="yes"/>
      <point x="864" y="225"/>
      <point x="690" y="13"/>
    </contour>
    <contour>
      <point x="728" y="297" type="line"/>
      <point x="726" y="292"/>
      <point x="724" y="286"/>
      <point x="724" y="280" type="curve" smooth="yes"/>
      <point x="724" y="272"/>
      <point x="730" y="263"/>
      <point x="745" y="263" type="curve" smooth="yes"/>
      <point x="762" y="263"/>
      <point x="765" y="273"/>
      <point x="767" y="282" type="curve" smooth="yes"/>
      <point x="771" y="298"/>
      <point x="797" y="397"/>
      <point x="797" y="404" type="curve" smooth="yes"/>
      <point x="797" y="412"/>
      <point x="791" y="421"/>
      <point x="776" y="421" type="curve" smooth="yes"/>
      <point x="762" y="421"/>
      <point x="758" y="413"/>
      <point x="757" y="410" type="curve"/>
      <point x="756" y="409"/>
      <point x="750" y="388"/>
      <point x="750" y="387" type="curve"/>
      <point x="354" y="387" type="line"/>
      <point x="356" y="392"/>
      <point x="358" y="398"/>
      <point x="358" y="404" type="curve" smooth="yes"/>
      <point x="358" y="412"/>
      <point x="352" y="421"/>
      <point x="337" y="421" type="curve" smooth="yes"/>
      <point x="320" y="421"/>
      <point x="317" y="411"/>
      <point x="315" y="402" type="curve" smooth="yes"/>
      <point x="311" y="386"/>
      <point x="285" y="287"/>
      <point x="285" y="280" type="curve" smooth="yes"/>
      <point x="285" y="272"/>
      <point x="291" y="263"/>
      <point x="306" y="263" type="curve" smooth="yes"/>
      <point x="320" y="263"/>
      <point x="324" y="271"/>
      <point x="325" y="274" type="curve"/>
      <point x="326" y="275"/>
      <point x="332" y="296"/>
      <point x="332" y="297" type="curve"/>
    </contour>
  </outline>
</glyph>
<glyph name="Lambda" format="2">
  <advance width="966"/>
  <unicode hex="039B"/>
  <outline>
    <contour>
      <point x="250" y="125" type="line"/>
      <point x="243" y="116"/>
      <point x="243" y="114"/>
      <point x="240" y="112" type="curve"/>
      <point x="202" y="54"/>
      <point x="162" y="47"/>
      <point x="122" y="45" type="curve" smooth="yes"/>
      <point x="104" y="44"/>
      <point x="103" y="19"/>
      <point x="103" y="17" type="curve" smooth="yes"/>
      <point x="103" y="6"/>
      <point x="111" y="0"/>
      <point x="119" y="0" type="curve" smooth="yes"/>
      <point x="132" y="0"/>
      <point x="148" y="3"/>
      <point x="161" y="3" type="curve" smooth="yes"/>
      <point x="176" y="3"/>
      <point x="191" y="4"/>
      <point x="206" y="4" type="curve" smooth="yes"/>
      <point x="225" y="4"/>
      <point x="242" y="3"/>
      <point x="261" y="3" type="curve" smooth="yes"/>
      <point x="278" y="3"/>
      <point x="299" y="0"/>
      <point x="316" y="0" type="curve" smooth="yes"/>
      <point x="333" y="0"/>
      <point x="340" y="12"/>
      <point x="340" y="28" type="curve" smooth="yes"/>
      <point x="340" y="44"/>
      <point x="325" y="45"/>
      <point x="318" y="45" type="curve"/>
      <point x="302" y="46"/>
      <point x="273" y="50"/>
      <point x="273" y="73" type="curve" smooth="yes"/>
      <point x="273" y="86"/>
      <point x="282" y="99"/>
      <point x="288" y="109" type="curve" smooth="yes"/>
      <point x="597" y="579" type="line"/>
      <point x="675" y="82" type="line"/>
      <point x="677" y="73"/>
      <point x="677" y="71"/>
      <point x="677" y="68" type="curve" smooth="yes"/>
      <point x="677" y="46"/>
      <point x="614" y="45"/>
      <point x="609" y="45" type="curve" smooth="yes"/>
      <point x="592" y="45"/>
      <point x="575" y="45"/>
      <point x="575" y="17" type="curve" smooth="yes"/>
      <point x="575" y="9"/>
      <point x="582" y="0"/>
      <point x="593" y="0" type="curve" smooth="yes"/>
      <point x="614" y="0"/>
      <point x="638" y="3"/>
      <point x="660" y="3" type="curve" smooth="yes"/>
      <point x="684" y="3"/>
      <point x="708" y="4"/>
      <point x="732" y="4" type="curve" smooth="yes"/>
      <point x="752" y="4"/>
      <point x="772" y="3"/>
      <point x="791" y="3" type="curve" smooth="yes"/>
      <point x="804" y="3"/>
      <point x="850" y="0"/>
      <point x="851" y="0" type="curve" smooth="yes"/>
      <point x="858" y="0"/>
      <point x="875" y="0"/>
      <point x="875" y="28" type="curve" smooth="yes"/>
      <point x="875" y="45"/>
      <point x="861" y="45"/>
      <point x="843" y="45" type="curve" smooth="yes"/>
      <point x="792" y="45"/>
      <point x="791" y="50"/>
      <point x="787" y="74" type="curve" smooth="yes"/>
      <point x="691" y="687" type="line" smooth="yes"/>
      <point x="688" y="709"/>
      <point x="686" y="716"/>
      <point x="662" y="716" type="curve" smooth="yes"/>
      <point x="638" y="716"/>
      <point x="632" y="707"/>
      <point x="624" y="694" type="curve" smooth="yes"/>
    </contour>
  </outline>
</glyph>
<glyph name="Xi" format="2">
  <advance width="1017"/>
  <unicode hex="039E"/>
  <outline>
    <contour>
      <point x="984" y="658" type="line"/>
      <point x="984" y="675"/>
      <point x="968" y="675"/>
      <point x="951" y="675" type="curve" smooth="yes"/>
      <point x="322" y="675" type="line" smooth="yes"/>
      <point x="296" y="675"/>
      <point x="294" y="675"/>
      <point x="287" y="653" type="curve" smooth="yes"/>
      <point x="251" y="543" type="line"/>
      <point x="246" y="530"/>
      <point x="246" y="528"/>
      <point x="246" y="524" type="curve" smooth="yes"/>
      <point x="246" y="507"/>
      <point x="263" y="507"/>
      <point x="267" y="507" type="curve" smooth="yes"/>
      <point x="283" y="507"/>
      <point x="285" y="512"/>
      <point x="293" y="535" type="curve"/>
      <point x="296" y="546"/>
      <point x="309" y="585"/>
      <point x="320" y="589" type="curve" smooth="yes"/>
      <point x="328" y="592"/>
      <point x="390" y="593"/>
      <point x="402" y="593" type="curve" smooth="yes"/>
      <point x="846" y="593" type="line" smooth="yes"/>
      <point x="877" y="593"/>
      <point x="922" y="590"/>
      <point x="924" y="590" type="curve"/>
      <point x="924" y="568"/>
      <point x="924" y="560"/>
      <point x="921" y="541" type="curve" smooth="yes"/>
      <point x="920" y="536"/>
      <point x="918" y="527"/>
      <point x="918" y="525" type="curve" smooth="yes"/>
      <point x="918" y="507"/>
      <point x="934" y="507"/>
      <point x="939" y="507" type="curve" smooth="yes"/>
      <point x="951" y="507"/>
      <point x="958" y="510"/>
      <point x="962" y="531" type="curve" smooth="yes"/>
    </contour>
    <contour>
      <point x="265" y="82" type="line" smooth="yes"/>
      <point x="241" y="82"/>
      <point x="216" y="82"/>
      <point x="192" y="85" type="curve" smooth="yes"/>
      <point x="183" y="86"/>
      <point x="182" y="86"/>
      <point x="182" y="98" type="curve" smooth="yes"/>
      <point x="182" y="111"/>
      <point x="187" y="142"/>
      <point x="189" y="149" type="curve"/>
      <point x="191" y="162" type="line"/>
      <point x="191" y="163"/>
      <point x="191" y="179"/>
      <point x="170" y="179" type="curve" smooth="yes"/>
      <point x="151" y="179"/>
      <point x="151" y="175"/>
      <point x="144" y="139" type="curve" smooth="yes"/>
      <point x="141" y="124"/>
      <point x="122" y="24"/>
      <point x="122" y="17" type="curve" smooth="yes"/>
      <point x="122" y="0"/>
      <point x="138" y="0"/>
      <point x="155" y="0" type="curve" smooth="yes"/>
      <point x="798" y="0" type="line" smooth="yes"/>
      <point x="819" y="0"/>
      <point x="824" y="0"/>
      <point x="830" y="12" type="curve"/>
      <point x="834" y="22"/>
      <point x="876" y="159"/>
      <point x="876" y="162" type="curve" smooth="yes"/>
      <point x="876" y="163"/>
      <point x="876" y="179"/>
      <point x="856" y="179" type="curve" smooth="yes"/>
      <point x="839" y="179"/>
      <point x="839" y="177"/>
      <point x="828" y="145" type="curve"/>
      <point x="827" y="143"/>
      <point x="809" y="89"/>
      <point x="799" y="87" type="curve" smooth="yes"/>
      <point x="778" y="82"/>
      <point x="735" y="82"/>
      <point x="712" y="82" type="curve" smooth="yes"/>
    </contour>
    <contour>
      <point x="820" y="417" type="line"/>
      <point x="821" y="420"/>
      <point x="823" y="428"/>
      <point x="823" y="431" type="curve" smooth="yes"/>
      <point x="823" y="447"/>
      <point x="806" y="447"/>
      <point x="802" y="447" type="curve" smooth="yes"/>
      <point x="787" y="447"/>
      <point x="783" y="443"/>
      <point x="779" y="428" type="curve" smooth="yes"/>
      <point x="773" y="403"/>
      <point x="777" y="416"/>
      <point x="771" y="392" type="curve"/>
      <point x="370" y="392" type="line"/>
      <point x="373" y="405"/>
      <point x="379" y="427"/>
      <point x="379" y="431" type="curve" smooth="yes"/>
      <point x="379" y="447"/>
      <point x="362" y="447"/>
      <point x="358" y="447" type="curve" smooth="yes"/>
      <point x="345" y="447"/>
      <point x="340" y="445"/>
      <point x="335" y="428" type="curve"/>
      <point x="330" y="407"/>
      <point x="297" y="280"/>
      <point x="297" y="271" type="curve" smooth="yes"/>
      <point x="297" y="255"/>
      <point x="313" y="255"/>
      <point x="318" y="255" type="curve" smooth="yes"/>
      <point x="334" y="255"/>
      <point x="336" y="261"/>
      <point x="340" y="275" type="curve" smooth="yes"/>
      <point x="342" y="281"/>
      <point x="347" y="303"/>
      <point x="349" y="310" type="curve"/>
      <point x="750" y="310" type="line"/>
      <point x="746" y="295"/>
      <point x="741" y="276"/>
      <point x="741" y="271" type="curve" smooth="yes"/>
      <point x="741" y="255"/>
      <point x="757" y="255"/>
      <point x="762" y="255" type="curve" smooth="yes"/>
      <point x="772" y="255"/>
      <point x="780" y="255"/>
      <point x="785" y="276" type="curve" smooth="yes"/>
    </contour>
  </outline>
</glyph>
<glyph name="Pi" format="2">
  <advance width="1110"/>
  <unicode hex="03A0"/>
  <outline>
    <contour>
      <point x="961" y="594" type="line" smooth="yes"/>
      <point x="969" y="626"/>
      <point x="971" y="634"/>
      <point x="1047" y="634" type="curve" smooth="yes"/>
      <point x="1073" y="634"/>
      <point x="1075" y="634"/>
      <point x="1079" y="637" type="curve"/>
      <point x="1085" y="643"/>
      <point x="1088" y="655"/>
      <point x="1088" y="662" type="curve" smooth="yes"/>
      <point x="1088" y="679"/>
      <point x="1073" y="679"/>
      <point x="1056" y="679" type="curve" smooth="yes"/>
      <point x="311" y="679" type="line" smooth="yes"/>
      <point x="291" y="679"/>
      <point x="276" y="679"/>
      <point x="276" y="651" type="curve" smooth="yes"/>
      <point x="276" y="634"/>
      <point x="288" y="634"/>
      <point x="313" y="634" type="curve" smooth="yes"/>
      <point x="323" y="634"/>
      <point x="356" y="634"/>
      <point x="377" y="628" type="curve"/>
      <point x="377" y="616"/>
      <point x="377" y="614"/>
      <point x="374" y="603" type="curve" smooth="yes"/>
      <point x="244" y="83" type="line" smooth="yes"/>
      <point x="236" y="53"/>
      <point x="235" y="45"/>
      <point x="158" y="45" type="curve" smooth="yes"/>
      <point x="133" y="45"/>
      <point x="117" y="45"/>
      <point x="117" y="17" type="curve" smooth="yes"/>
      <point x="117" y="9"/>
      <point x="124" y="0"/>
      <point x="135" y="0" type="curve" smooth="yes"/>
      <point x="156" y="0"/>
      <point x="180" y="3"/>
      <point x="202" y="3" type="curve" smooth="yes"/>
      <point x="227" y="3"/>
      <point x="251" y="4"/>
      <point x="276" y="4" type="curve" smooth="yes"/>
      <point x="301" y="4"/>
      <point x="325" y="3"/>
      <point x="350" y="3" type="curve" smooth="yes"/>
      <point x="373" y="3"/>
      <point x="398" y="0"/>
      <point x="420" y="0" type="curve" smooth="yes"/>
      <point x="426" y="0"/>
      <point x="445" y="0"/>
      <point x="445" y="28" type="curve" smooth="yes"/>
      <point x="445" y="45"/>
      <point x="431" y="45"/>
      <point x="412" y="45" type="curve" smooth="yes"/>
      <point x="410" y="45"/>
      <point x="386" y="45"/>
      <point x="369" y="47" type="curve" smooth="yes"/>
      <point x="344" y="49"/>
      <point x="343" y="50"/>
      <point x="343" y="58" type="curve" smooth="yes"/>
      <point x="343" y="60"/>
      <point x="343" y="62"/>
      <point x="346" y="72" type="curve" smooth="yes"/>
      <point x="486" y="634" type="line"/>
      <point x="867" y="634" type="line"/>
      <point x="729" y="83" type="line" smooth="yes"/>
      <point x="721" y="53"/>
      <point x="719" y="45"/>
      <point x="643" y="45" type="curve" smooth="yes"/>
      <point x="618" y="45"/>
      <point x="602" y="45"/>
      <point x="602" y="17" type="curve" smooth="yes"/>
      <point x="602" y="9"/>
      <point x="609" y="0"/>
      <point x="620" y="0" type="curve" smooth="yes"/>
      <point x="641" y="0"/>
      <point x="665" y="3"/>
      <point x="687" y="3" type="curve" smooth="yes"/>
      <point x="712" y="3"/>
      <point x="736" y="4"/>
      <point x="761" y="4" type="curve" smooth="yes"/>
      <point x="786" y="4"/>
      <point x="810" y="3"/>
      <point x="835" y="3" type="curve" smooth="yes"/>
      <point x="858" y="3"/>
      <point x="883" y="0"/>
      <point x="905" y="0" type="curve" smooth="yes"/>
      <point x="911" y="0"/>
      <point x="930" y="0"/>
      <point x="930" y="28" type="curve" smooth="yes"/>
      <point x="930" y="45"/>
      <point x="916" y="45"/>
      <point x="897" y="45" type="curve" smooth="yes"/>
      <point x="895" y="45"/>
      <point x="871" y="45"/>
      <point x="854" y="47" type="curve" smooth="yes"/>
      <point x="829" y="49"/>
      <point x="828" y="50"/>
      <point x="828" y="58" type="curve" smooth="yes"/>
      <point x="828" y="60"/>
      <point x="828" y="62"/>
      <point x="831" y="72" type="curve" smooth="yes"/>
    </contour>
  </outline>
</glyph>
<glyph name="Sigma" format="2">
  <advance width="1065"/>
  <unicode hex="03A3"/>
  <outline>
    <contour>
      <point x="600" y="322" type="line" smooth="yes"/>
      <point x="613" y="332"/>
      <point x="613" y="333"/>
      <point x="614" y="347" type="curve"/>
      <point x="429" y="638" type="line"/>
      <point x="725" y="638" type="line" smooth="yes"/>
      <point x="745" y="638"/>
      <point x="853" y="638"/>
      <point x="906" y="616" type="curve" smooth="yes"/>
      <point x="952" y="598"/>
      <point x="964" y="532"/>
      <point x="964" y="492" type="curve" smooth="yes"/>
      <point x="964" y="484"/>
      <point x="962" y="471"/>
      <point x="962" y="463" type="curve" smooth="yes"/>
      <point x="962" y="449"/>
      <point x="972" y="444"/>
      <point x="983" y="444" type="curve" smooth="yes"/>
      <point x="1002" y="444"/>
      <point x="1003" y="453"/>
      <point x="1005" y="472" type="curve" smooth="yes"/>
      <point x="1021" y="650" type="line"/>
      <point x="1023" y="665" type="line"/>
      <point x="1023" y="683"/>
      <point x="1008" y="683"/>
      <point x="990" y="683" type="curve" smooth="yes"/>
      <point x="324" y="683" type="line" smooth="yes"/>
      <point x="301" y="683"/>
      <point x="289" y="683"/>
      <point x="289" y="649" type="curve"/>
      <point x="507" y="307" type="line"/>
      <point x="145" y="37" type="line" smooth="yes"/>
      <point x="131" y="27"/>
      <point x="129" y="22"/>
      <point x="129" y="17" type="curve" smooth="yes"/>
      <point x="129" y="0"/>
      <point x="145" y="0"/>
      <point x="162" y="0" type="curve" smooth="yes"/>
      <point x="828" y="0" type="line" smooth="yes"/>
      <point x="851" y="0"/>
      <point x="854" y="0"/>
      <point x="861" y="16" type="curve" smooth="yes"/>
      <point x="865" y="25"/>
      <point x="883" y="69"/>
      <point x="893" y="96" type="curve" smooth="yes"/>
      <point x="899" y="111"/>
      <point x="915" y="150"/>
      <point x="921" y="166" type="curve" smooth="yes"/>
      <point x="930" y="188"/>
      <point x="947" y="229"/>
      <point x="947" y="233" type="curve" smooth="yes"/>
      <point x="947" y="248"/>
      <point x="934" y="250"/>
      <point x="926" y="250" type="curve" smooth="yes"/>
      <point x="912" y="250"/>
      <point x="910" y="246"/>
      <point x="902" y="229" type="curve" smooth="yes"/>
      <point x="835" y="80"/>
      <point x="751" y="70"/>
      <point x="697" y="64" type="curve"/>
      <point x="696" y="64"/>
      <point x="635" y="56"/>
      <point x="566" y="56" type="curve" smooth="yes"/>
      <point x="244" y="56" type="line"/>
    </contour>
  </outline>
</glyph>
<glyph name="Upsilon" format="2">
  <advance width="840"/>
  <unicode hex="03A5"/>
  <outline>
    <contour>
      <point x="482" y="447" type="curve"/>
      <point x="483" y="454"/>
      <point x="483" y="462"/>
      <point x="483" y="469" type="curve" smooth="yes"/>
      <point x="483" y="594"/>
      <point x="429" y="705"/>
      <point x="298" y="705" type="curve" smooth="yes"/>
      <point x="167" y="705"/>
      <point x="90" y="581"/>
      <point x="90" y="543" type="curve" smooth="yes"/>
      <point x="90" y="530"/>
      <point x="102" y="530"/>
      <point x="110" y="530" type="curve" smooth="yes"/>
      <point x="118" y="530"/>
      <point x="130" y="530"/>
      <point x="136" y="547" type="curve" smooth="yes"/>
      <point x="159" y="613"/>
      <point x="239" y="619"/>
      <point x="276" y="619" type="curve" smooth="yes"/>
      <point x="373" y="619"/>
      <point x="417" y="540"/>
      <point x="417" y="439" type="curve" smooth="yes"/>
      <point x="417" y="417"/>
      <point x="416" y="392"/>
      <point x="403" y="338" type="curve" smooth="yes"/>
      <point x="354" y="140"/>
      <point x="338" y="76"/>
      <point x="335" y="69" type="curve" smooth="yes"/>
      <point x="329" y="54"/>
      <point x="325" y="46"/>
      <point x="225" y="45" type="curve"/>
      <point x="199" y="45"/>
      <point x="197" y="45"/>
      <point x="194" y="42" type="curve"/>
      <point x="187" y="36"/>
      <point x="185" y="26"/>
      <point x="185" y="17" type="curve" smooth="yes"/>
      <point x="185" y="15"/>
      <point x="186" y="0"/>
      <point x="203" y="0" type="curve" smooth="yes"/>
      <point x="229" y="0"/>
      <point x="257" y="3"/>
      <point x="283" y="3" type="curve" smooth="yes"/>
      <point x="312" y="3"/>
      <point x="342" y="4"/>
      <point x="371" y="4" type="curve" smooth="yes"/>
      <point x="400" y="4"/>
      <point x="430" y="3"/>
      <point x="459" y="3" type="curve" smooth="yes"/>
      <point x="486" y="3"/>
      <point x="515" y="0"/>
      <point x="542" y="0" type="curve" smooth="yes"/>
      <point x="548" y="0"/>
      <point x="568" y="0"/>
      <point x="568" y="28" type="curve" smooth="yes"/>
      <point x="568" y="45"/>
      <point x="554" y="45"/>
      <point x="528" y="45" type="curve" smooth="yes"/>
      <point x="504" y="45"/>
      <point x="496" y="45"/>
      <point x="470" y="47" type="curve" smooth="yes"/>
      <point x="446" y="49"/>
      <point x="439" y="50"/>
      <point x="439" y="62" type="curve" smooth="yes"/>
      <point x="439" y="65"/>
      <point x="439" y="67"/>
      <point x="444" y="88" type="curve" smooth="yes"/>
      <point x="460" y="150"/>
      <point x="496" y="301"/>
      <point x="508" y="346" type="curve" smooth="yes"/>
      <point x="551" y="500"/>
      <point x="656" y="619"/>
      <point x="775" y="619" type="curve" smooth="yes"/>
      <point x="825" y="619"/>
      <point x="880" y="605"/>
      <point x="880" y="561" type="curve" smooth="yes"/>
      <point x="880" y="548"/>
      <point x="878" y="548"/>
      <point x="878" y="543" type="curve" smooth="yes"/>
      <point x="878" y="530"/>
      <point x="890" y="530"/>
      <point x="898" y="530" type="curve" smooth="yes"/>
      <point x="912" y="530"/>
      <point x="928" y="531"/>
      <point x="928" y="583" type="curve" smooth="yes"/>
      <point x="928" y="658"/>
      <point x="870" y="705"/>
      <point x="795" y="705" type="curve" smooth="yes"/>
      <point x="724" y="705"/>
      <point x="660" y="671"/>
      <point x="609" y="626" type="curve" smooth="yes"/>
      <point x="540" y="564"/>
      <point x="504" y="491"/>
    </contour>
  </outline>
</glyph>
<glyph name="Phi" format="2">
  <advance width="944"/>
  <unicode hex="03A6"/>
  <outline>
    <contour>
      <point x="583" y="591" type="line" smooth="yes"/>
      <point x="591" y="620"/>
      <point x="593" y="629"/>
      <point x="619" y="634" type="curve" smooth="yes"/>
      <point x="644" y="638"/>
      <point x="672" y="638"/>
      <point x="699" y="638" type="curve" smooth="yes"/>
      <point x="727" y="638"/>
      <point x="740" y="638"/>
      <point x="740" y="666" type="curve" smooth="yes"/>
      <point x="740" y="679"/>
      <point x="730" y="683"/>
      <point x="722" y="683" type="curve" smooth="yes"/>
      <point x="696" y="683"/>
      <point x="668" y="680"/>
      <point x="642" y="680" type="curve" smooth="yes"/>
      <point x="614" y="680"/>
      <point x="586" y="679"/>
      <point x="558" y="679" type="curve" smooth="yes"/>
      <point x="530" y="679"/>
      <point x="502" y="680"/>
      <point x="475" y="680" type="curve" smooth="yes"/>
      <point x="447" y="680"/>
      <point x="418" y="683"/>
      <point x="391" y="683" type="curve" smooth="yes"/>
      <point x="383" y="683"/>
      <point x="365" y="683"/>
      <point x="365" y="655" type="curve" smooth="yes"/>
      <point x="365" y="638"/>
      <point x="378" y="638"/>
      <point x="403" y="638" type="curve" smooth="yes"/>
      <point x="426" y="638"/>
      <point x="437" y="638"/>
      <point x="461" y="636" type="curve" smooth="yes"/>
      <point x="493" y="633"/>
      <point x="494" y="632"/>
      <point x="494" y="621" type="curve" smooth="yes"/>
      <point x="494" y="615"/>
      <point x="483" y="572"/>
      <point x="475" y="541" type="curve"/>
      <point x="473" y="536"/>
      <point x="472" y="535"/>
      <point x="456" y="534" type="curve" smooth="yes"/>
      <point x="275" y="520"/>
      <point x="87" y="431"/>
      <point x="87" y="316" type="curve" smooth="yes"/>
      <point x="87" y="221"/>
      <point x="226" y="157"/>
      <point x="376" y="148" type="curve"/>
      <point x="362" y="87"/>
      <point x="359" y="76"/>
      <point x="356" y="68" type="curve"/>
      <point x="350" y="55"/>
      <point x="345" y="45"/>
      <point x="247" y="45" type="curve" smooth="yes"/>
      <point x="220" y="45"/>
      <point x="218" y="45"/>
      <point x="213" y="40" type="curve" smooth="yes"/>
      <point x="207" y="34"/>
      <point x="206" y="18"/>
      <point x="206" y="17" type="curve" smooth="yes"/>
      <point x="206" y="15"/>
      <point x="207" y="0"/>
      <point x="224" y="0" type="curve" smooth="yes"/>
      <point x="250" y="0"/>
      <point x="278" y="3"/>
      <point x="304" y="3" type="curve" smooth="yes"/>
      <point x="332" y="3"/>
      <point x="360" y="4"/>
      <point x="388" y="4" type="curve" smooth="yes"/>
      <point x="416" y="4"/>
      <point x="444" y="3"/>
      <point x="471" y="3" type="curve" smooth="yes"/>
      <point x="499" y="3"/>
      <point x="528" y="0"/>
      <point x="555" y="0" type="curve" smooth="yes"/>
      <point x="561" y="0"/>
      <point x="581" y="0"/>
      <point x="581" y="28" type="curve" smooth="yes"/>
      <point x="581" y="45"/>
      <point x="567" y="45"/>
      <point x="541" y="45" type="curve" smooth="yes"/>
      <point x="517" y="45"/>
      <point x="509" y="45"/>
      <point x="483" y="47" type="curve" smooth="yes"/>
      <point x="459" y="49"/>
      <point x="452" y="50"/>
      <point x="452" y="62" type="curve" smooth="yes"/>
      <point x="452" y="64"/>
      <point x="455" y="77"/>
      <point x="472" y="148" type="curve"/>
      <point x="655" y="158"/>
      <point x="858" y="247"/>
      <point x="858" y="367" type="curve" smooth="yes"/>
      <point x="858" y="464"/>
      <point x="713" y="527"/>
      <point x="569" y="535" type="curve"/>
    </contour>
    <contour>
      <point x="385" y="182" type="line"/>
      <point x="298" y="187"/>
      <point x="196" y="214"/>
      <point x="196" y="309" type="curve" smooth="yes"/>
      <point x="196" y="367"/>
      <point x="242" y="489"/>
      <point x="465" y="501" type="curve"/>
    </contour>
    <contour>
      <point x="561" y="501" type="line"/>
      <point x="635" y="497"/>
      <point x="749" y="474"/>
      <point x="749" y="374" type="curve" smooth="yes"/>
      <point x="749" y="312"/>
      <point x="697" y="194"/>
      <point x="481" y="182" type="curve"/>
    </contour>
  </outline>
</glyph>
<glyph name="Psi" format="2">
  <advance width="893"/>
  <unicode hex="03A8"/>
  <outline>
    <contour>
      <point x="568" y="598" type="line" smooth="yes"/>
      <point x="574" y="623"/>
      <point x="580" y="631"/>
      <point x="605" y="634" type="curve" smooth="yes"/>
      <point x="633" y="638"/>
      <point x="653" y="638"/>
      <point x="680" y="638" type="curve" smooth="yes"/>
      <point x="710" y="638"/>
      <point x="723" y="638"/>
      <point x="723" y="666" type="curve" smooth="yes"/>
      <point x="723" y="678"/>
      <point x="714" y="683"/>
      <point x="705" y="683" type="curve" smooth="yes"/>
      <point x="679" y="683"/>
      <point x="651" y="680"/>
      <point x="625" y="680" type="curve" smooth="yes"/>
      <point x="597" y="680"/>
      <point x="569" y="679"/>
      <point x="541" y="679" type="curve" smooth="yes"/>
      <point x="513" y="679"/>
      <point x="485" y="680"/>
      <point x="458" y="680" type="curve" smooth="yes"/>
      <point x="430" y="680"/>
      <point x="401" y="683"/>
      <point x="374" y="683" type="curve" smooth="yes"/>
      <point x="366" y="683"/>
      <point x="348" y="683"/>
      <point x="348" y="655" type="curve" smooth="yes"/>
      <point x="348" y="638"/>
      <point x="361" y="638"/>
      <point x="386" y="638" type="curve" smooth="yes"/>
      <point x="409" y="638"/>
      <point x="420" y="638"/>
      <point x="444" y="636" type="curve" smooth="yes"/>
      <point x="476" y="633"/>
      <point x="477" y="632"/>
      <point x="477" y="621" type="curve" smooth="yes"/>
      <point x="477" y="615"/>
      <point x="475" y="609"/>
      <point x="474" y="604" type="curve" smooth="yes"/>
      <point x="369" y="184" type="line"/>
      <point x="252" y="199"/>
      <point x="233" y="272"/>
      <point x="233" y="331" type="curve" smooth="yes"/>
      <point x="233" y="355"/>
      <point x="237" y="381"/>
      <point x="243" y="406" type="curve" smooth="yes"/>
      <point x="248" y="426"/>
      <point x="248" y="434"/>
      <point x="248" y="447" type="curve" smooth="yes"/>
      <point x="248" y="546"/>
      <point x="173" y="546"/>
      <point x="155" y="546" type="curve" smooth="yes"/>
      <point x="119" y="546" type="line" smooth="yes"/>
      <point x="103" y="546"/>
      <point x="86" y="546"/>
      <point x="86" y="529" type="curve" smooth="yes"/>
      <point x="86" y="520"/>
      <point x="94" y="513"/>
      <point x="102" y="512" type="curve" smooth="yes"/>
      <point x="119" y="510"/>
      <point x="153" y="507"/>
      <point x="153" y="447" type="curve" smooth="yes"/>
      <point x="153" y="431"/>
      <point x="151" y="422"/>
      <point x="147" y="405" type="curve" smooth="yes"/>
      <point x="141" y="379"/>
      <point x="140" y="352"/>
      <point x="140" y="346" type="curve" smooth="yes"/>
      <point x="140" y="222"/>
      <point x="228" y="161"/>
      <point x="360" y="149" type="curve"/>
      <point x="346" y="93" type="line" smooth="yes"/>
      <point x="338" y="62"/>
      <point x="336" y="54"/>
      <point x="310" y="49" type="curve" smooth="yes"/>
      <point x="287" y="45"/>
      <point x="257" y="45"/>
      <point x="230" y="45" type="curve" smooth="yes"/>
      <point x="203" y="45"/>
      <point x="201" y="45"/>
      <point x="196" y="40" type="curve" smooth="yes"/>
      <point x="190" y="34"/>
      <point x="189" y="18"/>
      <point x="189" y="17" type="curve" smooth="yes"/>
      <point x="189" y="15"/>
      <point x="190" y="0"/>
      <point x="207" y="0" type="curve" smooth="yes"/>
      <point x="233" y="0"/>
      <point x="261" y="3"/>
      <point x="287" y="3" type="curve" smooth="yes"/>
      <point x="315" y="3"/>
      <point x="343" y="4"/>
      <point x="371" y="4" type="curve" smooth="yes"/>
      <point x="399" y="4"/>
      <point x="427" y="3"/>
      <point x="454" y="3" type="curve" smooth="yes"/>
      <point x="482" y="3"/>
      <point x="511" y="0"/>
      <point x="538" y="0" type="curve" smooth="yes"/>
      <point x="544" y="0"/>
      <point x="564" y="0"/>
      <point x="564" y="28" type="curve" smooth="yes"/>
      <point x="564" y="45"/>
      <point x="550" y="45"/>
      <point x="524" y="45" type="curve" smooth="yes"/>
      <point x="500" y="45"/>
      <point x="492" y="45"/>
      <point x="466" y="47" type="curve" smooth="yes"/>
      <point x="442" y="49"/>
      <point x="435" y="50"/>
      <point x="435" y="62" type="curve" smooth="yes"/>
      <point x="435" y="64"/>
      <point x="438" y="77"/>
      <point x="455" y="148" type="curve"/>
      <point x="537" y="154"/>
      <point x="604" y="175"/>
      <point x="662" y="213" type="curve" smooth="yes"/>
      <point x="759" y="278"/>
      <point x="785" y="365"/>
      <point x="799" y="415" type="curve" smooth="yes"/>
      <point x="805" y="433"/>
      <point x="833" y="505"/>
      <point x="899" y="512" type="curve" smooth="yes"/>
      <point x="906" y="513"/>
      <point x="919" y="514"/>
      <point x="919" y="529" type="curve" smooth="yes"/>
      <point x="919" y="546"/>
      <point x="905" y="546"/>
      <point x="887" y="546" type="curve" smooth="yes"/>
      <point x="851" y="546" type="line" smooth="yes"/>
      <point x="746" y="546"/>
      <point x="711" y="442"/>
      <point x="705" y="421" type="curve" smooth="yes"/>
      <point x="688" y="360"/>
      <point x="647" y="214"/>
      <point x="465" y="185" type="curve"/>
    </contour>
  </outline>
</glyph>
<glyph name="alpha" format="2">
  <advance width="913"/>
  <unicode hex="03B1"/>
  <outline>
    <contour>
      <point x="654" y="141" type="curve"/>
      <point x="743" y="220"/>
      <point x="791" y="357"/>
      <point x="791" y="379" type="curve" smooth="yes"/>
      <point x="791" y="393"/>
      <point x="777" y="393"/>
      <point x="771" y="393" type="curve" smooth="yes"/>
      <point x="753" y="393"/>
      <point x="752" y="390"/>
      <point x="747" y="369" type="curve" smooth="yes"/>
      <point x="724" y="287"/>
      <point x="677" y="223"/>
      <point x="651" y="192" type="curve"/>
      <point x="648" y="215"/>
      <point x="648" y="217"/>
      <point x="646" y="246" type="curve" smooth="yes"/>
      <point x="633" y="395"/>
      <point x="514" y="442"/>
      <point x="422" y="442" type="curve" smooth="yes"/>
      <point x="256" y="442"/>
      <point x="107" y="306"/>
      <point x="107" y="171" type="curve" smooth="yes"/>
      <point x="107" y="70"/>
      <point x="188" y="-11"/>
      <point x="317" y="-11" type="curve" smooth="yes"/>
      <point x="366" y="-11"/>
      <point x="465" y="-1"/>
      <point x="577" y="76" type="curve"/>
      <point x="594" y="32"/>
      <point x="633" y="-11"/>
      <point x="697" y="-11" type="curve" smooth="yes"/>
      <point x="764" y="-11"/>
      <point x="802" y="37"/>
      <point x="802" y="60" type="curve" smooth="yes"/>
      <point x="802" y="74"/>
      <point x="789" y="74"/>
      <point x="781" y="74" type="curve" smooth="yes"/>
      <point x="769" y="74"/>
      <point x="765" y="74"/>
      <point x="760" y="61" type="curve" smooth="yes"/>
      <point x="746" y="27"/>
      <point x="709" y="23"/>
      <point x="700" y="23" type="curve" smooth="yes"/>
      <point x="679" y="23"/>
      <point x="661" y="41"/>
    </contour>
    <contour>
      <point x="568" y="113" type="curve"/>
      <point x="529" y="85"/>
      <point x="437" y="23"/>
      <point x="320" y="23" type="curve" smooth="yes"/>
      <point x="258" y="23"/>
      <point x="199" y="54"/>
      <point x="199" y="140" type="curve" smooth="yes"/>
      <point x="199" y="173"/>
      <point x="213" y="266"/>
      <point x="263" y="330" type="curve" smooth="yes"/>
      <point x="297" y="372"/>
      <point x="357" y="408"/>
      <point x="420" y="408" type="curve" smooth="yes"/>
      <point x="522" y="408"/>
      <point x="548" y="306"/>
      <point x="556" y="247" type="curve" smooth="yes"/>
      <point x="559" y="226"/>
      <point x="561" y="173"/>
    </contour>
  </outline>
</glyph>
<glyph name="beta" format="2">
  <advance width="790"/>
  <unicode hex="03B2"/>
  <outline>
    <contour>
      <point x="730.0" y="561" type="curve" smooth="yes"/>
      <point x="730.0" y="664"/>
      <point x="626.0" y="706"/>
      <point x="534.0" y="706" type="curve" smooth="yes"/>
      <point x="407.0" y="706"/>
      <point x="280.0" y="568"/>
      <point x="251.0" y="452" type="curve" smooth="yes"/>
      <point x="94.0" y="-177" type="line" smooth="yes"/>
      <point x="91.0" y="-190"/>
      <point x="101.0" y="-194"/>
      <point x="115.0" y="-194" type="curve" smooth="yes"/>
      <point x="126.0" y="-194"/>
      <point x="133.0" y="-192"/>
      <point x="136.0" y="-178" type="curve" smooth="yes"/>
      <point x="199.0" y="75" type="line"/>
      <point x="200.0" y="74" type="line"/>
      <point x="241.0" y="16"/>
      <point x="295.0" y="-10"/>
      <point x="366.0" y="-10" type="curve" smooth="yes"/>
      <point x="541.0" y="-10"/>
      <point x="699.0" y="98"/>
      <point x="699.0" y="236" type="curve" smooth="yes"/>
      <point x="699.0" y="308"/>
      <point x="667.0" y="354"/>
      <point x="612.0" y="395" type="curve"/>
      <point x="662.0" y="422"/>
      <point x="730.0" y="481"/>
    </contour>
    <contour>
      <point x="504.0" y="394" type="curve"/>
      <point x="486.0" y="390"/>
      <point x="467.0" y="389"/>
      <point x="448.0" y="389" type="curve" smooth="yes"/>
      <point x="433.0" y="389"/>
      <point x="418.0" y="390"/>
      <point x="404.0" y="392" type="curve"/>
      <point x="422.0" y="397"/>
      <point x="443.0" y="398"/>
      <point x="462.0" y="398" type="curve" smooth="yes"/>
      <point x="476.0" y="398"/>
      <point x="490.0" y="397"/>
    </contour>
    <contour>
      <point x="654.0" y="578" type="curve" smooth="yes"/>
      <point x="654.0" y="514"/>
      <point x="621.0" y="451"/>
      <point x="563.0" y="417" type="curve"/>
      <point x="541.0" y="426"/>
      <point x="492.0" y="431"/>
      <point x="462.0" y="431" type="curve" smooth="yes"/>
      <point x="434.0" y="431"/>
      <point x="354.0" y="433"/>
      <point x="354.0" y="390" type="curve" smooth="yes"/>
      <point x="354.0" y="362"/>
      <point x="388.0" y="355"/>
      <point x="447.0" y="355" type="curve" smooth="yes"/>
      <point x="503.0" y="355"/>
      <point x="525.0" y="362"/>
      <point x="561.0" y="372" type="curve"/>
      <point x="600.0" y="347"/>
      <point x="615.0" y="305"/>
      <point x="615.0" y="261" type="curve" smooth="yes"/>
      <point x="615.0" y="121"/>
      <point x="511.0" y="24"/>
      <point x="374.0" y="24" type="curve" smooth="yes"/>
      <point x="297.0" y="24"/>
      <point x="223.0" y="64"/>
      <point x="223.0" y="149" type="curve" smooth="yes"/>
      <point x="223.0" y="158"/>
      <point x="224.0" y="171"/>
      <point x="227.0" y="185" type="curve" smooth="yes"/>
      <point x="290.0" y="436" type="line" smooth="yes"/>
      <point x="319.0" y="552"/>
      <point x="420.0" y="672"/>
      <point x="536.0" y="672" type="curve" smooth="yes"/>
      <point x="589.0" y="672"/>
      <point x="654.0" y="655"/>
    </contour>
  </outline>
</glyph>
<glyph name="gamma" format="2">
  <advance width="746"/>
  <unicode hex="03B3"/>
  <outline>
    <contour>
      <point x="546" y="143" type="curve"/>
      <point x="530" y="258"/>
      <point x="464" y="442"/>
      <point x="309" y="442" type="curve" smooth="yes"/>
      <point x="249" y="442"/>
      <point x="190" y="416"/>
      <point x="146" y="379" type="curve" smooth="yes"/>
      <point x="89" y="330"/>
      <point x="74" y="272"/>
      <point x="74" y="263" type="curve" smooth="yes"/>
      <point x="74" y="249"/>
      <point x="87" y="249"/>
      <point x="95" y="249" type="curve" smooth="yes"/>
      <point x="111" y="249"/>
      <point x="112" y="251"/>
      <point x="117" y="266" type="curve" smooth="yes"/>
      <point x="143" y="338"/>
      <point x="243" y="355"/>
      <point x="294" y="355" type="curve" smooth="yes"/>
      <point x="471" y="355"/>
      <point x="506" y="202"/>
      <point x="506" y="78" type="curve" smooth="yes"/>
      <point x="506" y="37"/>
      <point x="505" y="34"/>
      <point x="498" y="10" type="curve" smooth="yes"/>
      <point x="476" y="-59"/>
      <point x="450" y="-158"/>
      <point x="450" y="-187" type="curve" smooth="yes"/>
      <point x="450" y="-191"/>
      <point x="450" y="-216"/>
      <point x="470" y="-216" type="curve" smooth="yes"/>
      <point x="484" y="-216"/>
      <point x="495" y="-203"/>
      <point x="506" y="-167" type="curve" smooth="yes"/>
      <point x="518" y="-130"/>
      <point x="536" y="-59"/>
      <point x="545" y="11" type="curve" smooth="yes"/>
      <point x="550" y="57"/>
      <point x="615" y="203"/>
      <point x="625" y="226" type="curve" smooth="yes"/>
      <point x="635" y="247"/>
      <point x="662" y="305"/>
      <point x="714" y="397" type="curve" smooth="yes"/>
      <point x="723" y="412"/>
      <point x="723" y="414"/>
      <point x="723" y="417" type="curve" smooth="yes"/>
      <point x="723" y="431"/>
      <point x="708" y="431"/>
      <point x="702" y="431" type="curve" smooth="yes"/>
      <point x="696" y="431"/>
      <point x="689" y="431"/>
      <point x="685" y="426" type="curve" smooth="yes"/>
      <point x="679" y="419"/>
      <point x="597" y="276"/>
    </contour>
  </outline>
</glyph>
<glyph name="delta" format="2">
  <advance width="654"/>
  <unicode hex="03B4"/>
  <outline>
    <contour>
      <point x="357" y="435" type="curve"/>
      <point x="225" y="408"/>
      <point x="105" y="293"/>
      <point x="105" y="169" type="curve" smooth="yes"/>
      <point x="105" y="54"/>
      <point x="204" y="-14"/>
      <point x="312" y="-14" type="curve" smooth="yes"/>
      <point x="430" y="-14"/>
      <point x="546" y="106"/>
      <point x="546" y="266" type="curve" smooth="yes"/>
      <point x="546" y="372"/>
      <point x="487" y="428"/>
      <point x="426" y="485" type="curve" smooth="yes"/>
      <point x="395" y="514"/>
      <point x="316" y="593"/>
      <point x="316" y="633" type="curve" smooth="yes"/>
      <point x="316" y="645"/>
      <point x="328" y="673"/>
      <point x="369" y="673" type="curve" smooth="yes"/>
      <point x="402" y="673"/>
      <point x="436" y="658"/>
      <point x="465" y="643" type="curve" smooth="yes"/>
      <point x="473" y="639"/>
      <point x="520" y="613"/>
      <point x="539" y="613" type="curve" smooth="yes"/>
      <point x="559" y="613"/>
      <point x="585" y="634"/>
      <point x="585" y="661" type="curve" smooth="yes"/>
      <point x="585" y="688"/>
      <point x="570" y="691"/>
      <point x="508" y="703" type="curve" smooth="yes"/>
      <point x="464" y="711"/>
      <point x="426" y="716"/>
      <point x="400" y="716" type="curve" smooth="yes"/>
      <point x="303" y="716"/>
      <point x="278" y="656"/>
      <point x="278" y="612" type="curve" smooth="yes"/>
      <point x="278" y="550"/>
      <point x="326" y="480"/>
    </contour>
    <contour>
      <point x="380" y="403" type="curve"/>
      <point x="432" y="333"/>
      <point x="459" y="284"/>
      <point x="459" y="222" type="curve" smooth="yes"/>
      <point x="459" y="130"/>
      <point x="398" y="20"/>
      <point x="315" y="20" type="curve" smooth="yes"/>
      <point x="280" y="20"/>
      <point x="187" y="34"/>
      <point x="187" y="145" type="curve" smooth="yes"/>
      <point x="187" y="226"/>
      <point x="236" y="375"/>
    </contour>
  </outline>
</glyph>
<glyph name="epsilon" format="2">
  <advance width="674"/>
  <unicode hex="03B5"/>
  <outline>
    <contour>
      <point x="220" y="220" type="curve"/>
      <point x="265" y="204"/>
      <point x="296" y="204"/>
      <point x="330" y="204" type="curve" smooth="yes"/>
      <point x="368" y="204"/>
      <point x="434" y="204"/>
      <point x="434" y="245" type="curve" smooth="yes"/>
      <point x="434" y="276"/>
      <point x="389" y="280"/>
      <point x="342" y="280" type="curve" smooth="yes"/>
      <point x="312" y="280"/>
      <point x="274" y="277"/>
      <point x="230" y="262" type="curve" smooth="yes"/>
      <point x="224" y="260"/>
      <point x="222" y="260"/>
      <point x="221" y="260" type="curve" smooth="yes"/>
      <point x="219" y="260"/>
      <point x="181" y="275"/>
      <point x="181" y="308" type="curve" smooth="yes"/>
      <point x="181" y="362"/>
      <point x="294" y="391"/>
      <point x="397" y="391" type="curve" smooth="yes"/>
      <point x="417" y="391"/>
      <point x="465" y="391"/>
      <point x="516" y="363" type="curve" smooth="yes"/>
      <point x="529" y="356"/>
      <point x="531" y="355"/>
      <point x="539" y="355" type="curve" smooth="yes"/>
      <point x="557" y="355"/>
      <point x="574" y="372"/>
      <point x="574" y="390" type="curve" smooth="yes"/>
      <point x="574" y="407"/>
      <point x="563" y="412"/>
      <point x="553" y="417" type="curve" smooth="yes"/>
      <point x="522" y="434"/>
      <point x="477" y="453"/>
      <point x="410" y="453" type="curve" smooth="yes"/>
      <point x="276" y="453"/>
      <point x="139" y="391"/>
      <point x="139" y="307" type="curve" smooth="yes"/>
      <point x="139" y="278"/>
      <point x="156" y="255"/>
      <point x="181" y="240" type="curve"/>
      <point x="114" y="201"/>
      <point x="91" y="151"/>
      <point x="91" y="114" type="curve" smooth="yes"/>
      <point x="91" y="46"/>
      <point x="163" y="-22"/>
      <point x="303" y="-22" type="curve" smooth="yes"/>
      <point x="354" y="-22"/>
      <point x="409" y="-14"/>
      <point x="450" y="6" type="curve" smooth="yes"/>
      <point x="508" y="34"/>
      <point x="532" y="76"/>
      <point x="532" y="87" type="curve" smooth="yes"/>
      <point x="532" y="97"/>
      <point x="523" y="104"/>
      <point x="516" y="104" type="curve" smooth="yes"/>
      <point x="508" y="104"/>
      <point x="505" y="99"/>
      <point x="500" y="91" type="curve"/>
      <point x="471" y="50"/>
      <point x="420" y="40"/>
      <point x="319" y="40" type="curve" smooth="yes"/>
      <point x="282" y="40"/>
      <point x="134" y="40"/>
      <point x="134" y="119" type="curve" smooth="yes"/>
      <point x="134" y="153"/>
      <point x="166" y="194"/>
    </contour>
    <contour>
      <point x="383" y="241" type="line"/>
      <point x="369" y="238"/>
      <point x="352" y="238"/>
      <point x="331" y="238" type="curve" smooth="yes"/>
      <point x="316" y="238"/>
      <point x="295" y="238"/>
      <point x="281" y="240" type="curve"/>
      <point x="287" y="241"/>
      <point x="307" y="246"/>
      <point x="340" y="246" type="curve" smooth="yes"/>
      <point x="356" y="246"/>
      <point x="369" y="244"/>
      <point x="383" y="242" type="curve"/>
    </contour>
  </outline>
</glyph>
<glyph name="zeta" format="2">
  <advance width="666"/>
  <unicode hex="03B6"/>
  <outline>
    <contour>
      <point x="348" y="49" type="line" smooth="yes"/>
      <point x="274" y="69"/>
      <point x="182" y="93"/>
      <point x="182" y="213" type="curve" smooth="yes"/>
      <point x="182" y="355"/>
      <point x="313" y="503"/>
      <point x="428" y="560" type="curve"/>
      <point x="454" y="538"/>
      <point x="477" y="538"/>
      <point x="504" y="538" type="curve" smooth="yes"/>
      <point x="541" y="538"/>
      <point x="616" y="538"/>
      <point x="616" y="579" type="curve" smooth="yes"/>
      <point x="616" y="610"/>
      <point x="570" y="614"/>
      <point x="516" y="614" type="curve" smooth="yes"/>
      <point x="496" y="614"/>
      <point x="473" y="614"/>
      <point x="443" y="604" type="curve"/>
      <point x="443" y="605"/>
      <point x="437" y="619"/>
      <point x="437" y="641" type="curve" smooth="yes"/>
      <point x="437" y="662"/>
      <point x="442" y="674"/>
      <point x="442" y="681" type="curve" smooth="yes"/>
      <point x="442" y="695"/>
      <point x="431" y="701"/>
      <point x="422" y="701" type="curve" smooth="yes"/>
      <point x="395" y="701"/>
      <point x="395" y="652"/>
      <point x="395" y="643" type="curve" smooth="yes"/>
      <point x="395" y="641"/>
      <point x="395" y="612"/>
      <point x="407" y="589" type="curve"/>
      <point x="258" y="517"/>
      <point x="110" y="352"/>
      <point x="110" y="179" type="curve" smooth="yes"/>
      <point x="110" y="92"/>
      <point x="149" y="53"/>
      <point x="168" y="34" type="curve" smooth="yes"/>
      <point x="209" y="-6"/>
      <point x="251" y="-18"/>
      <point x="345" y="-42" type="curve" smooth="yes"/>
      <point x="376" y="-51"/>
      <point x="426" y="-64"/>
      <point x="437" y="-69" type="curve"/>
      <point x="453" y="-78"/>
      <point x="468" y="-93"/>
      <point x="468" y="-117" type="curve" smooth="yes"/>
      <point x="468" y="-134"/>
      <point x="458" y="-171"/>
      <point x="421" y="-171" type="curve" smooth="yes"/>
      <point x="412" y="-171"/>
      <point x="369" y="-169"/>
      <point x="330" y="-147" type="curve" smooth="yes"/>
      <point x="318" y="-140"/>
      <point x="316" y="-140"/>
      <point x="313" y="-140" type="curve" smooth="yes"/>
      <point x="302" y="-140"/>
      <point x="295" y="-148"/>
      <point x="295" y="-157" type="curve" smooth="yes"/>
      <point x="295" y="-179"/>
      <point x="372" y="-205"/>
      <point x="421" y="-205" type="curve" smooth="yes"/>
      <point x="495" y="-205"/>
      <point x="537" y="-131"/>
      <point x="537" y="-80" type="curve" smooth="yes"/>
      <point x="537" y="-40"/>
      <point x="517" y="-19"/>
      <point x="510" y="-10" type="curve"/>
      <point x="489" y="12"/>
      <point x="465" y="19"/>
      <point x="403" y="35" type="curve" smooth="yes"/>
    </contour>
    <contour>
      <point x="562" y="576" type="line"/>
      <point x="549" y="574"/>
      <point x="539" y="572"/>
      <point x="506" y="572" type="curve" smooth="yes"/>
      <point x="483" y="572"/>
      <point x="481" y="572"/>
      <point x="470" y="576" type="curve"/>
      <point x="484" y="580"/>
      <point x="499" y="580"/>
      <point x="514" y="580" type="curve" smooth="yes"/>
      <point x="535" y="580"/>
      <point x="547" y="579"/>
      <point x="562" y="577" type="curve"/>
    </contour>
  </outline>
</glyph>
<glyph name="eta" format="2">
  <advance width="743"/>
  <unicode hex="03B7"/>
  <outline>
    <contour>
      <point x="672" y="272" type="line" smooth="yes"/>
      <point x="676" y="288"/>
      <point x="679" y="299"/>
      <point x="679" y="323" type="curve" smooth="yes"/>
      <point x="679" y="392"/>
      <point x="632" y="442"/>
      <point x="530" y="442" type="curve" smooth="yes"/>
      <point x="432" y="442"/>
      <point x="376" y="381"/>
      <point x="340" y="343" type="curve"/>
      <point x="336" y="432"/>
      <point x="244" y="442"/>
      <point x="219" y="442" type="curve" smooth="yes"/>
      <point x="185" y="442"/>
      <point x="155" y="426"/>
      <point x="130" y="387" type="curve" smooth="yes"/>
      <point x="104" y="345"/>
      <point x="91" y="293"/>
      <point x="91" y="288" type="curve" smooth="yes"/>
      <point x="91" y="273"/>
      <point x="106" y="273"/>
      <point x="112" y="273" type="curve" smooth="yes"/>
      <point x="129" y="273"/>
      <point x="131" y="278"/>
      <point x="135" y="294" type="curve" smooth="yes"/>
      <point x="146" y="334"/>
      <point x="167" y="408"/>
      <point x="214" y="408" type="curve" smooth="yes"/>
      <point x="249" y="408"/>
      <point x="255" y="375"/>
      <point x="255" y="355" type="curve" smooth="yes"/>
      <point x="255" y="341"/>
      <point x="245" y="303"/>
      <point x="239" y="277" type="curve" smooth="yes"/>
      <point x="232" y="250"/>
      <point x="222" y="209"/>
      <point x="217" y="187" type="curve" smooth="yes"/>
      <point x="194" y="98" type="line" smooth="yes"/>
      <point x="188" y="73"/>
      <point x="177" y="29"/>
      <point x="177" y="24" type="curve" smooth="yes"/>
      <point x="177" y="2"/>
      <point x="195" y="-11"/>
      <point x="214" y="-11" type="curve" smooth="yes"/>
      <point x="229" y="-11"/>
      <point x="251" y="-3"/>
      <point x="262" y="22" type="curve"/>
      <point x="263" y="27"/>
      <point x="275" y="74"/>
      <point x="281" y="100" type="curve" smooth="yes"/>
      <point x="285" y="116"/>
      <point x="296" y="159"/>
      <point x="299" y="169" type="curve"/>
      <point x="304" y="191"/>
      <point x="310" y="213"/>
      <point x="315" y="236" type="curve"/>
      <point x="317" y="240"/>
      <point x="353" y="313"/>
      <point x="402" y="356" type="curve" smooth="yes"/>
      <point x="418" y="370"/>
      <point x="460" y="408"/>
      <point x="525" y="408" type="curve" smooth="yes"/>
      <point x="576" y="408"/>
      <point x="595" y="379"/>
      <point x="595" y="336" type="curve" smooth="yes"/>
      <point x="595" y="312"/>
      <point x="592" y="301"/>
      <point x="588" y="284" type="curve" smooth="yes"/>
      <point x="477" y="-157" type="line" smooth="yes"/>
      <point x="473" y="-173"/>
      <point x="473" y="-178"/>
      <point x="473" y="-181" type="curve" smooth="yes"/>
      <point x="473" y="-204"/>
      <point x="491" y="-216"/>
      <point x="510" y="-216" type="curve" smooth="yes"/>
      <point x="549" y="-216"/>
      <point x="558" y="-180"/>
      <point x="561" y="-168" type="curve" smooth="yes"/>
    </contour>
  </outline>
</glyph>
<glyph name="theta" format="2">
  <advance width="677"/>
  <unicode hex="03B8"/>
  <outline>
    <contour>
      <point x="604" y="474" type="curve" smooth="yes"/>
      <point x="604" y="595"/>
      <point x="549" y="705"/>
      <point x="441" y="705" type="curve" smooth="yes"/>
      <point x="281" y="705"/>
      <point x="108" y="454"/>
      <point x="108" y="220" type="curve" smooth="yes"/>
      <point x="108" y="84"/>
      <point x="172" y="-11"/>
      <point x="270" y="-11" type="curve" smooth="yes"/>
      <point x="434" y="-11"/>
      <point x="604" y="247"/>
    </contour>
    <contour>
      <point x="228" y="370" type="line"/>
      <point x="292" y="619"/>
      <point x="393" y="671"/>
      <point x="440" y="671" type="curve" smooth="yes"/>
      <point x="496" y="671"/>
      <point x="519" y="608"/>
      <point x="519" y="529" type="curve" smooth="yes"/>
      <point x="519" y="499"/>
      <point x="517" y="459"/>
      <point x="495" y="370" type="curve"/>
    </contour>
    <contour>
      <point x="483" y="324" type="line"/>
      <point x="423" y="84"/>
      <point x="322" y="23"/>
      <point x="272" y="23" type="curve" smooth="yes"/>
      <point x="197" y="23"/>
      <point x="192" y="134"/>
      <point x="192" y="164" type="curve" smooth="yes"/>
      <point x="192" y="203"/>
      <point x="199" y="250"/>
      <point x="216" y="324" type="curve"/>
    </contour>
  </outline>
</glyph>
<glyph name="iota" format="2">
  <advance width="549"/>
  <unicode hex="03B9"/>
  <outline>
    <contour>
      <point x="459" y="144" type="curve" smooth="yes"/>
      <point x="459" y="158"/>
      <point x="442" y="158"/>
      <point x="438" y="158" type="curve" smooth="yes"/>
      <point x="421" y="158"/>
      <point x="419" y="152"/>
      <point x="416" y="143" type="curve" smooth="yes"/>
      <point x="385" y="48"/>
      <point x="280" y="23"/>
      <point x="235" y="23" type="curve" smooth="yes"/>
      <point x="225" y="23"/>
      <point x="203" y="23"/>
      <point x="203" y="61" type="curve" smooth="yes"/>
      <point x="203" y="81"/>
      <point x="207" y="91"/>
      <point x="216" y="114" type="curve" smooth="yes"/>
      <point x="267" y="241"/>
      <point x="304" y="400"/>
      <point x="304" y="407" type="curve" smooth="yes"/>
      <point x="304" y="424"/>
      <point x="291" y="442"/>
      <point x="267" y="442" type="curve" smooth="yes"/>
      <point x="248" y="442"/>
      <point x="231" y="431"/>
      <point x="222" y="415" type="curve" smooth="yes"/>
      <point x="214" y="401"/>
      <point x="208" y="360"/>
      <point x="202" y="345" type="curve"/>
      <point x="197" y="328"/>
      <point x="187" y="285"/>
      <point x="181" y="269" type="curve"/>
      <point x="176" y="251"/>
      <point x="168" y="225"/>
      <point x="164" y="212" type="curve" smooth="yes"/>
      <point x="155" y="180"/>
      <point x="120" y="104"/>
      <point x="120" y="77" type="curve" smooth="yes"/>
      <point x="120" y="32"/>
      <point x="161" y="-11"/>
      <point x="232" y="-11" type="curve" smooth="yes"/>
      <point x="264" y="-11"/>
      <point x="323" y="-3"/>
      <point x="379" y="34" type="curve" smooth="yes"/>
      <point x="449" y="81"/>
      <point x="459" y="140"/>
    </contour>
  </outline>
</glyph>
<glyph name="kappa" format="2">
  <advance width="827"/>
  <unicode hex="03BA"/>
  <outline>
    <contour>
      <point x="338" y="257" type="curve"/>
      <point x="372" y="275"/>
      <point x="400" y="293"/>
      <point x="429" y="312" type="curve" smooth="yes"/>
      <point x="497" y="356"/>
      <point x="531" y="375"/>
      <point x="569" y="387" type="curve"/>
      <point x="568" y="384"/>
      <point x="567" y="381"/>
      <point x="567" y="370" type="curve" smooth="yes"/>
      <point x="567" y="338"/>
      <point x="592" y="328"/>
      <point x="610" y="328" type="curve" smooth="yes"/>
      <point x="645" y="328"/>
      <point x="672" y="359"/>
      <point x="672" y="389" type="curve" smooth="yes"/>
      <point x="672" y="405"/>
      <point x="665" y="431"/>
      <point x="625" y="431" type="curve" smooth="yes"/>
      <point x="553" y="431"/>
      <point x="476" y="380"/>
      <point x="419" y="343" type="curve" smooth="yes"/>
      <point x="349" y="298"/>
      <point x="312" y="277"/>
      <point x="270" y="266" type="curve"/>
      <point x="288" y="339" type="line" smooth="yes"/>
      <point x="294" y="362"/>
      <point x="304" y="401"/>
      <point x="304" y="407" type="curve" smooth="yes"/>
      <point x="304" y="424"/>
      <point x="291" y="442"/>
      <point x="267" y="442" type="curve" smooth="yes"/>
      <point x="248" y="442"/>
      <point x="231" y="431"/>
      <point x="222" y="415" type="curve" smooth="yes"/>
      <point x="217" y="406"/>
      <point x="124" y="34"/>
      <point x="124" y="24" type="curve" smooth="yes"/>
      <point x="124" y="2"/>
      <point x="142" y="-11"/>
      <point x="161" y="-11" type="curve" smooth="yes"/>
      <point x="175" y="-11"/>
      <point x="202" y="-3"/>
      <point x="211" y="30" type="curve" smooth="yes"/>
      <point x="215" y="45"/>
      <point x="214" y="46"/>
      <point x="260" y="225" type="curve"/>
      <point x="283" y="224"/>
      <point x="305" y="224"/>
      <point x="328" y="223" type="curve" smooth="yes"/>
      <point x="419" y="217"/>
      <point x="480" y="199"/>
      <point x="480" y="147" type="curve" smooth="yes"/>
      <point x="480" y="138"/>
      <point x="477" y="124"/>
      <point x="476" y="123" type="curve"/>
      <point x="473" y="108"/>
      <point x="473" y="102"/>
      <point x="473" y="96" type="curve" smooth="yes"/>
      <point x="473" y="25"/>
      <point x="537" y="-11"/>
      <point x="595" y="-11" type="curve" smooth="yes"/>
      <point x="698" y="-11"/>
      <point x="737" y="133"/>
      <point x="737" y="144" type="curve" smooth="yes"/>
      <point x="737" y="158"/>
      <point x="720" y="158"/>
      <point x="716" y="158" type="curve" smooth="yes"/>
      <point x="699" y="158"/>
      <point x="697" y="153"/>
      <point x="692" y="135" type="curve" smooth="yes"/>
      <point x="682" y="101"/>
      <point x="653" y="23"/>
      <point x="599" y="23" type="curve" smooth="yes"/>
      <point x="561" y="23"/>
      <point x="557" y="63"/>
      <point x="557" y="81" type="curve" smooth="yes"/>
      <point x="557" y="97"/>
      <point x="561" y="112"/>
      <point x="561" y="115" type="curve"/>
      <point x="565" y="132"/>
      <point x="565" y="134"/>
      <point x="565" y="145" type="curve" smooth="yes"/>
      <point x="565" y="244"/>
      <point x="425" y="252"/>
    </contour>
  </outline>
</glyph>
<glyph name="lambda" format="2">
  <advance width="840"/>
  <unicode hex="03BB"/>
  <outline>
    <contour>
      <point x="485" y="284" type="line"/>
      <point x="533" y="194"/>
      <point x="613" y="30"/>
      <point x="622" y="17" type="curve" smooth="yes"/>
      <point x="631" y="5"/>
      <point x="644" y="-1"/>
      <point x="645" y="-2" type="curve"/>
      <point x="662" y="-11"/>
      <point x="665" y="-11"/>
      <point x="685" y="-11" type="curve" smooth="yes"/>
      <point x="710" y="-11" type="line" smooth="yes"/>
      <point x="728" y="-11"/>
      <point x="740" y="-11"/>
      <point x="740" y="3" type="curve" smooth="yes"/>
      <point x="740" y="9"/>
      <point x="737" y="13"/>
      <point x="733" y="16" type="curve"/>
      <point x="721" y="26"/>
      <point x="713" y="42"/>
      <point x="704" y="59" type="curve" smooth="yes"/>
      <point x="412" y="634" type="line" smooth="yes"/>
      <point x="393" y="671"/>
      <point x="362" y="694"/>
      <point x="266" y="694" type="curve" smooth="yes"/>
      <point x="245" y="694"/>
      <point x="229" y="694"/>
      <point x="229" y="676" type="curve" smooth="yes"/>
      <point x="229" y="662"/>
      <point x="241" y="661"/>
      <point x="254" y="660" type="curve" smooth="yes"/>
      <point x="296" y="655"/>
      <point x="316" y="617"/>
      <point x="331" y="589" type="curve" smooth="yes"/>
      <point x="380" y="492" type="line" smooth="yes"/>
      <point x="399" y="455"/>
      <point x="447" y="363"/>
      <point x="465" y="325" type="curve"/>
      <point x="145" y="65" type="line" smooth="yes"/>
      <point x="138" y="59"/>
      <point x="122" y="43"/>
      <point x="122" y="25" type="curve" smooth="yes"/>
      <point x="122" y="4"/>
      <point x="139" y="-13"/>
      <point x="160" y="-13" type="curve" smooth="yes"/>
      <point x="178" y="-13"/>
      <point x="188" y="-2"/>
      <point x="197" y="6" type="curve" smooth="yes"/>
    </contour>
  </outline>
</glyph>
<glyph name="nu" format="2">
  <advance width="712"/>
  <unicode hex="03BD"/>
  <outline>
    <contour>
      <point x="305" y="404" type="line" smooth="yes"/>
      <point x="309" y="418"/>
      <point x="309" y="420"/>
      <point x="309" y="425" type="curve" smooth="yes"/>
      <point x="309" y="442"/>
      <point x="294" y="442"/>
      <point x="278" y="441" type="curve" smooth="yes"/>
      <point x="155" y="432" type="line" smooth="yes"/>
      <point x="138" y="431"/>
      <point x="136" y="430"/>
      <point x="131" y="426" type="curve"/>
      <point x="127" y="421"/>
      <point x="124" y="409"/>
      <point x="124" y="403" type="curve" smooth="yes"/>
      <point x="124" y="386"/>
      <point x="140" y="386"/>
      <point x="154" y="386" type="curve" smooth="yes"/>
      <point x="189" y="386"/>
      <point x="197" y="383"/>
      <point x="208" y="379" type="curve"/>
      <point x="207" y="363"/>
      <point x="207" y="361"/>
      <point x="202" y="342" type="curve" smooth="yes"/>
      <point x="130" y="54" type="line" smooth="yes"/>
      <point x="127" y="42"/>
      <point x="121" y="19"/>
      <point x="121" y="17" type="curve" smooth="yes"/>
      <point x="121" y="4"/>
      <point x="132" y="0"/>
      <point x="143" y="0" type="curve" smooth="yes"/>
      <point x="160" y="0" type="line"/>
      <point x="234" y="10"/>
      <point x="370" y="44"/>
      <point x="502" y="140" type="curve" smooth="yes"/>
      <point x="654" y="252"/>
      <point x="685" y="393"/>
      <point x="685" y="407" type="curve" smooth="yes"/>
      <point x="685" y="424"/>
      <point x="672" y="442"/>
      <point x="648" y="442" type="curve" smooth="yes"/>
      <point x="628" y="442"/>
      <point x="606" y="428"/>
      <point x="599" y="404" type="curve" smooth="yes"/>
      <point x="586" y="358"/>
      <point x="559" y="267"/>
      <point x="450" y="170" type="curve" smooth="yes"/>
      <point x="394" y="121"/>
      <point x="310" y="70"/>
      <point x="215" y="45" type="curve"/>
    </contour>
  </outline>
</glyph>
<glyph name="xi" format="2">
  <advance width="666"/>
  <unicode hex="03BE"/>
  <outline>
    <contour>
      <point x="278" y="286" type="curve"/>
      <point x="326" y="271"/>
      <point x="374" y="271"/>
      <point x="398" y="271" type="curve" smooth="yes"/>
      <point x="439" y="271"/>
      <point x="516" y="271"/>
      <point x="516" y="312" type="curve" smooth="yes"/>
      <point x="516" y="347"/>
      <point x="452" y="347"/>
      <point x="411" y="347" type="curve" smooth="yes"/>
      <point x="389" y="347"/>
      <point x="350" y="347"/>
      <point x="298" y="332" type="curve"/>
      <point x="268" y="356"/>
      <point x="259" y="385"/>
      <point x="259" y="410" type="curve" smooth="yes"/>
      <point x="259" y="452"/>
      <point x="289" y="528"/>
      <point x="388" y="565" type="curve"/>
      <point x="414" y="538"/>
      <point x="445" y="538"/>
      <point x="470" y="538" type="curve" smooth="yes"/>
      <point x="506" y="538"/>
      <point x="582" y="538"/>
      <point x="582" y="579" type="curve" smooth="yes"/>
      <point x="582" y="612"/>
      <point x="528" y="614"/>
      <point x="476" y="614" type="curve" smooth="yes"/>
      <point x="451" y="614"/>
      <point x="437" y="614"/>
      <point x="406" y="610" type="curve"/>
      <point x="402" y="622"/>
      <point x="402" y="623"/>
      <point x="402" y="641" type="curve" smooth="yes"/>
      <point x="402" y="662"/>
      <point x="407" y="674"/>
      <point x="407" y="681" type="curve" smooth="yes"/>
      <point x="407" y="695"/>
      <point x="396" y="701"/>
      <point x="387" y="701" type="curve" smooth="yes"/>
      <point x="360" y="701"/>
      <point x="360" y="652"/>
      <point x="360" y="643" type="curve" smooth="yes"/>
      <point x="360" y="622"/>
      <point x="362" y="618"/>
      <point x="366" y="603" type="curve"/>
      <point x="224" y="572"/>
      <point x="163" y="487"/>
      <point x="163" y="412" type="curve" smooth="yes"/>
      <point x="163" y="341"/>
      <point x="218" y="312"/>
      <point x="233" y="304" type="curve"/>
      <point x="137" y="255"/>
      <point x="85" y="163"/>
      <point x="85" y="103" type="curve" smooth="yes"/>
      <point x="85" y="57"/>
      <point x="110" y="33"/>
      <point x="125" y="17" type="curve" smooth="yes"/>
      <point x="157" y="-14"/>
      <point x="202" y="-28"/>
      <point x="279" y="-51" type="curve" smooth="yes"/>
      <point x="420" y="-94" type="line" smooth="yes"/>
      <point x="449" y="-103"/>
      <point x="463" y="-107"/>
      <point x="463" y="-128" type="curve" smooth="yes"/>
      <point x="463" y="-137"/>
      <point x="458" y="-171"/>
      <point x="420" y="-171" type="curve" smooth="yes"/>
      <point x="403" y="-171"/>
      <point x="358" y="-167"/>
      <point x="317" y="-148" type="curve" smooth="yes"/>
      <point x="300" y="-140"/>
      <point x="298" y="-140"/>
      <point x="295" y="-140" type="curve" smooth="yes"/>
      <point x="285" y="-140"/>
      <point x="278" y="-149"/>
      <point x="278" y="-157" type="curve" smooth="yes"/>
      <point x="278" y="-172"/>
      <point x="307" y="-182"/>
      <point x="333" y="-190" type="curve" smooth="yes"/>
      <point x="369" y="-202"/>
      <point x="403" y="-205"/>
      <point x="421" y="-205" type="curve" smooth="yes"/>
      <point x="492" y="-205"/>
      <point x="534" y="-142"/>
      <point x="534" y="-92" type="curve" smooth="yes"/>
      <point x="534" y="-35"/>
      <point x="489" y="-21"/>
      <point x="468" y="-14" type="curve" smooth="yes"/>
      <point x="453" y="-9"/>
      <point x="404" y="5"/>
      <point x="382" y="12" type="curve"/>
      <point x="377" y="13"/>
      <point x="337" y="25"/>
      <point x="296" y="38" type="curve" smooth="yes"/>
      <point x="211" y="64"/>
      <point x="152" y="82"/>
      <point x="152" y="134" type="curve" smooth="yes"/>
      <point x="152" y="165"/>
      <point x="182" y="242"/>
    </contour>
    <contour>
      <point x="528" y="576" type="line"/>
      <point x="518" y="574"/>
      <point x="507" y="572"/>
      <point x="471" y="572" type="curve" smooth="yes"/>
      <point x="446" y="572"/>
      <point x="444" y="572"/>
      <point x="433" y="577" type="curve"/>
      <point x="449" y="580"/>
      <point x="454" y="580"/>
      <point x="477" y="580" type="curve" smooth="yes"/>
      <point x="494" y="580"/>
      <point x="507" y="580"/>
      <point x="528" y="577" type="curve"/>
    </contour>
    <contour>
      <point x="461" y="309" type="line"/>
      <point x="446" y="307"/>
      <point x="438" y="305"/>
      <point x="402" y="305" type="curve" smooth="yes"/>
      <point x="380" y="305"/>
      <point x="371" y="305"/>
      <point x="353" y="309" type="curve"/>
      <point x="377" y="313"/>
      <point x="388" y="313"/>
      <point x="409" y="313" type="curve" smooth="yes"/>
      <point x="439" y="313"/>
      <point x="449" y="312"/>
      <point x="461" y="310" type="curve"/>
    </contour>
  </outline>
</glyph>
<glyph name="pi" format="2">
  <advance width="831"/>
  <unicode hex="03C0"/>
  <outline>
    <contour>
      <point x="705" y="355" type="line" smooth="yes"/>
      <point x="723" y="355"/>
      <point x="733" y="355"/>
      <point x="747" y="365" type="curve"/>
      <point x="753" y="371"/>
      <point x="763" y="385"/>
      <point x="763" y="399" type="curve" smooth="yes"/>
      <point x="763" y="431"/>
      <point x="733" y="431"/>
      <point x="716" y="431" type="curve" smooth="yes"/>
      <point x="287" y="431" type="line" smooth="yes"/>
      <point x="265" y="431"/>
      <point x="220" y="431"/>
      <point x="161" y="381" type="curve" smooth="yes"/>
      <point x="134" y="357"/>
      <point x="89" y="306"/>
      <point x="89" y="294" type="curve" smooth="yes"/>
      <point x="89" y="280"/>
      <point x="103" y="280"/>
      <point x="109" y="280" type="curve" smooth="yes"/>
      <point x="123" y="280"/>
      <point x="123" y="281"/>
      <point x="131" y="290" type="curve"/>
      <point x="165" y="333"/>
      <point x="213" y="355"/>
      <point x="274" y="355" type="curve" smooth="yes"/>
      <point x="345" y="355" type="line"/>
      <point x="309" y="230"/>
      <point x="258" y="126"/>
      <point x="223" y="63" type="curve" smooth="yes"/>
      <point x="208" y="37"/>
      <point x="208" y="35"/>
      <point x="208" y="25" type="curve" smooth="yes"/>
      <point x="208" y="2"/>
      <point x="226" y="-11"/>
      <point x="246" y="-11" type="curve" smooth="yes"/>
      <point x="288" y="-11"/>
      <point x="302" y="35"/>
      <point x="325" y="116" type="curve" smooth="yes"/>
      <point x="348" y="194"/>
      <point x="366" y="266"/>
      <point x="389" y="355" type="curve"/>
      <point x="520" y="355" type="line"/>
      <point x="516" y="340"/>
      <point x="488" y="231"/>
      <point x="488" y="152" type="curve" smooth="yes"/>
      <point x="488" y="83"/>
      <point x="513" y="-11"/>
      <point x="557" y="-11" type="curve" smooth="yes"/>
      <point x="581" y="-11"/>
      <point x="609" y="12"/>
      <point x="609" y="38" type="curve" smooth="yes"/>
      <point x="609" y="49"/>
      <point x="605" y="54"/>
      <point x="598" y="66" type="curve" smooth="yes"/>
      <point x="552" y="141"/>
      <point x="552" y="229"/>
      <point x="552" y="247" type="curve" smooth="yes"/>
      <point x="552" y="281"/>
      <point x="557" y="321"/>
      <point x="563" y="355" type="curve"/>
    </contour>
  </outline>
</glyph>
<glyph name="rho" format="2">
  <advance width="726"/>
  <unicode hex="03C1"/>
  <outline>
    <contour>
      <point x="99" y="-157" type="line" smooth="yes"/>
      <point x="95" y="-173"/>
      <point x="95" y="-178"/>
      <point x="95" y="-181" type="curve" smooth="yes"/>
      <point x="95" y="-204"/>
      <point x="113" y="-216"/>
      <point x="132" y="-216" type="curve" smooth="yes"/>
      <point x="171" y="-216"/>
      <point x="179" y="-183"/>
      <point x="186" y="-159" type="curve" smooth="yes"/>
      <point x="239" y="52" type="line"/>
      <point x="270" y="11"/>
      <point x="312" y="-11"/>
      <point x="366" y="-11" type="curve" smooth="yes"/>
      <point x="509" y="-11"/>
      <point x="655" y="121"/>
      <point x="655" y="266" type="curve" smooth="yes"/>
      <point x="655" y="372"/>
      <point x="575" y="442"/>
      <point x="471" y="442" type="curve" smooth="yes"/>
      <point x="355" y="442"/>
      <point x="226" y="350"/>
      <point x="193" y="217" type="curve" smooth="yes"/>
    </contour>
    <contour>
      <point x="366" y="23" type="curve" smooth="yes"/>
      <point x="277" y="23"/>
      <point x="254" y="102"/>
      <point x="254" y="112" type="curve" smooth="yes"/>
      <point x="254" y="115"/>
      <point x="283" y="228"/>
      <point x="283" y="230" type="curve"/>
      <point x="325" y="381"/>
      <point x="427" y="408"/>
      <point x="469" y="408" type="curve" smooth="yes"/>
      <point x="512" y="408"/>
      <point x="565" y="384"/>
      <point x="565" y="302" type="curve" smooth="yes"/>
      <point x="565" y="259"/>
      <point x="544" y="166"/>
      <point x="512" y="114" type="curve" smooth="yes"/>
      <point x="471" y="49"/>
      <point x="411" y="23"/>
    </contour>
  </outline>
</glyph>
<glyph name="sigma1" format="2">
  <advance width="578"/>
  <unicode hex="03C2"/>
  <outline>
    <contour>
      <point x="471" y="8" type="curve" smooth="yes"/>
      <point x="471" y="64"/>
      <point x="435" y="80"/>
      <point x="387" y="100" type="curve" smooth="yes"/>
      <point x="310" y="133" type="line" smooth="yes"/>
      <point x="300" y="137"/>
      <point x="265" y="152"/>
      <point x="249" y="160" type="curve"/>
      <point x="218" y="173"/>
      <point x="162" y="197"/>
      <point x="162" y="253" type="curve" smooth="yes"/>
      <point x="162" y="338"/>
      <point x="275" y="408"/>
      <point x="415" y="408" type="curve" smooth="yes"/>
      <point x="452" y="408"/>
      <point x="479" y="400"/>
      <point x="517" y="385" type="curve" smooth="yes"/>
      <point x="525" y="382"/>
      <point x="526" y="382"/>
      <point x="530" y="382" type="curve" smooth="yes"/>
      <point x="543" y="382"/>
      <point x="554" y="393"/>
      <point x="554" y="406" type="curve" smooth="yes"/>
      <point x="554" y="418"/>
      <point x="549" y="427"/>
      <point x="503" y="436" type="curve" smooth="yes"/>
      <point x="471" y="442"/>
      <point x="436" y="442"/>
      <point x="425" y="442" type="curve" smooth="yes"/>
      <point x="219" y="442"/>
      <point x="94" y="326"/>
      <point x="94" y="219" type="curve" smooth="yes"/>
      <point x="94" y="127"/>
      <point x="178" y="91"/>
      <point x="228" y="69" type="curve" smooth="yes"/>
      <point x="241" y="64"/>
      <point x="294" y="41"/>
      <point x="319" y="30" type="curve" smooth="yes"/>
      <point x="338" y="21"/>
      <point x="340" y="21"/>
      <point x="365" y="10" type="curve" smooth="yes"/>
      <point x="380" y="4"/>
      <point x="399" y="-4"/>
      <point x="399" y="-29" type="curve" smooth="yes"/>
      <point x="399" y="-39"/>
      <point x="391" y="-74"/>
      <point x="357" y="-74" type="curve" smooth="yes"/>
      <point x="340" y="-74"/>
      <point x="324" y="-71"/>
      <point x="308" y="-66" type="curve"/>
      <point x="303" y="-64"/>
      <point x="298" y="-63"/>
      <point x="295" y="-63" type="curve" smooth="yes"/>
      <point x="289" y="-63"/>
      <point x="277" y="-68"/>
      <point x="277" y="-80" type="curve" smooth="yes"/>
      <point x="277" y="-105"/>
      <point x="356" y="-108"/>
      <point x="357" y="-108" type="curve" smooth="yes"/>
      <point x="428" y="-108"/>
      <point x="471" y="-41"/>
    </contour>
  </outline>
</glyph>
